<?xml version="1.0" encoding="UTF-8"?>
<svg id="Layer_2" data-name="Layer 2" xmlns="http://www.w3.org/2000/svg" viewBox="0 0 99.62 129.35">
  <defs>
    <style>
      .cls-1 {
        fill: #e6e6e6;
      }

      .cls-2 {
        fill: #fff;
      }

      .cls-3 {
        fill: #f2f2f2;
      }

      .cls-4 {
        fill: #1a1a1a;
      }
    </style>
  </defs>
  <g id="Cards">
    <g>
      <rect class="cls-3" width="99.62" height="129.35" rx="16.65" ry="16.65"/>
      <rect class="cls-2" x="4.17" y="4.17" width="91.28" height="121.01" rx="12.48" ry="12.48"/>
      <g>
        <rect class="cls-1" x="19.56" y="18.39" width="60.5" height="92.57" rx="12.48" ry="12.48"/>
        <path class="cls-4" d="M49.9,41.39c.45,0,.9.02,1.35.07,5.61.61,10.14,5.12,10.77,10.72.19,1.72.03,3.42-.47,5.02.86.17,1.71.44,2.53.81,4.57,2.05,7.51,6.47,7.47,11.27-.05,6.67-5.52,12.11-12.2,12.11-1.13,0-2.23-.16-3.29-.46.75.59,1.65,1.07,2.72,1.37.41.11.8.22,1.18.32.69.18,1.34.36,2.04.57,1.17.36,1.88,1.49,1.7,2.7-.18,1.2-1.2,2.08-2.41,2.08h-22.98c-1.22,0-2.23-.87-2.41-2.08-.18-1.21.53-2.34,1.7-2.7.7-.21,1.35-.39,2.04-.57.38-.1.77-.21,1.18-.32,1.07-.3,1.97-.78,2.72-1.37-1.06.3-2.17.46-3.29.46-.36,0-.73-.02-1.1-.05-6.03-.53-10.8-5.5-11.08-11.56-.16-3.37,1.03-6.57,3.36-9,1.85-1.94,4.22-3.19,6.81-3.61-.35-1.15-.53-2.35-.53-3.57,0-6.73,5.47-12.2,12.2-12.2M49.9,40.34c-7.3,0-13.24,5.94-13.24,13.24,0,.94.1,1.87.29,2.77-2.39.61-4.54,1.87-6.28,3.69-2.52,2.64-3.82,6.11-3.64,9.77.28,6.04,4.67,11.08,10.45,12.32-.06.02-.12.04-.18.06-1.67.51-2.69,2.13-2.43,3.85.26,1.72,1.71,2.97,3.45,2.97h22.98c1.74,0,3.19-1.25,3.45-2.97.26-1.72-.76-3.34-2.43-3.85-.06-.02-.13-.04-.19-.06,5.94-1.27,10.43-6.55,10.48-12.85.04-5.21-3.14-10.01-8.09-12.23-.55-.25-1.11-.45-1.68-.62.31-1.42.39-2.89.22-4.37-.69-6.09-5.6-10.99-11.69-11.64-.48-.05-.98-.08-1.46-.08h0Z"/>
        <path class="cls-4" d="M59.37,79.3c5.56,0,10.07-4.49,10.11-10.03.03-4.06-2.53-7.69-6.24-9.35-1.71-.77-3.35-.94-4.89-.78,1.24-1.89,1.88-4.22,1.6-6.71-.52-4.63-4.28-8.38-8.92-8.88-6.09-.66-11.24,4.09-11.24,10.05,0,2.06.62,3.98,1.68,5.57-.4-.05-.8-.08-1.22-.08-5.74,0-10.37,4.79-10.1,10.6.23,4.98,4.21,9.14,9.18,9.58,4.12.36,7.77-1.75,9.66-5.01.08-.14.3-.07.27.09-.55,3.17-2.39,8.43-7.88,9.97-1.13.32-2.13.56-3.17.88-.39.12-.31.7.1.7h22.98c.41,0,.49-.58.1-.7-1.04-.32-2.04-.56-3.17-.88-5.5-1.54-7.33-6.8-7.88-9.97-.03-.16.19-.24.27-.09,1.75,3.02,5,5.05,8.74,5.05Z"/>
      </g>
      <path class="cls-4" d="M31.16,31.01l-8.85.61c-.44-1.26-1.02-3.04-1.02-3.04l-6.25.23s-.38,1.2-.67,2.43l-5.9.23,7.6-18.67-1.14-2.31c2.92-.79,4.91-1.29,7.19-2.16l9.06,22.67ZM19.82,24.2l-1.75-5.52-1.69,5.81,3.45-.29Z"/>
      <path class="cls-4" d="M68.41,98.12l8.85-.61c.44,1.26,1.02,3.04,1.02,3.04l6.25-.23s.38-1.2.67-2.43l5.9-.23-7.6,18.67,1.14,2.31c-2.92.79-4.91,1.29-7.19,2.16l-9.06-22.67ZM79.75,104.93l1.75,5.52,1.69-5.81-3.45.29Z"/>
      <path class="cls-4" d="M23.16,48.65c2.08,0,3.77-1.68,3.79-3.76.01-1.52-.95-2.88-2.34-3.51-.64-.29-1.25-.35-1.83-.29.47-.71.7-1.58.6-2.52-.2-1.74-1.61-3.14-3.34-3.33-2.28-.25-4.21,1.54-4.21,3.77,0,.77.23,1.49.63,2.09-.15-.02-.3-.03-.46-.03-2.15,0-3.89,1.8-3.79,3.97.09,1.87,1.58,3.43,3.44,3.59,1.54.14,2.91-.66,3.62-1.88.03-.05.11-.03.1.04-.2,1.19-.89,3.16-2.95,3.74-.42.12-.8.21-1.19.33-.15.05-.12.26.04.26h8.62c.15,0,.18-.22.04-.26-.39-.12-.77-.21-1.19-.33-2.06-.58-2.75-2.55-2.95-3.74-.01-.06.07-.09.1-.04.66,1.13,1.88,1.89,3.28,1.89Z"/>
      <path class="cls-4" d="M83.67,80.47c2.08,0,3.77,1.68,3.79,3.76.01,1.52-.95,2.88-2.34,3.51-.64.29-1.25.35-1.83.29.47.71.7,1.58.6,2.52-.2,1.74-1.61,3.14-3.34,3.33-2.28.25-4.21-1.53-4.21-3.77,0-.77.23-1.49.63-2.09-.15.02-.3.03-.46.03-2.15,0-3.89-1.8-3.79-3.97.09-1.87,1.58-3.43,3.44-3.59,1.54-.14,2.91.66,3.62,1.88.03.05.11.03.1-.04-.2-1.19-.89-3.16-2.95-3.74-.42-.12-.8-.21-1.19-.33-.15-.04-.12-.26.04-.26h8.62c.15,0,.18.22.04.26-.39.12-.77.21-1.19.33-2.06.58-2.75,2.55-2.95,3.74-.01.06.07.09.1.04.66-1.13,1.88-1.89,3.28-1.89Z"/>
    </g>
  </g>
</svg>