<?xml version="1.0" encoding="UTF-8"?>
<svg id="Layer_2" data-name="Layer 2" xmlns="http://www.w3.org/2000/svg" viewBox="0 0 100.12 130">
  <defs>
    <style>
      .cls-1 {
        fill: #e6e6e6;
      }

      .cls-2 {
        fill: #fff;
      }

      .cls-3 {
        fill: #f2f2f2;
      }

      .cls-4 {
        fill: #1a1a1a;
      }
    </style>
  </defs>
  <g id="Cards">
    <g>
      <rect class="cls-3" width="100.12" height="130" rx="16.74" ry="16.74"/>
      <rect class="cls-2" x="4.19" y="4.19" width="91.73" height="121.61" rx="12.54" ry="12.54"/>
      <g>
        <rect class="cls-1" x="19.66" y="18.48" width="60.81" height="93.04" rx="12.54" ry="12.54"/>
        <path class="cls-4" d="M59.66,79.69c5.59,0,10.12-4.51,10.16-10.08.03-4.08-2.54-7.73-6.27-9.4-1.72-.77-3.36-.94-4.91-.79,1.25-1.9,1.89-4.24,1.6-6.74-.52-4.66-4.3-8.42-8.96-8.93-6.12-.66-11.29,4.11-11.29,10.1,0,2.07.62,4,1.69,5.6-.4-.05-.81-.08-1.22-.08-5.77,0-10.42,4.82-10.15,10.65.23,5.01,4.24,9.19,9.23,9.63,4.14.36,7.81-1.76,9.71-5.04.08-.14.3-.07.27.09-.55,3.19-2.4,8.47-7.92,10.02-1.14.32-2.14.56-3.19.88-.39.12-.31.7.1.7h11.55s11.55,0,11.55,0c.41,0,.49-.58.1-.7-1.05-.32-2.05-.57-3.19-.88-5.52-1.54-7.37-6.83-7.92-10.02-.03-.16.19-.24.27-.09,1.76,3.03,5.03,5.08,8.79,5.08Z"/>
      </g>
      <g>
        <path class="cls-4" d="M14.93,10.73c-.15,4.08-.58,13.59-.73,19.17l-5.99.23-.15-13.31-3.02,1.33-.28-3.27,9.99-4.3.18.15Z"/>
        <path class="cls-4" d="M26.46,30.03c-5.69,0-9.21-3.88-9.21-9.34,0-6.29,4.13-9.66,9.01-9.66s8.76,3.9,8.76,9.81c0,5.56-4.18,9.18-8.56,9.18ZM26.15,15.63c-1.71,0-2.47,2.21-2.47,4.76,0,2.74.96,5.36,2.77,5.36,1.06,0,2.16-1.43,2.16-4.23,0-3.62-1.01-5.89-2.47-5.89Z"/>
      </g>
      <g>
        <path class="cls-4" d="M85.14,119.04c.15-4.08.58-13.59.73-19.17l5.99-.23.15,13.31,3.02-1.33.28,3.27-9.99,4.3-.18-.15Z"/>
        <path class="cls-4" d="M73.61,99.74c5.69,0,9.21,3.88,9.21,9.34,0,6.29-4.13,9.66-9.01,9.66s-8.76-3.9-8.76-9.81c0-5.56,4.18-9.18,8.56-9.18ZM73.92,114.14c1.71,0,2.47-2.21,2.47-4.76,0-2.74-.96-5.36-2.77-5.36-1.06,0-2.16,1.43-2.16,4.23,0,3.62,1.01,5.89,2.47,5.89Z"/>
      </g>
      <path class="cls-4" d="M23.28,48.9c2.09,0,3.79-1.69,3.81-3.78.01-1.53-.95-2.9-2.35-3.52-.64-.29-1.26-.35-1.84-.3.47-.71.71-1.59.6-2.53-.2-1.75-1.61-3.16-3.36-3.35-2.29-.25-4.23,1.54-4.23,3.79,0,.78.23,1.5.63,2.1-.15-.02-.3-.03-.46-.03-2.16,0-3.91,1.81-3.8,3.99.09,1.88,1.59,3.45,3.46,3.61,1.55.14,2.93-.66,3.64-1.89.03-.05.11-.03.1.04-.21,1.19-.9,3.18-2.97,3.76-.43.12-.8.21-1.2.33-.15.05-.12.26.04.26h8.66c.15,0,.19-.22.04-.26-.39-.12-.77-.21-1.2-.33-2.07-.58-2.76-2.56-2.97-3.76-.01-.06.07-.09.1-.04.66,1.14,1.89,1.9,3.29,1.9Z"/>
      <path class="cls-4" d="M84.08,80.88c2.09,0,3.79,1.69,3.81,3.78.01,1.53-.95,2.9-2.35,3.52-.64.29-1.26.35-1.84.3.47.71.71,1.59.6,2.53-.2,1.75-1.61,3.16-3.36,3.35-2.29.25-4.23-1.54-4.23-3.79,0-.78.23-1.5.63-2.1-.15.02-.3.03-.46.03-2.16,0-3.91-1.81-3.8-3.99.09-1.88,1.59-3.45,3.46-3.61,1.55-.14,2.93.66,3.64,1.89.03.05.11.03.1-.04-.21-1.19-.9-3.18-2.97-3.76-.43-.12-.8-.21-1.2-.33-.15-.05-.12-.26.04-.26h8.66c.15,0,.19.22.04.26-.39.12-.77.21-1.2.33-2.07.58-2.76,2.56-2.97,3.76-.01.06.07.09.1.04.66-1.14,1.89-1.9,3.29-1.9Z"/>
    </g>
  </g>
</svg>