<?xml version="1.0" encoding="UTF-8"?>
<svg id="Layer_2" data-name="Layer 2" xmlns="http://www.w3.org/2000/svg" viewBox="0 0 99.62 129.35">
  <defs>
    <style>
      .cls-1 {
        fill: #e6e6e6;
      }

      .cls-2 {
        fill: #fff;
      }

      .cls-3 {
        fill: #f2f2f2;
      }

      .cls-4 {
        fill: #edb53a;
      }

      .cls-5 {
        fill: #1a1a1a;
      }
    </style>
  </defs>
  <g id="Cards">
    <g>
      <rect class="cls-3" width="99.62" height="129.35" rx="16.65" ry="16.65"/>
      <rect class="cls-2" x="4.17" y="4.17" width="91.28" height="121.01" rx="12.48" ry="12.48"/>
      <rect class="cls-1" x="19.44" y="18.39" width="60.5" height="92.57" rx="12.48" ry="12.48"/>
      <path class="cls-5" d="M25.42,29.24c-1.55,1.34-5.32,2.51-7.51,2.51-2.72,0-4.97-.35-6.81-.88l-.2-4.56c1.4.38,3.65.7,5.02.7.53,0,1.05,0,1.49-.12l-.32-17.18c1.29,0,8.62-.61,8.62-.61l-.29,20.13Z"/>
      <path class="cls-5" d="M74.11,99.63c1.55-1.34,5.32-2.51,7.51-2.51,2.72,0,4.97.35,6.81.88l.2,4.56c-1.4-.38-3.65-.7-5.03-.7-.53,0-1.05,0-1.49.12l.32,17.18c-1.29,0-8.62.61-8.62.61l.29-20.13Z"/>
      <path class="cls-5" d="M23.14,48.52c2.08,0,3.77-1.68,3.79-3.76.01-1.52-.95-2.88-2.34-3.51-.64-.29-1.25-.35-1.83-.29.47-.71.7-1.58.6-2.52-.2-1.74-1.61-3.14-3.34-3.33-2.28-.25-4.21,1.53-4.21,3.77,0,.77.23,1.49.63,2.09-.15-.02-.3-.03-.46-.03-2.15,0-3.89,1.8-3.79,3.97.09,1.87,1.58,3.43,3.44,3.59,1.54.14,2.91-.66,3.62-1.88.03-.05.11-.03.1.04-.2,1.19-.89,3.16-2.95,3.74-.42.12-.8.21-1.19.33-.15.05-.12.26.04.26h8.62c.15,0,.18-.22.04-.26-.39-.12-.77-.21-1.19-.33-2.06-.58-2.75-2.55-2.95-3.74-.01-.06.07-.09.1-.04.66,1.13,1.88,1.89,3.28,1.89Z"/>
      <path class="cls-5" d="M83.65,80.35c2.08,0,3.77,1.68,3.79,3.76.01,1.52-.95,2.88-2.34,3.51-.64.29-1.25.35-1.83.29.47.71.7,1.58.6,2.52-.2,1.74-1.61,3.14-3.34,3.33-2.28.25-4.21-1.53-4.21-3.77,0-.77.23-1.49.63-2.09-.15.02-.3.03-.46.03-2.15,0-3.89-1.8-3.79-3.97.09-1.87,1.58-3.43,3.44-3.59,1.54-.14,2.91.66,3.62,1.88.03.05.11.03.1-.04-.2-1.19-.89-3.16-2.95-3.74-.42-.12-.8-.21-1.19-.33-.15-.04-.12-.26.04-.26h4.31s4.31,0,4.31,0c.15,0,.18.22.04.26-.39.12-.77.21-1.19.33-2.06.58-2.75,2.55-2.95,3.74-.01.06.07.09.1.04.66-1.13,1.88-1.89,3.28-1.89Z"/>
      <g>
        <path class="cls-4" d="M62.43,32.01c-.55.06-1,.51-1.08,1.05-.07.56.24,1.06.7,1.28l-11.35-1.9c.83-.41,1.37-1.29,1.28-2.29-.11-1.13-1.05-2.03-2.18-2.08-1.32-.06-2.42.99-2.42,2.3,0,.91.53,1.69,1.29,2.07l-11.2,1.82c.4-.26.64-.73.54-1.25-.09-.49-.47-.89-.96-.98-.79-.15-1.47.44-1.47,1.2,0,.68.55,1.23,1.23,1.23.06,0,.12,0,.18-.01l1.02,10.46h-.4c-.37,0-.71.27-.74.64-.04.43.29.78.71.78h24.23c.37,0,.71-.27.74-.64.04-.43-.29-.78-.71-.78h-.29l1.02-10.45c.67,0,1.21-.55,1.21-1.23,0-.72-.63-1.3-1.37-1.22Z"/>
        <polygon class="cls-4" points="50.22 80.13 41.87 81.8 49.69 99.3 57.52 82.35 50.22 80.13"/>
        <g>
          <circle class="cls-5" cx="49.69" cy="92.64" r=".52"/>
          <path class="cls-5" d="M50.21,95.44c0,.29-.23.52-.52.52s-.52-.23-.52-.52.23-.52.52-.52.52.23.52.52Z"/>
        </g>
        <g>
          <path class="cls-2" d="M31.63,67.67l-1.52,9.21s-1.04-1.13-2.74,0c-1.7,1.13-.65,3.35,3.26,2.96,3.91-.39,19.15.05,19.15.05l.16-12.21h-18.31Z"/>
          <path class="cls-2" d="M67.75,67.67l1.52,9.21s1.04-1.13,2.74,0c1.7,1.13.65,3.35-3.26,2.96-3.91-.39-19.15.05-19.15.05l-.16-12.21h18.31Z"/>
        </g>
        <path class="cls-5" d="M59.25,76.92c5.56,0,10.07-4.49,10.11-10.03.03-4.06-2.53-7.69-6.24-9.35-1.71-.77-3.35-.94-4.89-.78,1.24-1.89,1.88-4.22,1.6-6.71-.52-4.63-4.28-8.38-8.92-8.88-6.09-.66-11.24,4.09-11.24,10.05,0,2.06.62,3.98,1.68,5.57-.4-.05-.8-.08-1.22-.08-5.74,0-10.37,4.79-10.1,10.6.23,4.98,4.21,9.15,9.18,9.58,4.12.36,7.77-1.75,9.66-5.01.08-.14.3-.07.27.09-.55,3.17-2.39,8.43-7.88,9.97-1.13.32-2.13.56-3.17.88-.39.12-.31.7.1.7h11.49s11.49,0,11.49,0c.41,0,.49-.58.1-.7-1.05-.32-2.04-.56-3.17-.88-5.5-1.54-7.33-6.8-7.88-9.97-.03-.16.19-.24.27-.09,1.75,3.02,5,5.05,8.74,5.05Z"/>
        <g>
          <path class="cls-5" d="M35.83,85.04s3.02,10.87,0,12.83l13.86,1.43-7.82-17.5-6.04,3.24Z"/>
          <path class="cls-2" d="M49.69,99.3s-11.15-3.91-13.86-2.22c-2.71,1.7,1.33,3.69,5.24,3.02,3.91-.67,8.62-.8,8.62-.8Z"/>
          <path class="cls-5" d="M64.04,85.04s-3.13,10.87,0,12.83l-14.35,1.43,7.82-16.95,6.53,2.69Z"/>
          <path class="cls-2" d="M49.69,99.3s11.15-3.91,13.86-2.22c2.71,1.7-1.33,3.69-5.24,3.02-3.91-.67-8.62-.8-8.62-.8Z"/>
          <path class="cls-2" d="M43.81,83.3s-1.23-4.14-7.98,0c-6.75,4.14,9.94,5.12,7.98,0Z"/>
          <path class="cls-2" d="M55.57,83.3s1.23-4.14,7.98,0c6.75,4.14-9.94,5.12-7.98,0Z"/>
        </g>
        <g>
          <path class="cls-5" d="M50.92,89.78c.72,0,1.3-.58,1.3-1.29,0-.52-.33-.99-.8-1.21-.22-.1-.43-.12-.63-.1.16-.24.24-.54.21-.87-.07-.6-.55-1.08-1.15-1.15-.79-.08-1.45.53-1.45,1.3,0,.27.08.51.22.72-.05,0-.1-.01-.16-.01-.74,0-1.34.62-1.3,1.37.03.64.54,1.18,1.18,1.24.53.05,1-.23,1.25-.65.01-.02.04,0,.04.01-.07.41-.31,1.09-1.02,1.29-.15.04-.27.07-.41.11-.05.02-.04.09.01.09h2.97c.05,0,.06-.07.01-.09-.13-.04-.26-.07-.41-.11-.71-.2-.95-.88-1.02-1.29,0-.02.02-.03.04-.01.23.39.65.65,1.13.65Z"/>
          <path class="cls-2" d="M42.42,93.52c.72,0,1.3-.58,1.3-1.29,0-.52-.33-.99-.8-1.21-.22-.1-.43-.12-.63-.1.16-.24.24-.54.21-.87-.07-.6-.55-1.08-1.15-1.15-.79-.08-1.45.53-1.45,1.3,0,.27.08.51.22.72-.05,0-.1-.01-.16-.01-.74,0-1.34.62-1.3,1.37.03.64.54,1.18,1.18,1.24.53.05,1-.23,1.25-.65.01-.02.04,0,.04.01-.07.41-.31,1.09-1.02,1.29-.15.04-.27.07-.41.11-.05.02-.04.09.01.09h1.48s1.48,0,1.48,0c.05,0,.06-.07.01-.09-.13-.04-.26-.07-.41-.11-.71-.2-.95-.88-1.02-1.29,0-.02.02-.03.04-.01.23.39.65.65,1.13.65Z"/>
          <path class="cls-2" d="M59.43,93.52c.72,0,1.3-.58,1.3-1.29,0-.52-.33-.99-.8-1.21-.22-.1-.43-.12-.63-.1.16-.24.24-.54.21-.87-.07-.6-.55-1.08-1.15-1.15-.79-.08-1.45.53-1.45,1.3,0,.27.08.51.22.72-.05,0-.1-.01-.16-.01-.74,0-1.34.62-1.3,1.37.03.64.54,1.18,1.18,1.24.53.05,1-.23,1.25-.65.01-.02.04,0,.04.01-.07.41-.31,1.09-1.02,1.29-.15.04-.27.07-.41.11-.05.02-.04.09.01.09h1.48s1.48,0,1.48,0c.05,0,.06-.07.01-.09-.13-.04-.26-.07-.41-.11-.71-.2-.95-.88-1.02-1.29,0-.02.02-.03.04-.01.23.39.65.65,1.13.65Z"/>
        </g>
      </g>
    </g>
  </g>
</svg>