<?xml version="1.0" encoding="UTF-8"?>
<svg id="Layer_2" data-name="Layer 2" xmlns="http://www.w3.org/2000/svg" viewBox="0 0 100.12 130">
  <defs>
    <style>
      .cls-1 {
        fill: #e6e6e6;
      }

      .cls-2 {
        fill: #fff;
      }

      .cls-3 {
        fill: #f2f2f2;
      }

      .cls-4 {
        fill: #edb53a;
      }

      .cls-5 {
        fill: #1a1a1a;
      }
    </style>
  </defs>
  <g id="Cards">
    <g>
      <rect class="cls-3" width="100.12" height="130" rx="16.74" ry="16.74"/>
      <rect class="cls-2" x="4.19" y="4.19" width="91.73" height="121.61" rx="12.54" ry="12.54"/>
      <rect class="cls-1" x="19.66" y="18.48" width="60.81" height="93.04" rx="12.54" ry="12.54"/>
      <path class="cls-5" d="M30.3,31.27l-6.78-.03c-1.2.35-2.53.59-4.02.59-5.46,0-11.07-3.99-11.07-10.86s4.38-11.92,11.39-11.92c6.49,0,11.22,4.26,11.22,11.19,0,2.35-.85,4.82-2,6.69.91-.09,2.29-.26,2.88-.35l-1.61,4.7ZM18.7,14.33c-1.17,0-1.91.82-1.91,2.17,0,3.85,1.97,10.42,4.4,10.42,1.15,0,1.82-.76,1.82-2.67,0-3.23-2.35-9.92-4.32-9.92Z"/>
      <path class="cls-5" d="M70.25,98.24l6.78.03c1.2-.35,2.53-.59,4.02-.59,5.46,0,11.07,3.99,11.07,10.86s-4.38,11.92-11.39,11.92c-6.49,0-11.22-4.26-11.22-11.19,0-2.35.85-4.82,2-6.69-.91.09-2.29.26-2.88.35l1.62-4.7ZM81.85,115.19c1.17,0,1.91-.82,1.91-2.17,0-3.85-1.97-10.42-4.4-10.42-1.14,0-1.82.76-1.82,2.67,0,3.23,2.35,9.92,4.32,9.92Z"/>
      <path class="cls-5" d="M23.26,48.77c2.09,0,3.79-1.69,3.81-3.78.01-1.53-.95-2.9-2.35-3.52-.64-.29-1.26-.35-1.84-.3.47-.71.71-1.59.6-2.53-.2-1.75-1.61-3.16-3.36-3.35-2.29-.25-4.23,1.54-4.23,3.79,0,.78.23,1.5.63,2.1-.15-.02-.3-.03-.46-.03-2.16,0-3.91,1.81-3.8,3.99.09,1.88,1.59,3.45,3.46,3.61,1.55.14,2.93-.66,3.64-1.89.03-.05.11-.03.1.04-.21,1.19-.9,3.18-2.97,3.76-.43.12-.8.21-1.2.33-.15.05-.12.26.04.26h4.33s4.33,0,4.33,0c.15,0,.19-.22.04-.26-.39-.12-.77-.21-1.2-.33-2.07-.58-2.76-2.56-2.97-3.76-.01-.06.07-.09.1-.04.66,1.14,1.89,1.9,3.29,1.9Z"/>
      <path class="cls-5" d="M84.06,80.75c2.09,0,3.79,1.69,3.81,3.78.01,1.53-.95,2.9-2.35,3.52-.64.29-1.26.35-1.84.3.47.71.71,1.59.6,2.53-.2,1.75-1.61,3.16-3.36,3.35-2.29.25-4.23-1.54-4.23-3.79,0-.78.23-1.5.63-2.1-.15.02-.3.03-.46.03-2.16,0-3.91-1.81-3.81-3.99.09-1.88,1.59-3.45,3.46-3.61,1.55-.14,2.93.66,3.64,1.89.03.05.11.03.1-.04-.21-1.19-.9-3.18-2.97-3.76-.43-.12-.8-.21-1.2-.33-.15-.05-.12-.26.04-.26h8.66c.15,0,.19.22.04.26-.39.12-.77.21-1.2.33-2.07.58-2.76,2.56-2.97,3.76-.01.06.07.09.1.04.66-1.14,1.89-1.9,3.29-1.9Z"/>
      <g>
        <path class="cls-4" d="M58.39,70.11h-17.23c-1.44,0-2.62,1.18-2.62,2.62v23.92c0,1.44,1.18,2.62,2.62,2.62h3.85s4.17,1.53,9.77,0h3.61c1.44,0,2.62-1.18,2.62-2.62v-23.92c0-1.44-1.18-2.62-2.62-2.62Z"/>
        <path class="cls-4" d="M64.24,33.56c0-.73-.63-1.31-1.37-1.23-.55.06-1.01.51-1.08,1.06-.07.57.24,1.07.71,1.29l-2.5,4.3c-.15.26-.55.22-.64-.07l-1.1-3.44c.42-.11.71-.53.63-1-.06-.34-.33-.62-.67-.69-.56-.12-1.06.31-1.06.85,0,.32.17.59.42.74l-2.45,3.16c-.18.23-.48.33-.76.26l-.11-.03c-.21-.05-.38-.2-.48-.39l-2.69-5.61c.83-.41,1.38-1.29,1.29-2.3-.11-1.13-1.06-2.04-2.19-2.09-1.33-.06-2.43,1-2.43,2.31,0,.91.53,1.7,1.3,2.08l-2.65,5.52c-.12.24-.36.4-.63.41h0c-.23,0-.46-.09-.6-.28l-2.4-3.03c.32-.17.52-.53.44-.93-.06-.34-.33-.61-.67-.68-.56-.12-1.06.31-1.06.85,0,.39.25.71.6.82l-1.11,3.45c-.09.29-.49.33-.64.07l-2.55-4.38c.4-.26.64-.73.55-1.26-.09-.49-.48-.89-.97-.99-.79-.15-1.48.45-1.48,1.21,0,.68.55,1.23,1.23,1.23.06,0,.12,0,.18-.02l1.03,10.52h-.4c-.37,0-.71.27-.74.65-.04.43.29.79.71.79h24.35c.37,0,.71-.27.74-.65.04-.43-.29-.79-.71-.79h-.29l1.03-10.5c.67,0,1.22-.56,1.22-1.23Z"/>
        <path class="cls-5" d="M59.66,80.01c5.59,0,10.12-4.51,10.16-10.08.03-4.08-2.54-7.73-6.27-9.4-1.72-.77-3.36-.94-4.91-.79,1.25-1.9,1.89-4.24,1.6-6.74-.52-4.66-4.3-8.42-8.96-8.93-6.12-.66-11.29,4.11-11.29,10.1,0,2.07.62,4,1.69,5.6-.4-.05-.81-.08-1.22-.08-5.77,0-10.42,4.82-10.15,10.65.23,5.01,4.24,9.19,9.23,9.63,4.14.36,7.81-1.76,9.71-5.04.08-.14.3-.07.27.09-.55,3.19-2.4,8.47-7.92,10.02-1.14.32-2.14.56-3.19.88-.39.12-.31.7.1.7h23.1c.41,0,.49-.58.1-.7-1.05-.32-2.05-.57-3.19-.88-5.52-1.54-7.37-6.83-7.92-10.02-.03-.16.19-.24.27-.09,1.76,3.03,5.03,5.08,8.79,5.08Z"/>
        <g>
          <g>
            <path class="cls-2" d="M52.81,43.74s-3.95,12.96-14.24,15.32c0,0-6.24-20.77,14.24-15.32Z"/>
            <path class="cls-2" d="M38.46,59.8s-3.68-.78-3.41,2.89c.26,3.67-.2,5.18-2.75,5.24,0,0,5.56,3.47,7.04.39,1.48-3.08-2.05-6.9-.88-8.53Z"/>
            <circle class="cls-5" cx="38.46" cy="59.8" r="1.15"/>
          </g>
          <g>
            <path class="cls-2" d="M47.32,43.87s3.95,12.96,14.24,15.32c0,0,6.24-20.77-14.24-15.32Z"/>
            <path class="cls-2" d="M61.66,59.93s3.68-.78,3.41,2.89c-.26,3.67.2,5.18,2.75,5.24,0,0-5.56,3.47-7.04.39-1.48-3.08,2.05-6.9.88-8.53Z"/>
            <circle class="cls-5" cx="61.66" cy="59.93" r="1.15"/>
          </g>
        </g>
        <g>
          <path class="cls-2" d="M42.29,74.67c-.1,0-.2-.04-.28-.12-.15-.15-.15-.4,0-.56l3.32-3.32c.15-.15.4-.15.56,0s.15.4,0,.56l-3.32,3.32c-.08.08-.18.12-.28.12Z"/>
          <path class="cls-2" d="M39.12,74.67c-.1,0-.2-.04-.28-.12-.15-.15-.15-.4,0-.56l3.32-3.32c.15-.15.4-.15.56,0,.15.15.15.4,0,.56l-3.32,3.32c-.08.08-.18.12-.28.12Z"/>
          <path class="cls-2" d="M35.95,74.67c-.1,0-.2-.04-.28-.12-.15-.15-.15-.4,0-.56l3.32-3.32c.15-.15.4-.15.56,0s.15.4,0,.56l-3.32,3.32c-.08.08-.18.12-.28.12Z"/>
          <path class="cls-2" d="M60.85,74.67c-.1,0-.2-.04-.28-.12-.15-.15-.15-.4,0-.56l3.32-3.32c.15-.15.4-.15.56,0,.15.15.15.4,0,.56l-3.32,3.32c-.08.08-.18.12-.28.12Z"/>
          <path class="cls-2" d="M57.68,74.67c-.1,0-.2-.04-.28-.12-.15-.15-.15-.4,0-.56l3.32-3.32c.15-.15.4-.15.56,0,.15.15.15.4,0,.56l-3.32,3.32c-.08.08-.18.12-.28.12Z"/>
          <path class="cls-2" d="M54.51,74.67c-.1,0-.2-.04-.28-.12-.15-.15-.15-.4,0-.56l3.32-3.32c.15-.15.4-.15.56,0,.15.15.15.4,0,.56l-3.32,3.32c-.08.08-.18.12-.28.12Z"/>
        </g>
        <g>
          <g>
            <path class="cls-5" d="M50.3,92.78c0,.29-.23.52-.52.52s-.52-.23-.52-.52.23-.52.52-.52.52.23.52.52Z"/>
            <circle class="cls-5" cx="49.78" cy="95.59" r=".52"/>
            <circle class="cls-5" cx="49.78" cy="98.39" r=".52"/>
          </g>
          <g>
            <path class="cls-5" d="M47.77,88.04l-1.27-2.01-9.9-.28s1.37,7.43-2.29,11.01c0,0,5.51,2.97,9.44,1.4,3.93-1.57,4.02-10.11,4.02-10.11Z"/>
            <path class="cls-2" d="M48.58,88.04c1.24.05,1.67-1.62.57-2.18-4.53-2.29-11.18-5.23-13.53-4.06-3.69,1.85-2.31,6,3.23,6,2.85,0,6.69.12,9.73.24Z"/>
            <path class="cls-2" d="M48.39,86.76s1.14,13.33-6.47,13.33-10.57-1.75-9.09-2.97c1.49-1.22,6.9,1.05,9.96.35,3.06-.7,3.32-7.86,3.41-10.22.09-2.36,2.13-2.47,2.18-.49Z"/>
            <path class="cls-5" d="M52.35,88.04l1.27-2.01,9.9-.28s-1.37,7.43,2.29,11.01c0,0-5.51,2.97-9.44,1.4-3.93-1.57-4.02-10.11-4.02-10.11Z"/>
            <path class="cls-2" d="M51.55,88.04c-1.24.05-1.67-1.62-.57-2.18,4.53-2.29,11.18-5.23,13.53-4.06,3.69,1.85,2.31,6-3.23,6-2.85,0-6.69.12-9.73.24Z"/>
            <path class="cls-2" d="M51.73,86.76s-1.14,13.33,6.47,13.33,10.57-1.75,9.09-2.97c-1.49-1.22-6.9,1.05-9.96.35-3.06-.7-3.32-7.86-3.41-10.22s-2.13-2.47-2.18-.49Z"/>
          </g>
          <path class="cls-5" d="M51.02,90.39c.72,0,1.31-.58,1.31-1.3,0-.53-.33-1-.81-1.21-.22-.1-.43-.12-.63-.1.16-.25.24-.55.21-.87-.07-.6-.56-1.09-1.16-1.15-.79-.09-1.46.53-1.46,1.3,0,.27.08.52.22.72-.05,0-.1-.01-.16-.01-.74,0-1.34.62-1.31,1.37.03.65.55,1.19,1.19,1.24.53.05,1.01-.23,1.25-.65.01-.02.04,0,.04.01-.07.41-.31,1.09-1.02,1.29-.15.04-.28.07-.41.11-.05.02-.04.09.01.09h2.98c.05,0,.06-.07.01-.09-.14-.04-.26-.07-.41-.11-.71-.2-.95-.88-1.02-1.29,0-.02.02-.03.04-.01.23.39.65.66,1.13.66Z"/>
          <path class="cls-2" d="M41.7,94.15c.72,0,1.31-.58,1.31-1.3,0-.53-.33-1-.81-1.21-.22-.1-.43-.12-.63-.1.16-.25.24-.55.21-.87-.07-.6-.56-1.09-1.16-1.15-.79-.09-1.46.53-1.46,1.3,0,.27.08.52.22.72-.05,0-.1-.01-.16-.01-.75,0-1.34.62-1.31,1.37.03.65.55,1.19,1.19,1.24.53.05,1.01-.23,1.25-.65.01-.02.04,0,.04.01-.07.41-.31,1.09-1.02,1.29-.15.04-.28.07-.41.11-.05.02-.04.09.01.09h2.98c.05,0,.06-.07.01-.09-.14-.04-.26-.07-.41-.11-.71-.2-.95-.88-1.02-1.29,0-.02.02-.03.04-.01.23.39.65.66,1.13.66Z"/>
          <path class="cls-2" d="M60.9,94.15c.72,0,1.31-.58,1.31-1.3,0-.53-.33-1-.81-1.21-.22-.1-.43-.12-.63-.1.16-.25.24-.55.21-.87-.07-.6-.56-1.09-1.16-1.15-.79-.09-1.46.53-1.46,1.3,0,.27.08.52.22.72-.05,0-.1-.01-.16-.01-.75,0-1.34.62-1.31,1.37.03.65.55,1.19,1.19,1.24.53.05,1.01-.23,1.25-.65.01-.02.04,0,.04.01-.07.41-.31,1.09-1.02,1.29-.15.04-.28.07-.41.11-.05.02-.04.09.01.09h2.98c.05,0,.06-.07.01-.09-.14-.04-.26-.07-.41-.11-.71-.2-.95-.88-1.02-1.29,0-.02.02-.03.04-.01.23.39.65.66,1.13.66Z"/>
        </g>
      </g>
    </g>
  </g>
</svg>