<?xml version="1.0" encoding="UTF-8"?>
<svg id="Layer_2" data-name="Layer 2" xmlns="http://www.w3.org/2000/svg" viewBox="0 0 99.62 129.35">
  <defs>
    <style>
      .cls-1 {
        fill: #e6e6e6;
      }

      .cls-2 {
        fill: #fff;
      }

      .cls-3 {
        fill: #f2f2f2;
      }

      .cls-4 {
        fill: #1a1a1a;
      }
    </style>
  </defs>
  <g id="Cards">
    <g>
      <rect class="cls-3" width="99.62" height="129.35" rx="16.65" ry="16.65"/>
      <rect class="cls-2" x="4.17" y="4.17" width="91.28" height="121.01" rx="12.48" ry="12.48"/>
      <g>
        <rect class="cls-1" x="19.56" y="18.39" width="60.5" height="92.57" rx="12.48" ry="12.48"/>
        <path class="cls-4" d="M59.37,79.3c5.56,0,10.07-4.49,10.11-10.03.03-4.06-2.53-7.69-6.24-9.35-1.71-.77-3.35-.94-4.89-.78,1.24-1.89,1.88-4.22,1.6-6.71-.52-4.63-4.28-8.38-8.92-8.88-6.09-.66-11.24,4.09-11.24,10.05,0,2.06.62,3.98,1.68,5.57-.4-.05-.8-.08-1.22-.08-5.74,0-10.37,4.79-10.1,10.6.23,4.98,4.21,9.15,9.18,9.58,4.12.36,7.77-1.75,9.66-5.01.08-.14.3-.07.27.09-.55,3.17-2.39,8.43-7.88,9.97-1.13.32-2.13.56-3.17.88-.39.12-.31.7.1.7h22.98c.41,0,.49-.58.1-.7-1.05-.32-2.04-.56-3.17-.88-5.5-1.54-7.33-6.8-7.88-9.97-.03-.16.19-.24.27-.09,1.75,3.02,5,5.05,8.74,5.05Z"/>
      </g>
      <path class="cls-4" d="M18.85,31.48c-4.53,0-9.06-1.55-9.06-5.67,0-2.42,2.28-4.29,4.67-5.23-2.07-1.29-3.62-2.8-3.62-5.11,0-3.62,4.24-6.05,8.94-6.05s8.36,1.96,8.36,5.03c0,2.19-1.05,3.36-3.15,4.67,2.83,1.52,4.59,2.98,4.59,5.43,0,4.88-4.88,6.92-10.72,6.92ZM18.21,22.48c-1.34.7-2.48,1.49-2.48,3.01,0,1.02,1.05,1.87,2.92,1.87,1.7,0,2.69-.76,2.69-2.13s-1.4-2.1-3.13-2.75ZM20.63,13.39c-.91,0-1.72.55-1.72,1.49s.99,1.52,2.37,2.05c.93-.64,1.43-1.08,1.43-2.07,0-.94-.67-1.46-2.07-1.46Z"/>
      <path class="cls-4" d="M80.72,97.65c4.53,0,9.06,1.55,9.06,5.67,0,2.43-2.28,4.29-4.67,5.23,2.07,1.29,3.62,2.8,3.62,5.11,0,3.62-4.24,6.05-8.94,6.05s-8.36-1.96-8.36-5.03c0-2.19,1.05-3.36,3.16-4.67-2.83-1.52-4.59-2.98-4.59-5.43,0-4.88,4.88-6.92,10.72-6.92ZM78.94,115.74c.91,0,1.72-.55,1.72-1.49s-.99-1.52-2.37-2.05c-.94.64-1.43,1.08-1.43,2.07,0,.94.67,1.46,2.07,1.46ZM81.37,106.65c1.34-.7,2.48-1.49,2.48-3.01,0-1.02-1.05-1.87-2.92-1.87-1.69,0-2.69.76-2.69,2.13s1.4,2.1,3.13,2.75Z"/>
      <path class="cls-4" d="M23.16,48.65c2.08,0,3.77-1.68,3.79-3.76.01-1.52-.95-2.88-2.34-3.51-.64-.29-1.25-.35-1.83-.29.47-.71.7-1.58.6-2.52-.2-1.74-1.61-3.14-3.34-3.33-2.28-.25-4.21,1.53-4.21,3.77,0,.77.23,1.49.63,2.09-.15-.02-.3-.03-.46-.03-2.15,0-3.89,1.8-3.79,3.97.09,1.87,1.58,3.43,3.44,3.59,1.54.14,2.91-.66,3.62-1.88.03-.05.11-.03.1.04-.2,1.19-.89,3.16-2.95,3.74-.42.12-.8.21-1.19.33-.15.04-.12.26.04.26h4.31s4.31,0,4.31,0c.15,0,.18-.22.04-.26-.39-.12-.77-.21-1.19-.33-2.06-.58-2.75-2.55-2.95-3.74-.01-.06.07-.09.1-.04.66,1.13,1.88,1.89,3.28,1.89Z"/>
      <path class="cls-4" d="M83.67,80.47c2.08,0,3.77,1.68,3.79,3.76.01,1.52-.95,2.88-2.34,3.51-.64.29-1.25.35-1.83.29.47.71.7,1.58.6,2.52-.2,1.74-1.61,3.14-3.34,3.33-2.28.25-4.21-1.53-4.21-3.77,0-.77.23-1.49.63-2.09-.15.02-.3.03-.46.03-2.15,0-3.89-1.8-3.79-3.97.09-1.87,1.58-3.43,3.44-3.59,1.54-.14,2.91.66,3.62,1.88.03.05.11.03.1-.04-.2-1.19-.89-3.16-2.95-3.74-.42-.12-.8-.21-1.19-.33-.15-.04-.12-.26.04-.26h8.62c.15,0,.18.22.04.26-.39.12-.77.21-1.19.33-2.06.58-2.75,2.55-2.95,3.74-.01.06.07.09.1.04.66-1.13,1.88-1.89,3.28-1.89Z"/>
    </g>
  </g>
</svg>