<?xml version="1.0" encoding="UTF-8"?>
<svg id="Layer_2" data-name="Layer 2" xmlns="http://www.w3.org/2000/svg" viewBox="0 0 99.62 129.35">
  <defs>
    <style>
      .cls-1 {
        fill: #36427a;
      }

      .cls-2 {
        fill: #fff;
      }

      .cls-3 {
        fill: #f2f2f2;
      }
    </style>
  </defs>
  <g id="Cards">
    <g>
      <rect class="cls-3" width="99.62" height="129.35" rx="16.65" ry="16.65"/>
      <rect class="cls-1" x="4.17" y="4.17" width="91.28" height="121.01" rx="12.48" ry="12.48"/>
      <rect class="cls-2" x="11.47" y="11.47" width="76.67" height="106.4" rx="10" ry="10"/>
      <rect class="cls-1" x="13.56" y="13.56" width="72.5" height="102.23" rx="8.35" ry="8.35"/>
      <path class="cls-2" d="M70.88,110.58c0-.43.35-.78.78-.78h0c.43,0,.78.35.78.78h0c0,.43-.35.78-.78.78h0c-.43,0-.78-.35-.78-.78ZM65.66,110.58c0-.43.35-.78.78-.78h0c.43,0,.78.35.78.78h0c0,.43-.35.78-.78.78h0c-.43,0-.78-.35-.78-.78ZM60.44,110.58c0-.43.35-.78.78-.78h0c.43,0,.78.35.78.78h0c0,.43-.35.78-.78.78h0c-.43,0-.78-.35-.78-.78ZM55.23,110.58c0-.43.35-.78.78-.78h0c.43,0,.78.35.78.78h0c0,.43-.35.78-.78.78h0c-.43,0-.78-.35-.78-.78ZM50.01,110.58c0-.43.35-.78.78-.78h0c.43,0,.78.35.78.78h0c0,.43-.35.78-.78.78h0c-.43,0-.78-.35-.78-.78ZM44.8,110.58c0-.43.35-.78.78-.78h0c.43,0,.78.35.78.78h0c0,.43-.35.78-.78.78h0c-.43,0-.78-.35-.78-.78ZM39.58,110.58c0-.43.35-.78.78-.78h0c.43,0,.78.35.78.78h0c0,.43-.35.78-.78.78h0c-.43,0-.78-.35-.78-.78ZM34.37,110.58c0-.43.35-.78.78-.78h0c.43,0,.78.35.78.78h0c0,.43-.35.78-.78.78h0c-.43,0-.78-.35-.78-.78ZM29.15,110.58c0-.43.35-.78.78-.78h0c.43,0,.78.35.78.78h0c0,.43-.35.78-.78.78h0c-.43,0-.78-.35-.78-.78ZM24.28,110.58c0-.43.35-.78.78-.78h0c.43,0,.78.35.78.78h0c0,.43-.35.78-.78.78h0c-.43,0-.78-.35-.78-.78ZM76.09,110.44c-.16-.4.05-.86.45-1.01h0c.4-.16.86.05,1.01.45h0c.16.4-.05.86-.45,1.01h0c-.09.04-.19.05-.28.05h0c-.31,0-.61-.19-.73-.5ZM19.85,109.06c-.29-.32-.27-.81.05-1.11h0c.32-.29.81-.27,1.11.05h0c.29.32.27.81-.05,1.11h0c-.15.14-.34.21-.53.21h0c-.21,0-.42-.09-.58-.26ZM80.13,107.31c-.4-.16-.6-.62-.44-1.02h0c.16-.4.61-.6,1.01-.44h0c.4.16.6.62.44,1.02h0c-.12.31-.42.5-.73.5h0c-.09,0-.19-.02-.28-.05ZM17.99,103.74c0-.43.35-.78.78-.78h0c.43,0,.78.35.78.78h0c0,.43-.35.78-.78.78h0c-.43,0-.78-.35-.78-.78ZM80.06,101.42c0-.43.35-.78.78-.78h0c.43,0,.78.35.78.78h0c0,.43-.35.78-.78.78h0c-.43,0-.78-.35-.78-.78ZM17.99,98.52c0-.43.35-.78.78-.78h0c.43,0,.78.35.78.78h0c0,.43-.35.78-.78.78h0c-.43,0-.78-.35-.78-.78ZM80.06,96.2c0-.43.35-.78.78-.78h0c.43,0,.78.35.78.78h0c0,.43-.35.78-.78.78h0c-.43,0-.78-.35-.78-.78ZM17.99,93.31c0-.43.35-.78.78-.78h0c.43,0,.78.35.78.78h0c0,.43-.35.78-.78.78h0c-.43,0-.78-.35-.78-.78ZM80.06,90.99c0-.43.35-.78.78-.78h0c.43,0,.78.35.78.78h0c0,.43-.35.78-.78.78h0c-.43,0-.78-.35-.78-.78ZM17.99,88.09c0-.43.35-.78.78-.78h0c.43,0,.78.35.78.78h0c0,.43-.35.78-.78.78h0c-.43,0-.78-.35-.78-.78ZM80.06,85.77c0-.43.35-.78.78-.78h0c.43,0,.78.35.78.78h0c0,.43-.35.78-.78.78h0c-.43,0-.78-.35-.78-.78ZM17.99,82.88c0-.43.35-.78.78-.78h0c.43,0,.78.35.78.78h0c0,.43-.35.78-.78.78h0c-.43,0-.78-.35-.78-.78ZM80.06,80.56c0-.43.35-.78.78-.78h0c.43,0,.78.35.78.78h0c0,.43-.35.78-.78.78h0c-.43,0-.78-.35-.78-.78ZM17.99,77.66c0-.43.35-.78.78-.78h0c.43,0,.78.35.78.78h0c0,.43-.35.78-.78.78h0c-.43,0-.78-.35-.78-.78ZM80.06,75.34c0-.43.35-.78.78-.78h0c.43,0,.78.35.78.78h0c0,.43-.35.78-.78.78h0c-.43,0-.78-.35-.78-.78ZM17.99,72.44c0-.43.35-.78.78-.78h0c.43,0,.78.35.78.78h0c0,.43-.35.78-.78.78h0c-.43,0-.78-.35-.78-.78ZM80.06,70.12c0-.43.35-.78.78-.78h0c.43,0,.78.35.78.78h0c0,.43-.35.78-.78.78h0c-.43,0-.78-.35-.78-.78ZM17.99,67.23c0-.43.35-.78.78-.78h0c.43,0,.78.35.78.78h0c0,.43-.35.78-.78.78h0c-.43,0-.78-.35-.78-.78ZM80.06,64.91c0-.43.35-.78.78-.78h0c.43,0,.78.35.78.78h0c0,.43-.35.78-.78.78h0c-.43,0-.78-.35-.78-.78ZM17.99,62.01c0-.43.35-.78.78-.78h0c.43,0,.78.35.78.78h0c0,.43-.35.78-.78.78h0c-.43,0-.78-.35-.78-.78ZM80.06,59.69c0-.43.35-.78.78-.78h0c.43,0,.78.35.78.78h0c0,.43-.35.78-.78.78h0c-.43,0-.78-.35-.78-.78ZM17.99,56.8c0-.43.35-.78.78-.78h0c.43,0,.78.35.78.78h0c0,.43-.35.78-.78.78h0c-.43,0-.78-.35-.78-.78ZM80.06,54.48c0-.43.35-.78.78-.78h0c.43,0,.78.35.78.78h0c0,.43-.35.78-.78.78h0c-.43,0-.78-.35-.78-.78ZM17.99,51.58c0-.43.35-.78.78-.78h0c.43,0,.78.35.78.78h0c0,.43-.35.78-.78.78h0c-.43,0-.78-.35-.78-.78ZM80.06,49.26c0-.43.35-.78.78-.78h0c.43,0,.78.35.78.78h0c0,.43-.35.78-.78.78h0c-.43,0-.78-.35-.78-.78ZM17.99,46.36c0-.43.35-.78.78-.78h0c.43,0,.78.35.78.78h0c0,.43-.35.78-.78.78h0c-.43,0-.78-.35-.78-.78ZM80.06,44.04c0-.43.35-.78.78-.78h0c.43,0,.78.35.78.78h0c0,.43-.35.78-.78.78h0c-.43,0-.78-.35-.78-.78ZM17.99,41.15c0-.43.35-.78.78-.78h0c.43,0,.78.35.78.78h0c0,.43-.35.78-.78.78h0c-.43,0-.78-.35-.78-.78ZM80.06,38.83c0-.43.35-.78.78-.78h0c.43,0,.78.35.78.78h0c0,.43-.35.78-.78.78h0c-.43,0-.78-.35-.78-.78ZM17.99,35.93c0-.43.35-.78.78-.78h0c.43,0,.78.35.78.78h0c0,.43-.35.78-.78.78h0c-.43,0-.78-.35-.78-.78ZM80.06,33.61c0-.43.35-.78.78-.78h0c.43,0,.78.35.78.78h0c0,.43-.35.78-.78.78h0c-.43,0-.78-.35-.78-.78ZM17.99,30.72c0-.43.35-.78.78-.78h0c.43,0,.78.35.78.78h0c0,.43-.35.78-.78.78h0c-.43,0-.78-.35-.78-.78ZM80.06,28.4c0-.43.35-.78.78-.78h0c.43,0,.78.35.78.78h0c0,.43-.35.78-.78.78h0c-.43,0-.78-.35-.78-.78ZM17.99,25.5c0-.43.35-.78.78-.78h0c.43,0,.78.35.78.78h0c0,.43-.35.78-.78.78h0c-.43,0-.78-.35-.78-.78ZM79.82,23.44c-.13-.41.1-.85.52-.98h0c.41-.13.85.1.98.52h0c.13.41-.1.85-.52.98h0c-.08.03-.15.04-.23.04h0c-.33,0-.65-.22-.75-.55ZM19.97,21.3c-.31-.3-.33-.79-.03-1.11h0c.3-.31.79-.32,1.11-.03h0c.31.3.33.79.03,1.11h0c-.16.16-.36.24-.57.24h0c-.19,0-.39-.07-.54-.22ZM76.92,20.09c-.39-.19-.56-.65-.38-1.04h0c.19-.39.65-.55,1.04-.37h0c.39.19.56.65.37,1.04h0c-.13.28-.41.45-.7.45h0c-.11,0-.23-.03-.33-.08ZM71.34,18.78c0-.43.35-.78.78-.78h0c.43,0,.78.35.78.78h0c0,.43-.35.78-.78.78h0c-.43,0-.78-.35-.78-.78ZM66.12,18.78c0-.43.35-.78.78-.78h0c.43,0,.78.35.78.78h0c0,.43-.35.78-.78.78h0c-.43,0-.78-.35-.78-.78ZM60.91,18.78c0-.43.35-.78.78-.78h0c.43,0,.78.35.78.78h0c0,.43-.35.78-.78.78h0c-.43,0-.78-.35-.78-.78ZM55.69,18.78c0-.43.35-.78.78-.78h0c.43,0,.78.35.78.78h0c0,.43-.35.78-.78.78h0c-.43,0-.78-.35-.78-.78ZM50.48,18.78c0-.43.35-.78.78-.78h0c.43,0,.78.35.78.78h0c0,.43-.35.78-.78.78h0c-.43,0-.78-.35-.78-.78ZM45.26,18.78c0-.43.35-.78.78-.78h0c.43,0,.78.35.78.78h0c0,.43-.35.78-.78.78h0c-.43,0-.78-.35-.78-.78ZM40.05,18.78c0-.43.35-.78.78-.78h0c.43,0,.78.35.78.78h0c0,.43-.35.78-.78.78h0c-.43,0-.78-.35-.78-.78ZM34.83,18.78c0-.43.35-.78.78-.78h0c.43,0,.78.35.78.78h0c0,.43-.35.78-.78.78h0c-.43,0-.78-.35-.78-.78ZM29.61,18.78c0-.43.35-.78.78-.78h0c.43,0,.78.35.78.78h0c0,.43-.35.78-.78.78h0c-.43,0-.78-.35-.78-.78ZM24.4,18.78c0-.43.35-.78.78-.78h0c.43,0,.78.35.78.78h0c0,.43-.35.78-.78.78h0c-.43,0-.78-.35-.78-.78Z"/>
      <rect class="cls-2" x="23.99" y="23.99" width="51.64" height="81.37" rx="6.15" ry="6.15"/>
      <rect class="cls-1" x="26.08" y="26.08" width="47.46" height="77.19" rx="4.02" ry="4.02"/>
      <g>
        <path class="cls-2" d="M36.35,28.68h-1.06v-1.06c0-.73-.6-1.32-1.32-1.32s-1.32.6-1.32,1.32v1.06h-1.06c-.73,0-1.32.6-1.32,1.32s.6,1.32,1.32,1.32h1.06v1.06c0,.73.6,1.32,1.32,1.32s1.32-.6,1.32-1.32v-1.06h1.06c.73,0,1.32-.6,1.32-1.32s-.6-1.32-1.32-1.32Z"/>
        <path class="cls-2" d="M52.24,28.68h-1.06v-1.06c0-.73-.6-1.32-1.32-1.32s-1.32.6-1.32,1.32v1.06h-1.06c-.73,0-1.32.6-1.32,1.32s.6,1.32,1.32,1.32h1.06v1.06c0,.73.6,1.32,1.32,1.32s1.32-.6,1.32-1.32v-1.06h1.06c.73,0,1.32-.6,1.32-1.32s-.6-1.32-1.32-1.32Z"/>
        <rect class="cls-2" x="40.59" y="28.68" width="2.65" height="2.65" rx="1.31" ry="1.31"/>
        <rect class="cls-2" x="56.47" y="28.68" width="2.65" height="2.65" rx="1.31" ry="1.31"/>
        <path class="cls-2" d="M68.12,28.68h-1.06v-1.06c0-.73-.6-1.32-1.32-1.32s-1.32.6-1.32,1.32v1.06h-1.06c-.73,0-1.32.6-1.32,1.32s.6,1.32,1.32,1.32h1.06v1.06c0,.73.6,1.32,1.32,1.32s1.32-.6,1.32-1.32v-1.06h1.06c.73,0,1.32-.6,1.32-1.32s-.6-1.32-1.32-1.32Z"/>
        <path class="cls-2" d="M72.36,29.99v.02c0,.72.59,1.31,1.31,1.31h.01v-2.65h-.01c-.72,0-1.31.59-1.31,1.31Z"/>
        <path class="cls-2" d="M26.04,31.33c.72,0,1.31-.59,1.31-1.31v-.02c0-.72-.59-1.31-1.31-1.31h-.02s-.05,0-.08,0v2.63s.05,0,.08,0h.02Z"/>
        <path class="cls-2" d="M44.29,36.62h-1.06v-1.06c0-.73-.6-1.32-1.32-1.32s-1.32.6-1.32,1.32v1.06h-1.06c-.73,0-1.32.6-1.32,1.32s.6,1.32,1.32,1.32h1.06v1.06c0,.73.6,1.32,1.32,1.32s1.32-.6,1.32-1.32v-1.06h1.06c.73,0,1.32-.6,1.32-1.32s-.6-1.32-1.32-1.32Z"/>
        <path class="cls-2" d="M60.18,36.62h-1.06v-1.06c0-.73-.6-1.32-1.32-1.32s-1.32.6-1.32,1.32v1.06h-1.06c-.73,0-1.32.6-1.32,1.32s.6,1.32,1.32,1.32h1.06v1.06c0,.73.6,1.32,1.32,1.32s1.32-.6,1.32-1.32v-1.06h1.06c.73,0,1.32-.6,1.32-1.32s-.6-1.32-1.32-1.32Z"/>
        <rect class="cls-2" x="48.53" y="36.62" width="2.65" height="2.65" rx="1.31" ry="1.31"/>
        <rect class="cls-2" x="64.41" y="36.62" width="2.65" height="2.65" rx="1.31" ry="1.31"/>
        <path class="cls-2" d="M72.36,35.56v1.06h-1.06c-.73,0-1.32.6-1.32,1.32s.6,1.32,1.32,1.32h1.06v1.06c0,.73.6,1.32,1.32,1.32,0,0,0,0,0,0v-7.41s0,0,0,0c-.73,0-1.32.6-1.32,1.32Z"/>
        <path class="cls-2" d="M27.26,40.33v-1.06h1.06c.73,0,1.32-.6,1.32-1.32s-.6-1.32-1.32-1.32h-1.06v-1.06c0-.73-.6-1.32-1.32-1.32v7.41c.73,0,1.32-.6,1.32-1.32Z"/>
        <rect class="cls-2" x="32.64" y="36.62" width="2.65" height="2.65" rx="1.31" ry="1.31"/>
        <path class="cls-2" d="M36.35,44.03h-1.06v-1.06c0-.73-.6-1.32-1.32-1.32s-1.32.6-1.32,1.32v1.06h-1.06c-.73,0-1.32.6-1.32,1.32s.6,1.32,1.32,1.32h1.06v1.06c0,.73.6,1.32,1.32,1.32s1.32-.6,1.32-1.32v-1.06h1.06c.73,0,1.32-.6,1.32-1.32s-.6-1.32-1.32-1.32Z"/>
        <path class="cls-2" d="M52.24,44.03h-1.06v-1.06c0-.73-.6-1.32-1.32-1.32s-1.32.6-1.32,1.32v1.06h-1.06c-.73,0-1.32.6-1.32,1.32s.6,1.32,1.32,1.32h1.06v1.06c0,.73.6,1.32,1.32,1.32s1.32-.6,1.32-1.32v-1.06h1.06c.73,0,1.32-.6,1.32-1.32s-.6-1.32-1.32-1.32Z"/>
        <rect class="cls-2" x="40.59" y="44.03" width="2.65" height="2.65" rx="1.31" ry="1.31"/>
        <rect class="cls-2" x="56.47" y="44.03" width="2.65" height="2.65" rx="1.31" ry="1.31"/>
        <path class="cls-2" d="M68.12,44.03h-1.06v-1.06c0-.73-.6-1.32-1.32-1.32s-1.32.6-1.32,1.32v1.06h-1.06c-.73,0-1.32.6-1.32,1.32s.6,1.32,1.32,1.32h1.06v1.06c0,.73.6,1.32,1.32,1.32s1.32-.6,1.32-1.32v-1.06h1.06c.73,0,1.32-.6,1.32-1.32s-.6-1.32-1.32-1.32Z"/>
        <path class="cls-2" d="M72.36,45.34v.02c0,.72.59,1.31,1.31,1.31h.01v-2.65h-.01c-.72,0-1.31.59-1.31,1.31Z"/>
        <path class="cls-2" d="M26.04,46.68c.72,0,1.31-.59,1.31-1.31v-.02c0-.72-.59-1.31-1.31-1.31h-.02s-.05,0-.08,0v2.63s.05,0,.08,0h.02Z"/>
        <path class="cls-2" d="M44.29,51.97h-1.06v-1.06c0-.73-.6-1.32-1.32-1.32s-1.32.6-1.32,1.32v1.06h-1.06c-.73,0-1.32.6-1.32,1.32s.6,1.32,1.32,1.32h1.06v1.06c0,.73.6,1.32,1.32,1.32s1.32-.6,1.32-1.32v-1.06h1.06c.73,0,1.32-.6,1.32-1.32s-.6-1.32-1.32-1.32Z"/>
        <path class="cls-2" d="M60.18,51.97h-1.06v-1.06c0-.73-.6-1.32-1.32-1.32s-1.32.6-1.32,1.32v1.06h-1.06c-.73,0-1.32.6-1.32,1.32s.6,1.32,1.32,1.32h1.06v1.06c0,.73.6,1.32,1.32,1.32s1.32-.6,1.32-1.32v-1.06h1.06c.73,0,1.32-.6,1.32-1.32s-.6-1.32-1.32-1.32Z"/>
        <rect class="cls-2" x="48.53" y="51.97" width="2.65" height="2.65" rx="1.31" ry="1.31"/>
        <rect class="cls-2" x="64.41" y="51.97" width="2.65" height="2.65" rx="1.31" ry="1.31"/>
        <path class="cls-2" d="M72.36,50.91v1.06h-1.06c-.73,0-1.32.6-1.32,1.32s.6,1.32,1.32,1.32h1.06v1.06c0,.73.6,1.32,1.32,1.32,0,0,0,0,0,0v-7.41s0,0,0,0c-.73,0-1.32.6-1.32,1.32Z"/>
        <path class="cls-2" d="M27.26,55.68v-1.06h1.06c.73,0,1.32-.6,1.32-1.32s-.6-1.32-1.32-1.32h-1.06v-1.06c0-.73-.6-1.32-1.32-1.32v7.41c.73,0,1.32-.6,1.32-1.32Z"/>
        <rect class="cls-2" x="32.64" y="51.97" width="2.65" height="2.65" rx="1.31" ry="1.31"/>
        <path class="cls-2" d="M36.35,59.38h-1.06v-1.06c0-.73-.6-1.32-1.32-1.32s-1.32.6-1.32,1.32v1.06h-1.06c-.73,0-1.32.6-1.32,1.32s.6,1.32,1.32,1.32h1.06v1.06c0,.73.6,1.32,1.32,1.32s1.32-.6,1.32-1.32v-1.06h1.06c.73,0,1.32-.6,1.32-1.32s-.6-1.32-1.32-1.32Z"/>
        <path class="cls-2" d="M52.24,59.38h-1.06v-1.06c0-.73-.6-1.32-1.32-1.32s-1.32.6-1.32,1.32v1.06h-1.06c-.73,0-1.32.6-1.32,1.32s.6,1.32,1.32,1.32h1.06v1.06c0,.73.6,1.32,1.32,1.32s1.32-.6,1.32-1.32v-1.06h1.06c.73,0,1.32-.6,1.32-1.32s-.6-1.32-1.32-1.32Z"/>
        <rect class="cls-2" x="40.59" y="59.38" width="2.65" height="2.65" rx="1.31" ry="1.31"/>
        <rect class="cls-2" x="56.47" y="59.38" width="2.65" height="2.65" rx="1.31" ry="1.31"/>
        <path class="cls-2" d="M68.12,59.38h-1.06v-1.06c0-.73-.6-1.32-1.32-1.32s-1.32.6-1.32,1.32v1.06h-1.06c-.73,0-1.32.6-1.32,1.32s.6,1.32,1.32,1.32h1.06v1.06c0,.73.6,1.32,1.32,1.32s1.32-.6,1.32-1.32v-1.06h1.06c.73,0,1.32-.6,1.32-1.32s-.6-1.32-1.32-1.32Z"/>
        <path class="cls-2" d="M72.36,60.7v.02c0,.72.59,1.31,1.31,1.31h.01v-2.65h-.01c-.72,0-1.31.59-1.31,1.31Z"/>
        <path class="cls-2" d="M26.04,62.03c.72,0,1.31-.59,1.31-1.31v-.02c0-.72-.59-1.31-1.31-1.31h-.02s-.05,0-.08,0v2.63s.05,0,.08,0h.02Z"/>
        <path class="cls-2" d="M44.29,67.32h-1.06v-1.06c0-.73-.6-1.32-1.32-1.32s-1.32.6-1.32,1.32v1.06h-1.06c-.73,0-1.32.6-1.32,1.32s.6,1.32,1.32,1.32h1.06v1.06c0,.73.6,1.32,1.32,1.32s1.32-.6,1.32-1.32v-1.06h1.06c.73,0,1.32-.6,1.32-1.32s-.6-1.32-1.32-1.32Z"/>
        <path class="cls-2" d="M60.18,67.32h-1.06v-1.06c0-.73-.6-1.32-1.32-1.32s-1.32.6-1.32,1.32v1.06h-1.06c-.73,0-1.32.6-1.32,1.32s.6,1.32,1.32,1.32h1.06v1.06c0,.73.6,1.32,1.32,1.32s1.32-.6,1.32-1.32v-1.06h1.06c.73,0,1.32-.6,1.32-1.32s-.6-1.32-1.32-1.32Z"/>
        <rect class="cls-2" x="48.53" y="67.32" width="2.65" height="2.65" rx="1.31" ry="1.31"/>
        <rect class="cls-2" x="64.41" y="67.32" width="2.65" height="2.65" rx="1.31" ry="1.31"/>
        <path class="cls-2" d="M72.36,66.26v1.06h-1.06c-.73,0-1.32.6-1.32,1.32s.6,1.32,1.32,1.32h1.06v1.06c0,.73.6,1.32,1.32,1.32,0,0,0,0,0,0v-7.41s0,0,0,0c-.73,0-1.32.6-1.32,1.32Z"/>
        <path class="cls-2" d="M27.26,71.03v-1.06h1.06c.73,0,1.32-.6,1.32-1.32s-.6-1.32-1.32-1.32h-1.06v-1.06c0-.73-.6-1.32-1.32-1.32v7.41c.73,0,1.32-.6,1.32-1.32Z"/>
        <rect class="cls-2" x="32.64" y="67.32" width="2.65" height="2.65" rx="1.31" ry="1.31"/>
        <path class="cls-2" d="M36.35,74.74h-1.06v-1.06c0-.73-.6-1.32-1.32-1.32s-1.32.6-1.32,1.32v1.06h-1.06c-.73,0-1.32.6-1.32,1.32s.6,1.32,1.32,1.32h1.06v1.06c0,.73.6,1.32,1.32,1.32s1.32-.6,1.32-1.32v-1.06h1.06c.73,0,1.32-.6,1.32-1.32s-.6-1.32-1.32-1.32Z"/>
        <path class="cls-2" d="M52.24,74.74h-1.06v-1.06c0-.73-.6-1.32-1.32-1.32s-1.32.6-1.32,1.32v1.06h-1.06c-.73,0-1.32.6-1.32,1.32s.6,1.32,1.32,1.32h1.06v1.06c0,.73.6,1.32,1.32,1.32s1.32-.6,1.32-1.32v-1.06h1.06c.73,0,1.32-.6,1.32-1.32s-.6-1.32-1.32-1.32Z"/>
        <rect class="cls-2" x="40.59" y="74.74" width="2.65" height="2.65" rx="1.31" ry="1.31"/>
        <rect class="cls-2" x="56.47" y="74.74" width="2.65" height="2.65" rx="1.31" ry="1.31"/>
        <path class="cls-2" d="M68.12,74.74h-1.06v-1.06c0-.73-.6-1.32-1.32-1.32s-1.32.6-1.32,1.32v1.06h-1.06c-.73,0-1.32.6-1.32,1.32s.6,1.32,1.32,1.32h1.06v1.06c0,.73.6,1.32,1.32,1.32s1.32-.6,1.32-1.32v-1.06h1.06c.73,0,1.32-.6,1.32-1.32s-.6-1.32-1.32-1.32Z"/>
        <path class="cls-2" d="M72.36,76.05v.02c0,.72.59,1.31,1.31,1.31h.01v-2.65h-.01c-.72,0-1.31.59-1.31,1.31Z"/>
        <path class="cls-2" d="M26.04,77.38c.72,0,1.31-.59,1.31-1.31v-.02c0-.72-.59-1.31-1.31-1.31h-.02s-.05,0-.08,0v2.63s.05,0,.08,0h.02Z"/>
        <path class="cls-2" d="M44.29,82.67h-1.06v-1.06c0-.73-.6-1.32-1.32-1.32s-1.32.6-1.32,1.32v1.06h-1.06c-.73,0-1.32.6-1.32,1.32s.6,1.32,1.32,1.32h1.06v1.06c0,.73.6,1.32,1.32,1.32s1.32-.6,1.32-1.32v-1.06h1.06c.73,0,1.32-.6,1.32-1.32s-.6-1.32-1.32-1.32Z"/>
        <path class="cls-2" d="M60.18,82.67h-1.06v-1.06c0-.73-.6-1.32-1.32-1.32s-1.32.6-1.32,1.32v1.06h-1.06c-.73,0-1.32.6-1.32,1.32s.6,1.32,1.32,1.32h1.06v1.06c0,.73.6,1.32,1.32,1.32s1.32-.6,1.32-1.32v-1.06h1.06c.73,0,1.32-.6,1.32-1.32s-.6-1.32-1.32-1.32Z"/>
        <rect class="cls-2" x="48.53" y="82.67" width="2.65" height="2.65" rx="1.31" ry="1.31"/>
        <rect class="cls-2" x="64.41" y="82.67" width="2.65" height="2.65" rx="1.31" ry="1.31"/>
        <path class="cls-2" d="M72.36,81.62v1.06h-1.06c-.73,0-1.32.6-1.32,1.32s.6,1.32,1.32,1.32h1.06v1.06c0,.73.6,1.32,1.32,1.32,0,0,0,0,0,0v-7.41s0,0,0,0c-.73,0-1.32.6-1.32,1.32Z"/>
        <path class="cls-2" d="M27.26,86.38v-1.06h1.06c.73,0,1.32-.6,1.32-1.32s-.6-1.32-1.32-1.32h-1.06v-1.06c0-.73-.6-1.32-1.32-1.32v7.41c.73,0,1.32-.6,1.32-1.32Z"/>
        <rect class="cls-2" x="32.64" y="82.67" width="2.65" height="2.65" rx="1.31" ry="1.31"/>
        <path class="cls-2" d="M36.35,90.09h-1.06v-1.06c0-.73-.6-1.32-1.32-1.32s-1.32.6-1.32,1.32v1.06h-1.06c-.73,0-1.32.6-1.32,1.32s.6,1.32,1.32,1.32h1.06v1.06c0,.73.6,1.32,1.32,1.32s1.32-.6,1.32-1.32v-1.06h1.06c.73,0,1.32-.6,1.32-1.32s-.6-1.32-1.32-1.32Z"/>
        <path class="cls-2" d="M52.24,90.09h-1.06v-1.06c0-.73-.6-1.32-1.32-1.32s-1.32.6-1.32,1.32v1.06h-1.06c-.73,0-1.32.6-1.32,1.32s.6,1.32,1.32,1.32h1.06v1.06c0,.73.6,1.32,1.32,1.32s1.32-.6,1.32-1.32v-1.06h1.06c.73,0,1.32-.6,1.32-1.32s-.6-1.32-1.32-1.32Z"/>
        <rect class="cls-2" x="40.59" y="90.09" width="2.65" height="2.65" rx="1.31" ry="1.31"/>
        <rect class="cls-2" x="56.47" y="90.09" width="2.65" height="2.65" rx="1.31" ry="1.31"/>
        <path class="cls-2" d="M68.12,90.09h-1.06v-1.06c0-.73-.6-1.32-1.32-1.32s-1.32.6-1.32,1.32v1.06h-1.06c-.73,0-1.32.6-1.32,1.32s.6,1.32,1.32,1.32h1.06v1.06c0,.73.6,1.32,1.32,1.32s1.32-.6,1.32-1.32v-1.06h1.06c.73,0,1.32-.6,1.32-1.32s-.6-1.32-1.32-1.32Z"/>
        <path class="cls-2" d="M72.36,91.4v.02c0,.72.59,1.31,1.31,1.31h.01v-2.65h-.01c-.72,0-1.31.59-1.31,1.31Z"/>
        <path class="cls-2" d="M26.04,92.74c.72,0,1.31-.59,1.31-1.31v-.02c0-.72-.59-1.31-1.31-1.31h-.02s-.05,0-.08,0v2.63s.05,0,.08,0h.02Z"/>
        <path class="cls-2" d="M44.29,98.03h-1.06v-1.06c0-.73-.6-1.32-1.32-1.32s-1.32.6-1.32,1.32v1.06h-1.06c-.73,0-1.32.6-1.32,1.32s.6,1.32,1.32,1.32h1.06v1.06c0,.73.6,1.32,1.32,1.32s1.32-.6,1.32-1.32v-1.06h1.06c.73,0,1.32-.6,1.32-1.32s-.6-1.32-1.32-1.32Z"/>
        <path class="cls-2" d="M60.18,98.03h-1.06v-1.06c0-.73-.6-1.32-1.32-1.32s-1.32.6-1.32,1.32v1.06h-1.06c-.73,0-1.32.6-1.32,1.32s.6,1.32,1.32,1.32h1.06v1.06c0,.73.6,1.32,1.32,1.32s1.32-.6,1.32-1.32v-1.06h1.06c.73,0,1.32-.6,1.32-1.32s-.6-1.32-1.32-1.32Z"/>
        <rect class="cls-2" x="48.53" y="98.03" width="2.65" height="2.65" rx="1.31" ry="1.31"/>
        <rect class="cls-2" x="64.41" y="98.03" width="2.65" height="2.65" rx="1.31" ry="1.31"/>
        <path class="cls-2" d="M72.36,96.97v1.06h-1.06c-.73,0-1.32.6-1.32,1.32s.6,1.32,1.32,1.32h1.06v1.06c0,.73.6,1.32,1.32,1.32,0,0,0,0,0,0v-7.41s0,0,0,0c-.73,0-1.32.6-1.32,1.32Z"/>
        <path class="cls-2" d="M27.26,101.73v-1.06h1.06c.73,0,1.32-.6,1.32-1.32s-.6-1.32-1.32-1.32h-1.06v-1.06c0-.73-.6-1.32-1.32-1.32v7.41c.73,0,1.32-.6,1.32-1.32Z"/>
        <rect class="cls-2" x="32.64" y="98.03" width="2.65" height="2.65" rx="1.31" ry="1.31"/>
      </g>
    </g>
  </g>
</svg>