<?xml version="1.0" encoding="UTF-8"?>
<svg id="Layer_2" data-name="Layer 2" xmlns="http://www.w3.org/2000/svg" viewBox="0 0 100.12 130">
  <defs>
    <style>
      .cls-1 {
        fill: #db2626;
      }

      .cls-2 {
        fill: #fff;
      }

      .cls-3 {
        fill: #f2f2f2;
      }

      .cls-4 {
        fill: #ffe3e3;
      }
    </style>
  </defs>
  <g id="Cards">
    <g>
      <rect class="cls-3" width="100.12" height="130" rx="16.74" ry="16.74"/>
      <rect class="cls-2" x="4.19" y="4.19" width="91.73" height="121.61" rx="12.54" ry="12.54"/>
      <g>
        <rect class="cls-4" x="19.66" y="18.48" width="60.81" height="93.04" rx="12.54" ry="12.54"/>
        <path class="cls-1" d="M52.67,50.19l-1.66-2.74c-.45-.74-1.43-.74-1.88,0l-1.66,2.74c-2.78,4.58-6.26,8.58-10.29,11.82l-2.44,1.96c-.63.51-.63,1.55,0,2.06l2.44,1.96c4.02,3.24,7.5,7.24,10.29,11.82l1.66,2.74c.45.74,1.43.74,1.88,0l1.66-2.74c2.78-4.58,6.26-8.58,10.29-11.82l2.44-1.96c.63-.51.63-1.55,0-2.06l-2.44-1.96c-4.02-3.24-7.5-7.24-10.29-11.82Z"/>
      </g>
      <g>
        <path class="cls-1" d="M81.44,81.77l-.62-1.03c-.17-.28-.54-.28-.71,0l-.62,1.03c-1.04,1.72-2.35,3.22-3.86,4.43l-.91.74c-.24.19-.24.58,0,.77l.91.74c1.51,1.21,2.81,2.71,3.86,4.43l.62,1.03c.17.28.54.28.71,0l.62-1.03c1.04-1.72,2.35-3.22,3.86-4.43l.91-.74c.24-.19.24-.58,0-.77l-.91-.74c-1.51-1.21-2.81-2.71-3.86-4.43Z"/>
        <path class="cls-1" d="M20.63,38.53l-.62-1.03c-.17-.28-.54-.28-.71,0l-.62,1.03c-1.04,1.72-2.35,3.22-3.86,4.43l-.91.74c-.24.19-.24.58,0,.77l.91.74c1.51,1.21,2.81,2.71,3.86,4.43l.62,1.03c.17.28.54.28.71,0l.62-1.03c1.04-1.72,2.35-3.22,3.86-4.43l.91-.74c.24-.19.24-.58,0-.77l-.91-.74c-1.51-1.21-2.81-2.71-3.86-4.43Z"/>
        <g>
          <path class="cls-1" d="M15.44,11.43c-.15,4.08-.58,13.59-.73,19.17l-5.99.23-.15-13.31-3.02,1.33-.28-3.27,9.99-4.3.18.15Z"/>
          <path class="cls-1" d="M26.96,30.73c-5.69,0-9.21-3.88-9.21-9.34,0-6.29,4.13-9.66,9.01-9.66s8.76,3.9,8.76,9.81c0,5.56-4.18,9.18-8.56,9.18ZM26.66,16.33c-1.71,0-2.47,2.21-2.47,4.76,0,2.74.96,5.36,2.77,5.36,1.06,0,2.16-1.43,2.16-4.23,0-3.62-1.01-5.89-2.47-5.89Z"/>
        </g>
        <g>
          <path class="cls-1" d="M85.12,119.74c.15-4.08.58-13.59.73-19.17l5.99-.23.15,13.31,3.02-1.33.28,3.27-9.99,4.3-.18-.15Z"/>
          <path class="cls-1" d="M73.59,100.44c5.69,0,9.21,3.88,9.21,9.34,0,6.29-4.13,9.66-9.01,9.66s-8.76-3.9-8.76-9.81c0-5.56,4.18-9.18,8.55-9.18ZM73.89,114.84c1.71,0,2.47-2.21,2.47-4.76,0-2.74-.96-5.36-2.77-5.36-1.06,0-2.16,1.43-2.16,4.23,0,3.62,1.01,5.89,2.47,5.89Z"/>
        </g>
      </g>
    </g>
  </g>
</svg>