<?xml version="1.0" encoding="UTF-8"?>
<svg id="Layer_2" data-name="Layer 2" xmlns="http://www.w3.org/2000/svg" viewBox="0 0 99.62 129.35">
  <defs>
    <style>
      .cls-1 {
        fill: #db2626;
      }

      .cls-2 {
        fill: #fff;
      }

      .cls-3 {
        fill: #f2f2f2;
      }

      .cls-4 {
        fill: #edb53a;
      }

      .cls-5 {
        fill: #ffe3e3;
      }
    </style>
  </defs>
  <g id="Cards">
    <g>
      <rect class="cls-3" width="99.62" height="129.35" rx="16.65" ry="16.65"/>
      <rect class="cls-2" x="4.17" y="4.17" width="91.28" height="121.01" rx="12.48" ry="12.48"/>
      <g>
        <rect class="cls-5" x="19.56" y="18.39" width="60.5" height="92.57" rx="12.48" ry="12.48"/>
        <g>
          <path class="cls-4" d="M62.55,34.05c-.55.06-1,.5-1.08,1.05-.07.56.24,1.06.7,1.28l-11.35-1.9c.83-.41,1.37-1.29,1.28-2.29-.11-1.13-1.05-2.03-2.18-2.08-1.32-.06-2.42.99-2.42,2.3,0,.91.53,1.69,1.29,2.07l-11.2,1.82c.4-.26.64-.73.54-1.25-.09-.49-.47-.89-.96-.98-.79-.15-1.47.44-1.47,1.2,0,.68.55,1.23,1.23,1.23.06,0,.12,0,.18-.02l1.02,10.46h-.4c-.37,0-.71.27-.74.64-.04.43.29.78.71.78h24.23c.37,0,.71-.27.74-.64.04-.43-.29-.78-.71-.78h-.29l1.02-10.45c.67,0,1.21-.55,1.21-1.23,0-.72-.63-1.3-1.37-1.22Z"/>
          <g>
            <polygon class="cls-4" points="50.34 79.14 41.99 80.81 49.81 98.31 57.64 81.36 50.34 79.14"/>
            <path class="cls-1" d="M35.95,84.05s3.02,10.87,0,12.83l13.86,1.43-7.82-17.5-6.04,3.24Z"/>
            <path class="cls-2" d="M43.93,82.3s-1.23-4.14-7.98,0c-6.75,4.14,9.94,5.12,7.98,0Z"/>
            <path class="cls-2" d="M49.81,98.31s-11.15-3.91-13.86-2.22c-2.71,1.7,1.33,3.69,5.24,3.02,3.91-.67,8.62-.8,8.62-.8Z"/>
            <path class="cls-1" d="M64.16,84.05s-3.13,10.87,0,12.83l-14.35,1.43,7.82-16.95,6.53,2.69Z"/>
            <path class="cls-2" d="M55.69,82.3s1.23-4.14,7.98,0c6.75,4.14-9.94,5.12-7.98,0Z"/>
            <path class="cls-2" d="M49.81,98.31s11.15-3.91,13.86-2.22c2.71,1.7-1.33,3.69-5.24,3.02-3.91-.67-8.62-.8-8.62-.8Z"/>
          </g>
          <g>
            <g>
              <circle class="cls-1" cx="49.81" cy="89.69" r=".52"/>
              <circle class="cls-1" cx="49.81" cy="92.48" r=".52"/>
              <path class="cls-1" d="M50.33,95.28c0,.29-.23.52-.52.52s-.52-.23-.52-.52.23-.52.52-.52.52.23.52.52Z"/>
            </g>
            <g>
              <path class="cls-1" d="M50.19,83.3l-.24-.4c-.07-.11-.21-.11-.28,0l-.24.4c-.41.67-.92,1.26-1.5,1.73l-.36.29c-.09.07-.09.23,0,.3l.36.29c.59.47,1.1,1.06,1.5,1.73l.24.4c.07.11.21.11.28,0l.24-.4c.41-.67.92-1.26,1.5-1.73l.36-.29c.09-.07.09-.23,0-.3l-.36-.29c-.59-.47-1.1-1.06-1.5-1.73Z"/>
              <path class="cls-2" d="M41.22,88.04l-.24-.4c-.07-.11-.21-.11-.28,0l-.24.4c-.41.67-.92,1.26-1.5,1.73l-.36.29c-.09.07-.09.23,0,.3l.36.29c.59.47,1.1,1.06,1.5,1.73l.24.4c.07.11.21.11.28,0l.24-.4c.41-.67.92-1.26,1.5-1.73l.36-.29c.09-.07.09-.23,0-.3l-.36-.29c-.59-.47-1.1-1.06-1.5-1.73Z"/>
              <path class="cls-2" d="M59.17,88.04l-.24-.4c-.07-.11-.21-.11-.28,0l-.24.4c-.41.67-.92,1.26-1.5,1.73l-.36.29c-.09.07-.09.23,0,.3l.36.29c.59.47,1.1,1.06,1.5,1.73l.24.4c.07.11.21.11.28,0l.24-.4c.41-.67.92-1.26,1.5-1.73l.36-.29c.09-.07.09-.23,0-.3l-.36-.29c-.59-.47-1.1-1.06-1.5-1.73Z"/>
            </g>
          </g>
          <path class="cls-1" d="M52.4,48.83l-1.66-2.72c-.45-.74-1.43-.74-1.88,0l-1.66,2.72c-2.77,4.56-6.23,8.54-10.24,11.76l-2.42,1.95c-.63.5-.63,1.54,0,2.05l2.42,1.95c4,3.22,7.47,7.21,10.24,11.76l1.66,2.72c.45.74,1.43.74,1.88,0l1.66-2.72c2.77-4.56,6.23-8.54,10.24-11.76l2.43-1.95c.63-.5.63-1.54,0-2.05l-2.43-1.95c-4-3.22-7.47-7.2-10.24-11.76Z"/>
        </g>
      </g>
      <g>
        <path class="cls-1" d="M81.04,81.36l-.62-1.02c-.17-.28-.53-.28-.7,0l-.62,1.02c-1.04,1.71-2.34,3.2-3.84,4.41l-.91.73c-.23.19-.23.58,0,.77l.91.73c1.5,1.21,2.8,2.7,3.84,4.41l.62,1.02c.17.28.53.28.7,0l.62-1.02c1.04-1.71,2.34-3.2,3.84-4.41l.91-.73c.23-.19.23-.58,0-.77l-.91-.73c-1.5-1.21-2.8-2.7-3.84-4.41Z"/>
        <path class="cls-1" d="M20.53,38.34l-.62-1.02c-.17-.28-.53-.28-.7,0l-.62,1.02c-1.04,1.71-2.34,3.2-3.84,4.41l-.91.73c-.23.19-.23.58,0,.77l.91.73c1.5,1.21,2.8,2.7,3.84,4.41l.62,1.02c.17.28.53.28.7,0l.62-1.02c1.04-1.71,2.34-3.2,3.84-4.41l.91-.73c.23-.19.23-.58,0-.77l-.91-.73c-1.5-1.21-2.8-2.7-3.84-4.41Z"/>
        <path class="cls-1" d="M25.95,30.07c-1.55,1.34-5.32,2.51-7.51,2.51-2.72,0-4.97-.35-6.81-.88l-.2-4.56c1.4.38,3.65.7,5.02.7.53,0,1.05,0,1.49-.12l-.32-17.18c1.29,0,8.62-.61,8.62-.61l-.29,20.13Z"/>
        <path class="cls-1" d="M73.59,100.45c1.55-1.34,5.32-2.51,7.51-2.51,2.72,0,4.97.35,6.81.88l.2,4.56c-1.4-.38-3.65-.7-5.03-.7-.53,0-1.05,0-1.49.12l.32,17.18c-1.29,0-8.62.61-8.62.61l.29-20.13Z"/>
      </g>
    </g>
  </g>
</svg>