<?xml version="1.0" encoding="UTF-8"?>
<svg id="Layer_2" data-name="Layer 2" xmlns="http://www.w3.org/2000/svg" viewBox="0 0 99.62 129.35">
  <defs>
    <style>
      .cls-1 {
        fill: #db2626;
      }

      .cls-2 {
        fill: #fff;
      }

      .cls-3 {
        fill: #f2f2f2;
      }

      .cls-4 {
        fill: #ffe3e3;
      }
    </style>
  </defs>
  <g id="Cards">
    <g>
      <rect class="cls-3" width="99.62" height="129.35" rx="16.65" ry="16.65"/>
      <rect class="cls-2" x="4.17" y="4.17" width="91.28" height="121.01" rx="12.48" ry="12.48"/>
      <g>
        <rect class="cls-4" x="19.56" y="18.39" width="60.5" height="92.57" rx="12.48" ry="12.48"/>
        <path class="cls-1" d="M52.4,49.94l-1.66-2.72c-.45-.74-1.43-.74-1.88,0l-1.66,2.72c-2.77,4.56-6.23,8.54-10.24,11.76l-2.42,1.95c-.63.5-.63,1.54,0,2.05l2.42,1.95c4,3.22,7.47,7.2,10.24,11.76l1.66,2.72c.45.74,1.43.74,1.88,0l1.66-2.72c2.77-4.56,6.23-8.54,10.24-11.76l2.43-1.95c.63-.5.63-1.54,0-2.05l-2.43-1.95c-4-3.22-7.47-7.2-10.24-11.76Z"/>
      </g>
      <g>
        <path class="cls-1" d="M81.04,81.36l-.62-1.02c-.17-.28-.53-.28-.7,0l-.62,1.02c-1.04,1.71-2.34,3.2-3.84,4.41l-.91.73c-.23.19-.23.58,0,.77l.91.73c1.5,1.21,2.8,2.7,3.84,4.41l.62,1.02c.17.28.53.28.7,0l.62-1.02c1.04-1.71,2.34-3.2,3.84-4.41l.91-.73c.23-.19.23-.58,0-.77l-.91-.73c-1.5-1.21-2.8-2.7-3.84-4.41Z"/>
        <path class="cls-1" d="M20.53,38.34l-.62-1.02c-.17-.28-.53-.28-.7,0l-.62,1.02c-1.04,1.71-2.34,3.2-3.84,4.41l-.91.73c-.23.19-.23.58,0,.77l.91.73c1.5,1.21,2.8,2.7,3.84,4.41l.62,1.02c.17.28.53.28.7,0l.62-1.02c1.04-1.71,2.34-3.2,3.84-4.41l.91-.73c.23-.19.23-.58,0-.77l-.91-.73c-1.5-1.21-2.8-2.7-3.84-4.41Z"/>
        <path class="cls-1" d="M18.83,32.17c-4.53,0-9.06-1.55-9.06-5.67,0-2.43,2.28-4.29,4.67-5.23-2.07-1.29-3.62-2.81-3.62-5.11,0-3.62,4.24-6.05,8.94-6.05s8.36,1.96,8.36,5.03c0,2.19-1.05,3.36-3.16,4.67,2.83,1.52,4.59,2.98,4.59,5.43,0,4.88-4.88,6.92-10.72,6.92ZM18.19,23.17c-1.34.7-2.48,1.49-2.48,3.01,0,1.02,1.05,1.87,2.92,1.87,1.69,0,2.69-.76,2.69-2.13s-1.4-2.1-3.13-2.75ZM20.61,14.09c-.91,0-1.72.56-1.72,1.49s.99,1.52,2.37,2.05c.93-.64,1.43-1.08,1.43-2.07,0-.93-.67-1.46-2.07-1.46Z"/>
        <path class="cls-1" d="M80.7,98.35c4.53,0,9.06,1.55,9.06,5.67,0,2.43-2.28,4.29-4.67,5.23,2.07,1.29,3.62,2.8,3.62,5.11,0,3.62-4.24,6.05-8.94,6.05s-8.36-1.96-8.36-5.03c0-2.19,1.05-3.36,3.16-4.67-2.83-1.52-4.59-2.98-4.59-5.43,0-4.88,4.88-6.92,10.72-6.92ZM78.92,116.43c.91,0,1.72-.55,1.72-1.49s-.99-1.52-2.37-2.05c-.94.64-1.43,1.08-1.43,2.07,0,.94.67,1.46,2.07,1.46ZM81.35,107.35c1.34-.7,2.48-1.49,2.48-3.01,0-1.02-1.05-1.87-2.92-1.87-1.69,0-2.69.76-2.69,2.13s1.4,2.1,3.13,2.75Z"/>
      </g>
    </g>
  </g>
</svg>