<svg preserveAspectRatio="xMidYMax meet" width="100%" height="100%" overflow="visible" style="display: block;" viewBox="0 0 1920 800" fill="none" xmlns="http://www.w3.org/2000/svg">
<g id="Container">
<g id="mountain">
<g id="Vector">
<path d="M1040.92 524.422C1040.92 524.422 1039.86 524.057 1038.02 523.382C1044.54 542.16 1042.31 556.576 1043.29 565.652C1044.82 579.779 1052.88 592.991 1055.07 607.062C1055.52 609.885 1055.72 612.688 1056 615.535L1282.17 630.883C1263.45 613.323 1265.62 605.48 1258.73 592.252C1253.78 582.827 1245.43 574.828 1239.08 565.953C1232.71 557.082 1228.28 546.425 1232.25 536.662C1234.86 530.089 1241.02 524.627 1243.31 518.001C1245.79 510.801 1243.65 502.573 1248.68 496.256C1274.27 500.914 1299.25 507.609 1323.15 516.178C1326.37 510.749 1321.18 504.778 1317.19 499.702C1308.52 488.594 1304.77 475.551 1301.2 462.777C1298.65 453.806 1296.19 444.128 1300.63 435.599C1306.74 436.498 1312.8 437.43 1318.91 438.365C1310.15 426.961 1303.9 414.363 1300.44 401.304C1299.58 398.096 1299.44 394.453 1299.04 390.887L1160.56 482.94C1157.75 486.289 1154.35 489.433 1151.06 492.393C1141.15 501.232 1131.19 510.102 1121.28 518.941C1123.06 512.504 1124.6 505.986 1125.9 499.453C1127.02 493.686 1127.95 487.871 1128.71 482.081C1129.04 479.635 1129.29 477.153 1129.54 474.704L1040.93 524.43L1040.92 524.422Z" fill="var(--fill-0, #D78C43)"/>
<path d="M890.385 604.291L1025.81 613.483C1023.29 609.19 1021.03 604.813 1019.39 600.255C1018.53 597.826 1017.8 595.312 1016.44 593.011C1014.66 589.999 1011.85 587.473 1009.13 584.919C995.892 572.563 984.388 559.054 974.868 544.678C973.824 543.112 973.167 540.698 975.21 540.024C975.894 539.779 976.7 539.867 977.464 539.983C987.829 541.594 997.198 547.131 1007.74 546.485C1006.12 546.376 997.64 529.406 996.553 527.515C992.836 521.194 989.123 514.837 985.452 508.484C984.772 507.299 983.862 506.006 983.029 504.717C973.114 508.416 849.842 559.946 840.338 563.773L890.381 604.291H890.385Z" fill="var(--fill-0, #D78C43)"/>
<path d="M1569.43 619.659C1563.96 629.667 1567.07 640.296 1568.77 650.693C1570.46 661.05 1570.25 672.189 1559.46 680.871C1556.06 683.558 1551.92 685.895 1547.27 687.999H1391.38C1396.48 663.427 1404.61 608.721 1408.3 599.103C1409.48 596.143 1410.59 593.184 1412.51 590.341C1413.47 588.899 1414.66 587.497 1415.77 586.096C1416.88 584.654 1417.98 583.177 1418.94 581.695L1583.61 491.249C1584.79 490.602 1586.53 490.534 1587.83 491.08C1582.29 500.894 1578.15 510.938 1575.34 521.061C1586.06 519.973 1596.7 518.724 1607.19 517.246C1609.18 525.543 1602.75 533.719 1596.4 541.429C1582.14 558.64 1566.77 576.318 1540.25 588.819C1559.02 588.742 1577.86 588.662 1596.7 588.546C1591.23 599.645 1575.42 608.676 1569.43 619.659Z" fill="var(--fill-0, #D78C43)"/>
<path d="M542.868 613.624C529.498 623.747 512.724 632.666 501.792 643.569C486.57 658.853 488.782 668.467 451.258 687.999H0V554.633L96.119 506.934C97.9661 531.659 100.477 556.348 103.803 580.996C103.803 577.257 112.965 570.599 116.214 567.447C131.086 553.472 147.94 541.963 159.802 528.743L469.432 397.59L471.648 398.758C470.17 403.003 469.137 407.364 466.917 411.139C457.905 426.519 443.942 441.124 425.691 454.087C436.919 453.465 448.078 452.842 459.306 452.256C465.512 462.845 459.011 474.254 452.509 484.807C443.347 499.838 433.816 515.178 415.791 527.796C407.516 533.558 396.879 540.297 401.533 547.071C446.527 538.739 493.071 532.739 540.28 529.237C548.037 537.221 542.423 546.915 545.38 555.753C548.114 563.889 558.086 570.941 561.412 579.04C566.508 591.072 556.239 603.492 542.868 613.616V613.624Z" fill="var(--fill-0, #D78C43)"/>
<path d="M1024.64 609.612C1004.39 626.085 980.755 641.348 954.232 655.094C948.764 657.937 943.15 660.74 939.31 664.206C933.373 669.523 933.907 673.639 918.033 687.995H831.191C832.297 684.606 853.728 675.583 855.133 672.233C862.076 655.528 890.845 646.019 896.605 629.197C898.452 623.784 899.044 618.294 900.227 612.805C902.592 601.279 907.319 589.754 915.076 578.928C936.649 574.956 1015.18 560.472 1016.44 560.472C1016.51 560.472 1017.18 560.668 1018.36 561.018C1016.59 562.496 1014.67 563.977 1013.19 565.339C1005.21 572.659 997.156 579.98 989.103 587.261C986.738 589.441 967.826 609.106 964.869 609.106C983.781 610.741 1001.88 604.862 1020.94 603.773C1022.35 603.697 1023.83 603.657 1025.01 604.006C1028.55 604.978 1026.85 607.821 1024.64 609.612Z" fill="var(--fill-0, #D78C43)"/>
</g>
<g id="Vector_2">
<path d="M1528.93 524.868L1494.79 494.353C1491.37 514.737 1487.6 535.06 1483.38 555.324C1483.74 552.231 1479.36 546.384 1477.88 543.654C1475.54 539.502 1472.95 535.462 1470.36 531.422C1465.82 524.426 1461.12 517.451 1457.69 510.014L1300.37 390L1299.03 390.883C1299.43 394.449 1299.58 398.096 1300.43 401.3C1303.89 414.359 1310.14 426.957 1318.91 438.361C1312.8 437.43 1306.73 436.498 1300.62 435.595C1296.19 444.124 1298.65 453.802 1301.2 462.773C1304.77 475.547 1308.51 488.59 1317.19 499.698C1321.18 504.774 1326.36 510.741 1323.15 516.174C1299.25 507.605 1274.27 500.91 1248.68 496.252C1243.65 502.565 1245.79 510.793 1243.31 517.997C1241.02 524.627 1234.86 530.085 1232.24 536.658C1228.28 546.421 1232.71 557.078 1239.07 565.949C1245.43 574.82 1253.78 582.823 1258.73 592.248C1265.65 605.548 1263.46 613.335 1282.17 630.879L1528.93 647.625V524.868H1528.93Z" fill="var(--fill-0, #BD6D14)"/>
<path d="M909.608 579.94C909.608 579.94 911.605 579.591 915.076 578.928C907.319 589.754 902.588 601.279 900.227 612.805C899.044 618.294 898.452 623.788 896.605 629.197C890.842 646.019 873.481 661.206 866.538 677.908C865.133 681.257 864.173 684.606 863.067 687.991H451.261C488.797 668.455 486.528 658.889 501.796 643.561C512.732 632.658 529.501 623.743 542.872 613.616C556.243 603.492 566.515 591.072 561.416 579.04C558.09 570.941 548.118 563.893 545.384 555.753C542.427 546.915 548.041 537.217 540.284 529.237C493.075 532.743 446.531 538.739 401.537 547.071C396.883 540.297 407.52 533.558 415.795 527.796C433.82 515.182 443.351 499.838 452.513 484.807C459.014 474.254 465.516 462.845 459.31 452.256C448.082 452.838 436.927 453.465 425.695 454.087C443.942 441.12 457.905 426.519 466.921 411.139C469.137 407.36 470.173 403.003 471.652 398.758L702.305 520.443C709.309 527.266 716.252 531.687 765.619 566.821C761.484 549.208 759.606 531.916 760.078 513.086L909.612 579.944L909.608 579.94Z" fill="var(--fill-0, #BD6D14)"/>
<path d="M1383.84 687.995C1317.27 691.726 1105.76 689.36 918.033 687.995C933.965 673.583 933.278 669.607 939.31 664.206C943.15 660.74 948.764 657.937 954.232 655.094C980.755 641.348 1004.4 626.085 1024.64 609.612C1026.85 607.821 1028.56 604.978 1025.01 604.006C1023.82 603.657 1022.35 603.697 1020.94 603.773C1001.88 604.862 983.781 610.741 964.869 609.106C967.826 609.106 986.738 589.441 989.103 587.261C997.156 579.98 1005.21 572.659 1013.19 565.339C1014.67 563.977 1016.59 562.496 1018.36 561.018C1036.68 566.624 1179.64 613.544 1179.64 613.544L1182.6 612.375C1193.61 619.736 1204.83 626.976 1216.44 634.064C1214.78 619.041 1202.73 610.106 1198.92 605.717L1199.29 605.56L1272.88 619.852L1359.39 581.108C1360.35 590.337 1360.65 601.436 1361.46 606.653C1361.83 608.717 1362.05 610.741 1362.2 612.764C1362.35 615.648 1363.82 638.385 1363.97 641.268C1364.19 644.344 1376.68 672.185 1383.85 687.995H1383.84Z" fill="var(--fill-0, #BD6D14)"/>
<path d="M1920 602.797V687.999H1547.27C1551.92 685.891 1556.06 683.562 1559.46 680.871C1570.24 672.181 1570.46 661.05 1568.76 650.697C1566.94 639.453 1563.77 628.671 1570.13 618.459C1576.56 608.01 1591.43 599.235 1596.7 588.538C1577.85 588.662 1559.01 588.734 1540.24 588.815C1566.77 576.318 1582.15 558.64 1596.4 541.429C1602.75 533.715 1609.18 525.539 1607.18 517.242C1596.7 518.72 1586.05 519.977 1575.34 521.065C1578.15 510.938 1582.28 500.894 1587.83 491.076L1812.36 585.542L1816.18 583.799C1818.5 585.811 1841.99 602.99 1858.3 621.491C1858.16 593.015 1849.78 572.683 1848.84 568.889L1850.25 568.262L1920 602.801V602.797Z" fill="var(--fill-0, #BD6D14)"/>
</g>
<g id="Vector_3">
<path d="M1459.83 511.652L1457.69 510.014C1461.11 517.451 1465.82 524.427 1470.35 531.422C1472.94 535.462 1475.54 539.502 1477.87 543.654C1479.35 546.385 1483.74 552.231 1483.38 555.324C1487.59 535.06 1491.37 514.737 1494.78 494.353L1494.12 493.754L1459.83 511.652Z" fill="var(--fill-0, #BC6007)"/>
<path d="M1129.75 474.579L1129.54 474.696C1129.29 477.145 1129.04 479.627 1128.71 482.073C1127.95 487.863 1127.02 493.678 1125.9 499.445C1124.6 505.978 1123.05 512.496 1121.28 518.933C1131.19 510.094 1141.15 501.224 1151.06 492.385C1154.35 489.425 1157.74 486.281 1160.55 482.932L1155.63 486.201L1129.75 474.575V474.579Z" fill="var(--fill-0, #BC6007)"/>
<path d="M1061.89 602.789C1059.69 588.714 1044.82 579.775 1043.29 565.648C1042.8 561.102 1043.01 556.54 1042.89 551.954C1042.71 542.333 1041.23 532.623 1038.02 523.382C1026.55 519.294 984.829 504.384 984.138 504.34C984.096 504.34 983.716 504.472 983.028 504.721C983.858 506.01 984.772 507.307 985.452 508.488C989.123 514.841 992.836 521.194 996.553 527.519C997.64 529.41 1006.12 546.38 1007.74 546.489C997.198 547.135 987.825 541.598 977.464 539.987C976.7 539.871 975.894 539.783 975.21 540.028C973.167 540.702 973.824 543.116 974.868 544.678C984.388 559.054 995.892 572.563 1009.13 584.919C1011.85 587.473 1014.66 590.003 1016.44 593.011C1017.8 595.312 1018.53 597.826 1019.39 600.255C1021.02 604.813 1023.29 609.186 1025.81 613.483L1073.51 616.72C1073.23 613.877 1062.33 605.612 1061.89 602.789Z" fill="var(--fill-0, #BC6007)"/>
<path d="M1848.84 568.885L1816.18 583.795C1830.95 596.629 1874.66 655.54 1899.43 687.995H1907.82C1890.24 647.754 1852.71 584.55 1848.85 568.881L1848.84 568.885Z" fill="var(--fill-0, #BC6007)"/>
<path d="M1404.87 578.518C1379.92 570.929 1359.61 581.06 1359.39 581.108C1360.35 590.337 1360.65 601.436 1361.46 606.653C1361.83 608.717 1362.05 610.741 1362.2 612.764C1362.35 615.648 1363.82 638.385 1363.97 641.268C1364.19 644.344 1376.68 672.185 1383.85 687.995H1391.38C1396.48 663.423 1404.61 608.717 1408.3 599.099C1409.48 596.139 1410.59 593.18 1412.51 590.337C1413.47 588.895 1414.66 587.494 1415.77 586.092C1416.88 584.65 1417.98 583.173 1418.94 581.691L1417.61 582.39L1404.88 578.514L1404.87 578.518Z" fill="var(--fill-0, #BC6007)"/>
<path d="M1198.92 605.721L1182.6 612.379C1193.61 619.74 1204.83 626.98 1216.44 634.068C1214.76 618.937 1202.68 610.054 1198.92 605.721Z" fill="var(--fill-0, #BC6007)"/>
<path d="M760.078 513.082L759.709 512.925L710.504 524.764L702.305 520.443C706.664 524.688 712.132 528.739 717.45 532.554C733.482 543.963 787.907 645.754 803.939 657.162C802.092 649.296 762.367 551.011 761.407 543.068C760.097 531.775 759.855 522.001 760.078 513.086V513.082Z" fill="var(--fill-0, #BC6007)"/>
<path d="M97.4477 506.267L96.119 506.93C97.9661 531.655 35.616 638.092 38.9415 662.74C38.9415 659.002 112.965 570.595 116.214 567.439C130.898 553.645 147.986 541.903 159.802 528.735L155.589 530.526L97.4438 506.267H97.4477Z" fill="var(--fill-0, #BC6007)"/>
</g>
</g>
<path id="land" d="M1920 800H0V666.006C646.381 416.771 1286.33 419.229 1920 666.006V800Z" fill="var(--fill-0, black)"/>
<g id="Container_2">
<path id="Vector_4" d="M1116.72 123.587C1134.82 129.808 1144.46 99.547 1144.81 98.4073C1144.64 98.9305 1142.08 105.52 1119.61 107.014C1108.8 107.737 1104.72 100.369 1099.43 99.0924C1090.57 96.95 1085.02 100.531 1085.02 100.531L1085.52 117.365C1085.23 116.985 1084.79 116.742 1084.28 116.742C1083.42 116.742 1082.72 117.44 1082.72 118.299V146.219L1034.98 216.47C1032.57 216.968 1030.53 217.697 1029.48 218.569C1028.72 219.198 1028.7 221.602 1029.15 225.027L1029.02 225.226C1029.02 225.226 1029.08 225.301 1029.21 225.432C1029.86 230.128 1031.33 236.611 1032.98 243.119L995.926 243.86C1004.46 216.489 1026.9 143.36 1023.86 141.336C1021.83 139.979 1014.41 137.693 1007.18 136.709L957.538 48.3349V24.6688C961.442 22.4392 970.137 19.7487 985.937 25.1795C1004.04 31.4012 1013.67 1.13971 1014.02 0C1013.86 0.523145 1011.3 7.11228 988.82 8.60698C978.015 9.32942 973.936 1.96179 968.648 0.685071C959.78 -1.45733 954.237 2.12372 954.237 2.12372L954.61 14.81C954.498 15.028 954.424 15.2709 954.424 15.5324V51.4675L911.096 143.398C907.309 143.086 902.445 143.553 896.193 145.073L919.093 245.392L877.895 246.214C881.015 233.678 883.818 220.182 881.868 218.556C879.626 216.688 873.118 215.492 868.005 215.779L827.374 156.676V128.843C830.463 126.614 839.238 122.441 857.019 128.557C875.117 134.778 884.752 104.517 885.107 103.377C884.939 103.9 882.379 110.489 859.903 111.984C849.097 112.707 845.018 105.339 839.73 104.062C830.868 101.92 825.319 105.501 825.319 105.501L825.798 121.712C824.951 121.725 824.266 122.416 824.266 123.269V158.052C817.951 168.291 797.611 201.33 787.216 219.048C782.147 218.967 776 220.431 776 220.431L789.701 269.009L779.731 520H868.79L869.107 494.466L1042.94 501.54L1043.17 520H1132.23L1122.27 269.015L1135.97 220.437C1135.97 220.437 1132.36 219.578 1128.38 219.216C1119.47 203.516 1093.73 161.683 1085.83 148.872V124.932C1086.77 123.954 1095.07 116.151 1116.72 123.593V123.587Z" fill="var(--fill-0, #736554)"/>
<g id="Vector_5">
<path d="M830.799 296.418C823.949 298.286 825.194 325.689 825.194 325.689L838.896 323.821C839.518 315.101 837.65 294.549 830.799 296.418Z" fill="var(--fill-0, white)"/>
<path d="M1078.67 291.435C1071.82 293.304 1073.07 320.707 1073.07 320.707L1086.77 318.838C1087.39 310.119 1085.52 289.567 1078.67 291.435Z" fill="var(--fill-0, white)"/>
<path d="M968.436 215.455C969.059 206.736 967.191 186.184 960.34 188.052C953.489 189.92 954.735 217.323 954.735 217.323L968.436 215.455Z" fill="var(--fill-0, white)"/>
<path d="M901.175 280.225C892.456 280.225 894.324 305.76 894.324 307.628H907.403C907.403 307.628 909.894 280.225 901.175 280.225Z" fill="var(--fill-0, white)"/>
<path d="M946.016 280.225C937.92 281.471 940.411 307.628 940.411 307.628H954.735C954.735 307.628 954.112 278.98 946.016 280.225Z" fill="var(--fill-0, white)"/>
<path d="M1000.82 280.225C994.594 281.471 996.462 304.514 996.462 305.76H1008.3C1008.3 297.041 1007.05 278.98 1000.82 280.225Z" fill="var(--fill-0, white)"/>
<path d="M898.684 342.504C891.21 343.127 892.456 364.302 892.456 367.416H904.912C904.912 367.416 906.157 341.882 898.684 342.504Z" fill="var(--fill-0, white)"/>
<path d="M936.051 364.302H948.507C949.753 344.996 946.639 338.768 941.034 338.768C935.428 338.768 936.051 364.302 936.051 364.302Z" fill="var(--fill-0, white)"/>
<path d="M947.261 399.801C916.122 402.915 925.993 484.32 925.993 484.32L970.94 486.151C970.94 486.151 978.407 396.687 947.268 399.801H947.261Z" fill="var(--fill-0, white)"/>
<path d="M1103.89 363.561H1088.95C1084.79 363.561 1084.78 370.026 1088.95 370.026H1103.89C1108.05 370.026 1108.06 363.561 1103.89 363.561Z" fill="var(--fill-0, white)"/>
<path d="M1102.96 388.784H1091.75C1087.59 388.784 1087.58 395.249 1091.75 395.249H1102.96C1107.12 395.249 1107.13 388.784 1102.96 388.784Z" fill="var(--fill-0, white)"/>
<path d="M1074 428.02H1061.86C1057.69 428.02 1057.69 434.484 1061.86 434.484H1074C1078.16 434.484 1078.17 428.02 1074 428.02Z" fill="var(--fill-0, white)"/>
<path d="M1101.09 449.506H1093.62C1089.46 449.506 1089.45 455.971 1093.62 455.971H1101.09C1105.25 455.971 1105.26 449.506 1101.09 449.506Z" fill="var(--fill-0, white)"/>
<path d="M847.926 456.967C844.407 457.229 841.007 456.98 837.588 456.12C833.552 455.111 831.827 461.345 835.869 462.354C839.824 463.345 843.859 463.731 847.926 463.432C852.049 463.127 852.086 456.662 847.926 456.967Z" fill="var(--fill-0, white)"/>
<path d="M814.457 426.401C811.891 426.357 809.326 426.313 806.753 426.276C802.593 426.208 802.593 432.672 806.753 432.741C809.319 432.784 811.885 432.828 814.457 432.865C818.618 432.934 818.618 426.469 814.457 426.401Z" fill="var(--fill-0, white)"/>
<path d="M1065.58 348.464C1067.31 348.24 1068.81 347.138 1068.81 345.232C1068.81 343.657 1067.32 341.776 1065.58 342C1062.68 342.374 1059.86 342.299 1057.02 341.62C1052.97 340.661 1051.24 346.895 1055.3 347.854C1058.69 348.658 1062.12 348.907 1065.58 348.464Z" fill="var(--fill-0, white)"/>
<path d="M860.999 378.819C856.022 379.243 851.053 379.367 846.058 379.374C841.898 379.374 841.891 385.838 846.058 385.838C851.053 385.838 856.016 385.714 860.999 385.284C865.115 384.935 865.153 378.464 860.999 378.819Z" fill="var(--fill-0, white)"/>
<path d="M837.843 347.798C837.843 349.716 839.332 350.825 841.075 351.03C843.853 351.354 846.681 351.037 849.471 350.999C853.625 350.937 853.637 344.472 849.471 344.535C846.687 344.572 843.853 344.896 841.075 344.566C839.338 344.36 837.843 346.197 837.843 347.798Z" fill="var(--fill-0, white)"/>
<path d="M814.295 489.676H802.151C797.991 489.676 797.984 496.141 802.151 496.141H814.295C818.456 496.141 818.462 489.676 814.295 489.676Z" fill="var(--fill-0, white)"/>
<path d="M1043.79 274.738H1063.72C1067.88 274.738 1067.89 268.274 1063.72 268.274H1043.79C1039.63 268.274 1039.63 274.738 1043.79 274.738Z" fill="var(--fill-0, white)"/>
<path d="M1114.17 268.897H1078.05C1073.89 268.897 1073.88 275.361 1078.05 275.361H1114.17C1118.33 275.361 1118.34 268.897 1114.17 268.897Z" fill="var(--fill-0, white)"/>
<path d="M954.561 252.318C958.721 252.318 958.727 245.853 954.561 245.853H923.595C919.435 245.853 919.429 252.318 923.595 252.318H954.561Z" fill="var(--fill-0, white)"/>
<path d="M975.91 245.853H966.568C962.408 245.853 962.402 252.318 966.568 252.318H975.91C980.07 252.318 980.076 245.853 975.91 245.853Z" fill="var(--fill-0, white)"/>
<path d="M866.734 267.651H805.265C801.105 267.651 801.098 274.116 805.265 274.116H866.734C870.895 274.116 870.901 267.651 866.734 267.651Z" fill="var(--fill-0, white)"/>
<path d="M1038.07 367.416V473.913C1038.07 478.074 1044.54 478.08 1044.54 473.913V367.416C1044.54 363.256 1038.07 363.25 1038.07 367.416Z" fill="var(--fill-0, white)"/>
<path d="M866.803 414.748V471.422C866.803 475.583 873.268 475.589 873.268 471.422V414.748C873.268 410.588 866.803 410.582 866.803 414.748Z" fill="var(--fill-0, white)"/>
</g>
</g>
<path id="tree1" fill-rule="evenodd" clip-rule="evenodd" d="M1508.61 525.38C1507.55 523.044 1504.04 522.37 1501.78 521.912C1501.01 521.767 1497.86 521.262 1496.89 520.756C1497.9 518.203 1498.24 515.337 1496.53 512.976C1493.24 508.376 1483.73 508.472 1478.85 509.966C1475.03 511.146 1468.75 515.24 1464.83 514.71C1461 514.205 1458.88 508.882 1454.96 507.87C1451.09 506.883 1447.94 507.966 1445.32 510.52C1444.47 509.725 1443.42 508.809 1442.53 507.894C1445.92 505.919 1449.24 503.703 1452.1 500.982C1453.35 499.777 1454.51 498.501 1455.52 497.08C1457.56 494.19 1458.86 491.01 1459.12 487.518C1462.95 486.169 1467.76 486.747 1471.32 485.037C1476.78 482.388 1478.06 476.704 1482.07 472.922C1484.36 470.779 1487.01 469.454 1489.17 466.997C1492.97 462.71 1490.71 456.038 1484.38 457.532C1476.78 459.338 1475.12 464.011 1472.86 470.755C1471.39 475.09 1467.23 476.15 1463.29 477.378C1461.51 477.932 1459.73 478.51 1458.07 479.377C1457.03 476.102 1455.32 473.019 1453.5 470.177C1453.5 470.152 1453.45 470.128 1453.45 470.104C1454.05 469.791 1454.65 469.526 1455.25 469.189C1457.2 468.081 1459.05 466.756 1460.62 465.119C1463.5 462.036 1464.8 458.327 1464.68 454.112C1464.59 451.318 1460.86 447.175 1461.24 445.585C1461.27 445.417 1461.39 445.272 1461.55 445.152C1462.93 443.972 1468.17 446.115 1471.06 444.959C1472.96 444.188 1475.05 442.623 1475.1 440.383C1475.17 435.494 1466.29 434.795 1463.02 434.627C1454.27 434.241 1449.41 437.035 1449.74 446.766C1450.03 455.147 1451.74 456.472 1447.72 460.615C1447.67 460.326 1447.63 460.037 1447.63 459.748C1448.28 444.333 1435.93 442.382 1435.98 451.655C1435.98 455.798 1437.74 460.783 1439.35 464.613C1439.59 465.191 1439.86 465.745 1440.12 466.299C1437.64 467.527 1435.04 468.635 1433.17 470.899C1431.96 472.344 1431.34 473.982 1431.19 475.837C1431.12 476.077 1430.88 476.415 1430.52 476.776C1430.59 475.957 1430.52 475.114 1430.45 474.247C1429.7 467.744 1426.1 461.554 1425.66 455.171C1425.49 452.739 1428.36 450.981 1430.02 449.656C1430.98 448.885 1431.92 448.066 1432.69 447.127C1434.71 444.574 1433.94 440.407 1436.92 439.275C1448.3 437.517 1442.02 423.499 1431.99 425.98C1431.7 426.028 1431.44 426.124 1431.19 426.245C1428.04 427.594 1425.76 433.037 1423.91 435.855C1422.41 438.119 1420.23 440.118 1418.54 442.262C1416.76 432.772 1406.75 436.168 1404.76 443.948C1404.54 444.742 1403.65 448.066 1402.88 449.006C1401.94 447.946 1400.31 443.562 1399.92 442.575C1399.32 441.033 1398.31 438.191 1396.87 436.264C1400.52 431.76 1407.52 430.725 1410.07 423.499C1411.18 420.416 1412.62 413.913 1408.49 412.275C1406.75 411.577 1404.9 412.299 1403.55 413.407C1401.75 414.877 1400.47 417.092 1399.63 419.212C1398.31 422.512 1397.61 425.281 1394.12 426.823C1386.71 430.123 1384.4 436.818 1384.4 444.502C1384.4 447.247 1381.78 447.392 1379.62 447.44C1379.02 447.44 1378.44 447.44 1377.86 447.44C1377.81 446.91 1377.79 446.404 1377.79 445.899C1377.79 436.722 1369.13 431.977 1367.13 423.957L1366.87 422.849H1365.74C1362.92 422.849 1357.73 423.042 1356.67 426.365C1355.66 429.521 1359.29 433.591 1361.19 435.807C1362.51 437.348 1364.44 439.396 1365.4 441.154C1367.78 445.465 1368.79 449.415 1369.2 454.015C1368.84 454.063 1368.5 454.112 1368.17 454.184C1366.84 454.449 1365.57 454.786 1364.29 455.147C1363.52 455.364 1362.68 455.653 1361.86 455.822C1360.16 456.183 1358.76 450.234 1355.95 449.632C1355.08 449.463 1354.19 449.535 1353.42 449.921C1351.52 450.836 1350.94 452.956 1351.13 454.931C1351.01 454.738 1350.89 454.521 1350.75 454.328C1350.39 453.606 1350.39 448.933 1350.36 447.922C1350.24 445.296 1350 440.985 1347.38 439.564C1345.87 438.769 1345.1 437.878 1343.15 437.854C1339.9 437.806 1337.81 441.033 1336.58 443.635C1335.71 445.417 1335.76 447.536 1336.34 449.391C1338.07 455.051 1344.47 460.831 1344.47 466.395C1344.47 468.202 1341.54 470.562 1339.64 472.392C1336.99 469.839 1333.86 468.756 1329.96 469.719C1326.07 470.706 1323.93 476.077 1320.1 476.583C1316.18 477.089 1309.9 473.019 1306.08 471.814C1301.19 470.321 1291.69 470.201 1288.4 474.825C1286.71 477.185 1287.02 480.052 1288.03 482.605C1287.07 483.086 1283.92 483.592 1283.15 483.737C1280.87 484.17 1277.35 484.869 1276.29 487.181C1276.13 487.59 1276.03 488.024 1276.01 488.457C1275.98 489.035 1276.03 489.613 1276.15 490.167C1276.92 493.925 1280.5 496.502 1284.19 496.959C1289.33 497.586 1293.37 494.334 1295.8 490.095C1297.46 487.181 1301.41 480.509 1305.57 481.135C1307.88 481.497 1310.48 483.953 1312.24 485.423C1314.18 487.036 1316.28 488.65 1318.78 489.276C1321.28 489.927 1323.61 489.397 1325.8 488.144C1327.15 487.374 1328.16 485.591 1329 484.339C1329.36 483.761 1330.64 481.713 1331.36 481.617C1331.43 481.617 1331.48 481.617 1331.53 481.617C1334.44 482.629 1335.71 485.206 1336.65 488.337C1336.24 488.048 1335.81 487.759 1335.31 487.566C1334.25 487.157 1333.04 487.036 1332.03 487.663C1329.44 489.324 1330.4 495.153 1330.71 497.754C1330.83 498.814 1331.48 503.463 1331.14 504.835C1330.01 504.354 1327.66 501.849 1327.1 501.247C1321.59 495.274 1310.96 497.08 1314.26 506.594L1314.3 506.714L1315.17 508.328L1315.22 508.4C1316.13 509.797 1318.08 510.086 1319.62 510.231C1321.4 510.423 1323.18 510.471 1324.96 510.76C1327.63 511.218 1330.06 512.157 1331.02 514.927C1332.13 518.131 1334.05 520.659 1337.37 521.647C1338.99 522.129 1340.67 522.177 1342.33 522.129C1344.28 522.056 1348.1 521.478 1349.81 522.418C1350.53 522.827 1350.94 523.502 1351.21 524.248C1351.86 526.127 1352.31 527.957 1352.6 529.932C1352.77 531.088 1352.87 532.413 1353.56 533.377C1354.62 534.846 1356.96 535.207 1358.64 535.52C1358.81 535.544 1358.95 535.616 1359.1 535.689C1359.87 536.17 1360.52 538.097 1361.02 540H1442.77C1448.83 533.449 1446.42 522.129 1453.4 519.72C1453.45 519.72 1453.5 519.696 1453.57 519.72C1454.29 519.816 1455.56 521.888 1455.95 522.442C1456.77 523.718 1457.8 525.477 1459.15 526.247C1461.36 527.524 1463.7 528.03 1466.2 527.403C1468.68 526.777 1470.79 525.139 1472.74 523.526C1474.5 522.056 1477.12 519.576 1479.4 519.238C1483.59 518.588 1487.54 525.308 1489.2 528.198C1491.63 532.461 1495.69 535.689 1500.81 535.063C1504.47 534.605 1508.06 532.028 1508.85 528.295C1508.97 527.741 1509.02 527.163 1508.99 526.584C1508.99 526.151 1508.87 525.717 1508.68 525.308L1508.61 525.38ZM1415.34 515.891C1418.23 513.073 1421.72 509.677 1422.56 505.558C1422.68 504.932 1422.75 504.306 1422.75 503.679C1422.75 500.861 1422.32 498.26 1421.74 495.563C1426.36 493.154 1430.98 491.516 1434.56 488.554C1434.51 490.192 1434.44 492.07 1434.23 492.504C1432.71 494.888 1431.12 497.875 1430.28 500.909C1429.61 501.319 1429.01 501.704 1428.52 502.066C1421.74 507.148 1418.4 521.045 1417.6 529.258C1417.41 531.474 1417.29 534.147 1417.46 536.797C1417.36 536.724 1417.27 536.652 1417.17 536.58C1415.05 535.111 1412.65 533.69 1410.87 531.787C1409.62 530.462 1408.82 528.993 1408.44 527.211C1407.48 522.899 1412.65 518.54 1415.37 515.891H1415.34ZM1374.28 517.023C1373.53 513.097 1372.18 507.629 1369.73 503.174C1370.57 502.933 1371.41 502.668 1372.26 502.379C1372.26 502.909 1372.21 503.438 1372.21 503.968C1372.21 514.205 1379.14 524.778 1385.94 532.774C1385.51 533.762 1385.01 534.87 1384.53 536.05C1376.32 532.245 1376.71 529.788 1374.28 517.023ZM1442.48 475.475C1443.05 474.994 1443.82 474.56 1444.62 474.151C1445.75 475.933 1446.93 477.788 1447.65 479.738C1447.82 480.196 1447.89 480.654 1448.01 481.111C1446.76 478.727 1444.84 476.077 1441.95 476.029C1442.12 475.837 1442.29 475.596 1442.45 475.451L1442.48 475.475ZM1359.51 518.853C1359.84 518.347 1360.52 517.962 1361.31 517.625C1361.24 519.263 1361.07 520.9 1361.07 522.105C1361.07 522.634 1361.07 523.14 1361.09 523.646C1359.99 522.008 1358.83 519.889 1359.51 518.853ZM1392.2 449.27C1393.28 451.486 1395.83 455.87 1396.17 457.965C1396.41 459.41 1394.08 461.891 1393.09 462.758C1392.32 463.433 1389.02 465.889 1387.92 465.36C1386.35 464.613 1384.77 464.396 1383.11 464.252C1383.03 464.252 1382.94 464.252 1382.87 464.252C1382.36 461.723 1381.37 459.362 1380.39 456.954C1386.67 456.207 1390.06 453.654 1392.22 449.295L1392.2 449.27ZM1382.43 474.56C1383.23 474.488 1383.95 474.512 1384.45 474.801C1386.06 475.668 1385.22 480.75 1384.98 482.051C1384.74 483.399 1383.13 483.568 1382.19 485.013C1381.25 481.184 1381.83 477.98 1382.43 474.56ZM1383.61 498.934C1383.71 497.995 1383.78 497.056 1383.83 496.068C1383.92 496.333 1384.04 496.598 1384.12 496.839C1384.38 497.61 1386.35 503.222 1385.44 503.776C1385.08 503.968 1384.81 504.233 1384.57 504.546C1384.45 504.739 1384.36 504.932 1384.28 505.124C1383.71 503.029 1383.37 500.934 1383.59 498.91L1383.61 498.934ZM1398.19 515.216C1398.09 514.831 1398 514.421 1397.88 514.036C1397.25 512.013 1396.31 510.11 1395.37 508.207C1395.13 507.677 1394.15 505.775 1394.05 505.149C1394.8 502.86 1394.6 500.476 1394.15 498.164C1393.79 496.43 1391.98 490.986 1392.82 489.517C1392.92 489.373 1393.02 489.252 1393.16 489.156C1394.46 488.096 1396.39 486.675 1396.63 484.869C1396.77 483.664 1396.24 482.46 1395.83 481.352C1395.16 479.474 1394.7 477.667 1394.39 475.692C1394.24 474.897 1394.32 474.102 1394.73 473.404C1395.76 471.766 1399.44 470.442 1401.17 469.599C1402.66 468.852 1404.13 468.009 1405.31 466.853C1407.79 464.396 1408.29 461.241 1407.74 457.893C1407.28 455.003 1408.99 453.028 1411.13 451.366C1412.36 450.403 1413.68 449.632 1414.96 448.765C1414.52 450.041 1414.16 451.342 1413.97 452.763C1412.67 456.93 1414.57 460.976 1416.52 464.589C1417.84 467.045 1420.37 471.02 1420.08 473.886C1419.77 476.993 1416.09 478.92 1413.56 480.003C1406.95 482.845 1408.99 494.214 1410.67 499.537C1412.09 503.968 1406.13 508.207 1403.24 510.592C1401.61 511.916 1399.75 513.458 1398.19 515.192V515.216ZM1349.02 505.895C1350.92 506.401 1353.9 507.196 1356.45 508.448C1356.21 508.617 1355.97 508.761 1355.73 508.93C1354.31 509.869 1353.04 510.809 1352 512.181C1351.28 513.169 1347.24 512.567 1346.23 512.326C1344.95 512.013 1341.73 510.953 1341.25 509.556C1340.55 507.509 1340.74 502.234 1340.65 499.85C1342.31 502.523 1344.78 504.763 1349.04 505.871L1349.02 505.895ZM1428.04 533.569C1428.04 532.75 1428.04 531.931 1428 531.113C1427.68 523.742 1429.01 518.781 1433.94 513.699C1435.72 515.602 1437.47 516.999 1440.1 518.347C1439.54 519.407 1439.04 520.491 1438.51 521.575C1436.42 525.862 1433.41 532.823 1428.04 533.569ZM1355.06 463.192C1358.71 467.792 1364.63 466.684 1369.66 465.432C1369.87 468.756 1370.28 472.055 1371.34 475.692C1372.09 478.269 1372.67 480.678 1372.98 483.11C1372.93 483.135 1372.91 483.159 1372.86 483.183C1370.64 485.037 1372.23 490.962 1370.57 491.444C1369.8 491.661 1368.89 491.805 1368.09 491.998C1366.8 492.263 1365.5 492.576 1364.25 492.961C1362.56 493.491 1360.59 494.286 1359.22 495.49C1358.93 495.49 1358.66 495.466 1358.35 495.49C1352.05 495.948 1348.7 488.072 1346.42 483.424C1345.91 482.34 1345.39 481.28 1344.83 480.196C1348.49 478.317 1350.44 476.391 1353.18 473.043C1355.68 469.984 1355.68 466.227 1354.65 462.614C1354.79 462.806 1354.94 463.023 1355.1 463.192H1355.06Z" fill="var(--fill-0, black)"/>
<path id="tree2" d="M193.802 519.349C195.546 516.505 198.337 514.519 201.208 512.989C205.313 510.573 209.82 508.882 214.274 507.218C217.574 505.957 221.089 505.554 224.604 505.823C228.146 506.091 231.634 507.057 234.88 508.453C241.293 511.217 247.142 515.673 251.354 521.255C255.057 526.166 257.23 531.346 259.108 536.66C261.067 537.197 263.133 537.412 265.252 537.224C266.192 537.143 267.131 537.009 268.07 536.848C267.721 534.943 267.399 533.037 267.023 531.132C266.567 528.689 265.95 526.274 264.931 524.127C264.045 522.409 262.891 520.96 261.604 519.698C257.955 516.129 253.313 512.076 249.074 509.714C249.047 509.553 249.315 509.392 249.315 509.285C253.152 508.373 260.906 512.425 264.474 513.982C266.701 515.028 268.767 516.505 270.538 518.517C272.819 520.987 274.509 524.234 275.716 527.696C276.575 529.843 277.38 532.071 278.158 534.325C281.217 533.547 284.275 532.93 287.415 532.688C287.307 531.722 287.2 530.756 287.093 529.763C286.771 527.025 286.207 524.341 285.053 521.819C284.571 520.745 283.98 519.698 283.363 518.678C281.861 516.344 279.982 514.223 278.024 512.264C275.636 509.822 272.819 507.943 269.572 506.896C266.218 505.877 262.677 505.662 259.189 505.447C254.95 505.206 250.71 504.964 246.605 503.837C241.427 502.334 237.966 499.301 233.7 496.295C233.7 496.161 233.995 496.081 233.995 496C238.529 496.268 242.607 499.57 247.544 499.65C251.435 499.757 255.298 499.06 259.135 498.442C263.294 497.771 267.479 497.235 271.692 497.718C276.977 498.254 281.887 500.402 286.019 503.703C290.366 507.084 294.364 511.003 297.261 515.726C299.435 519.484 300.776 523.59 301.608 527.83C302.118 530.38 302.467 532.957 302.896 535.506C306.008 537.009 308.906 539.022 311.535 541.384C317.465 546.993 321.248 554.293 324.736 561.593C326.399 565.082 328.117 568.249 328.707 571.872C332.141 575.898 338.366 582.849 334.932 588.485C334.315 589.398 333.241 589.559 331.927 589.264C332.249 590.552 332.356 591.894 332.141 593.316C330.719 600.616 306.545 590.928 303.352 589.666C300.562 588.539 297.879 587.17 295.33 585.56C289.185 587.036 283.175 589.103 277.273 591.276C276.253 591.652 275.207 592.028 274.187 592.35C269.062 593.987 263.696 595.034 258.303 594.658C253.206 594.363 248.376 592.726 244.083 589.935C241.159 587.975 238.529 585.238 235.927 582.42C232.519 580.434 229.326 578.099 225.489 576.891C222.914 576.113 220.257 575.549 217.548 575.603C215.535 575.683 213.577 576.193 211.752 577.025C207.245 579.145 202.066 583.064 198.9 587.009C198.766 587.009 198.686 586.687 198.632 586.714C199.142 582.151 206.037 575.308 209.257 572.624C211.457 570.852 213.979 569.537 216.743 568.866C220.284 567.873 223.987 567.927 227.582 568.437C233.136 569.376 237.858 572.221 243.225 573.536C244.781 573.939 246.337 573.939 247.92 573.617C249.476 573.187 251.005 572.57 252.481 571.872C250.737 571.148 249.02 570.369 247.356 569.403C242.956 566.666 239.602 562.559 236.168 558.775C234.773 557.218 233.324 555.689 231.768 554.32C230.909 553.595 229.782 552.683 228.79 552.307C226.751 551.797 224.658 551.69 222.645 552.227C220.714 552.763 218.943 553.783 217.333 554.964C215.589 556.225 213.979 557.675 212.262 558.99C211.35 559.688 210.384 560.332 209.337 560.842C208.023 561.459 206.628 561.754 205.152 561.7C205.018 561.647 205.608 561.513 205.152 561.271C206.467 560.842 207.647 560.573 208.801 559.741C209.633 559.097 210.357 558.292 211.055 557.487C212.396 555.716 213.63 553.891 215.106 552.227C216.716 550.267 218.621 548.55 220.875 547.342C223.692 545.758 226.911 545.195 230.131 545.436C232.439 545.651 234.639 546.617 236.624 547.798C238.797 549.033 240.81 550.563 242.768 552.119C245.586 554.4 248.483 557.299 251.837 558.909C251.676 558.534 251.488 558.158 251.327 557.755C249.61 553.246 248.644 548.63 247.491 544.041C247.491 544.041 247.437 544.014 247.437 543.987C243.439 540.901 239.307 537.948 234.907 535.452C231.392 533.493 227.582 531.695 223.558 531.105C222.082 530.917 220.579 530.89 219.104 531.212C217.655 531.534 216.313 532.178 215.133 533.064C213.469 534.298 212.181 535.962 211.135 537.707C209.633 540.176 208.103 543.37 207.889 546.322C207.781 546.429 207.593 546.134 207.486 546.242C206.708 544.765 206.923 542.43 207.352 540.257L206.654 541.33L207.379 540.069C207.674 538.593 208.076 537.224 208.372 536.231C209.203 533.815 210.357 531.48 211.967 529.468C213.443 527.75 215.267 526.354 217.333 525.415C219.426 524.476 221.706 523.992 224.014 523.885C229.192 523.59 234.37 524.986 239.173 526.864C239.549 526.998 239.898 527.159 240.273 527.32C237.671 523.536 234.102 520.342 230.104 518.061C227.985 516.853 225.704 515.914 223.289 515.431C221.17 515.002 218.996 514.948 216.85 515.431C212.53 516.531 208.184 517.524 203.971 519.027C201.825 519.833 199.571 520.799 197.988 522.49C196.432 524.154 195.842 526.408 195.52 528.609C194.849 532.93 194.876 537.975 195.922 542.269C195.868 542.404 195.52 542.296 195.52 542.323C192.89 539.129 192.354 532.151 192.005 528.26C191.951 525.147 192.327 521.98 193.963 519.269L193.802 519.349ZM287.763 555.206C288.032 555.608 288.354 555.957 288.622 556.333C290.017 556.118 291.412 555.903 292.834 555.796C292.915 555.796 293.022 555.796 293.103 555.796C292.861 555.367 292.62 554.937 292.378 554.454C291.305 552.173 290.527 549.892 289.91 547.583C287.763 547.476 285.617 547.691 283.497 548.04C284.732 550.589 286.1 553.032 287.79 555.179L287.763 555.206ZM265.011 552.307C265.44 553.273 266.004 554.213 266.755 554.964C267.56 555.742 268.553 556.279 269.599 556.709C270.699 557.138 271.853 557.46 273.007 557.728C272.121 555.313 271.397 552.817 270.753 550.267C268.875 550.482 266.996 550.616 265.091 550.563C264.796 550.563 264.528 550.509 264.233 550.509C264.501 551.099 264.716 551.69 265.011 552.307ZM272.148 578.931C275.475 577.106 278.936 575.469 282.478 574.019C281.995 574.019 281.512 573.992 281.002 573.966C274.375 576.193 267.989 579.28 261.764 582.205C260.316 582.876 258.813 583.466 257.311 584.003C257.659 584.003 258.008 584.003 258.357 583.95C263.187 583.091 267.775 581.105 272.148 578.931Z" fill="var(--fill-0, black)"/>
</g>
</svg>
