<svg preserveAspectRatio="none" width="100%" height="100%" overflow="visible" style="display: block;" viewBox="0 0 960 400" fill="none" xmlns="http://www.w3.org/2000/svg">
<g id="Container">
<g id="mountain">
<g id="Vector">
<path d="M520.462 262.211C520.462 262.211 519.932 262.029 519.011 261.691C522.271 271.08 521.155 278.288 521.643 282.826C522.409 289.89 526.441 296.496 527.537 303.531C527.76 304.943 527.862 306.344 528.002 307.768L641.086 315.442C631.724 306.661 632.809 302.74 629.365 296.126C626.892 291.414 622.717 287.414 619.538 282.977C616.356 278.541 614.139 273.212 616.124 268.331C617.43 265.044 620.511 262.314 621.656 259.001C622.896 255.401 621.825 251.286 624.342 248.128C637.135 250.457 649.626 253.804 661.576 258.089C663.183 255.374 660.589 252.389 658.596 249.851C654.259 244.297 652.385 237.776 650.6 231.389C649.327 226.903 648.094 222.064 650.314 217.799C653.368 218.249 656.402 218.715 659.455 219.183C655.073 213.48 651.948 207.182 650.218 200.652C649.791 199.048 649.72 197.227 649.519 195.444L580.278 241.47C578.874 243.145 577.177 244.717 575.532 246.196C570.576 250.616 565.597 255.051 560.642 259.47C561.531 256.252 562.301 252.993 562.95 249.726C563.512 246.843 563.977 243.936 564.357 241.04C564.52 239.818 564.647 238.577 564.77 237.352L520.464 262.215L520.462 262.211Z" fill="var(--fill-0, #D78C43)"/>
<path d="M445.192 302.146L512.907 306.742C511.645 304.595 510.513 302.407 509.695 300.128C509.265 298.913 508.902 297.656 508.218 296.506C507.331 295 505.926 293.737 504.563 292.46C497.946 286.282 492.194 279.527 487.434 272.339C486.912 271.556 486.584 270.349 487.605 270.012C487.947 269.889 488.35 269.933 488.732 269.992C493.914 270.797 498.599 273.566 503.871 273.242C503.059 273.188 498.82 264.703 498.276 263.757C496.418 260.597 494.561 257.418 492.726 254.242C492.386 253.65 491.931 253.003 491.514 252.359C486.557 254.208 424.921 279.973 420.169 281.886L445.19 302.146H445.192Z" fill="var(--fill-0, #D78C43)"/>
<path d="M784.716 309.83C781.981 314.833 783.533 320.148 784.383 325.346C785.232 330.525 785.123 336.095 779.729 340.436C778.03 341.779 775.962 342.947 773.633 344H695.691C698.239 331.713 702.303 304.36 704.15 299.551C704.742 298.072 705.295 296.592 706.257 295.17C706.737 294.449 707.328 293.749 707.883 293.048C708.438 292.327 708.991 291.588 709.471 290.847L791.804 245.624C792.394 245.301 793.263 245.267 793.914 245.54C791.144 250.447 789.076 255.469 787.672 260.531C793.029 259.987 798.348 259.362 803.593 258.623C804.591 262.771 801.375 266.859 798.2 270.715C791.071 279.32 783.387 288.159 770.125 294.409C779.508 294.371 788.928 294.331 798.348 294.273C795.613 299.823 787.709 304.338 784.716 309.83Z" fill="var(--fill-0, #D78C43)"/>
<path d="M271.434 306.812C264.749 311.874 256.362 316.333 250.896 321.785C243.285 329.426 244.391 334.233 225.629 344H0V277.316L48.0595 253.467C48.983 265.829 50.2387 278.174 51.9014 290.498C51.9014 288.629 56.4826 285.3 58.1069 283.723C65.543 276.736 73.9699 270.982 79.9008 264.372L234.716 198.795L235.824 199.379C235.085 201.501 234.568 203.682 233.459 205.569C228.952 213.26 221.971 220.562 212.845 227.043C218.46 226.732 224.039 226.421 229.653 226.128C232.756 231.423 229.505 237.127 226.255 242.404C221.674 249.919 216.908 257.589 207.896 263.898C203.758 266.779 198.44 270.148 200.767 273.536C223.263 269.369 246.536 266.37 270.14 264.619C274.019 268.61 271.212 273.457 272.69 277.877C274.057 281.945 279.043 285.47 280.706 289.52C283.254 295.536 278.12 301.746 271.434 306.808V306.812Z" fill="var(--fill-0, #D78C43)"/>
<path d="M512.319 304.806C502.197 313.042 490.378 320.674 477.116 327.547C474.382 328.969 471.575 330.37 469.655 332.103C466.687 334.761 466.954 336.819 459.016 343.998H415.596C416.148 342.303 426.864 337.791 427.567 336.117C431.038 327.764 445.423 323.009 448.303 314.598C449.226 311.892 449.522 309.147 450.113 306.402C451.296 300.64 453.66 294.877 457.538 289.464C468.324 287.478 507.59 280.236 508.22 280.236C508.257 280.236 508.589 280.334 509.18 280.509C508.293 281.248 507.333 281.989 506.594 282.669C502.604 286.33 498.578 289.99 494.552 293.63C493.369 294.721 483.913 304.553 482.435 304.553C491.891 305.37 500.941 302.431 510.472 301.887C511.175 301.848 511.914 301.828 512.504 302.003C514.276 302.489 513.427 303.911 512.319 304.806Z" fill="var(--fill-0, #D78C43)"/>
</g>
<g id="Vector_2">
<path d="M764.467 262.434L747.393 247.176C745.686 257.368 743.798 267.53 741.69 277.662C741.871 276.116 739.678 273.192 738.939 271.827C737.771 269.751 736.476 267.731 735.178 265.711C732.908 262.213 730.558 258.726 728.847 255.007L650.183 195L649.517 195.442C649.716 197.225 649.789 199.048 650.216 200.65C651.944 207.18 655.069 213.478 659.453 219.181C656.4 218.715 653.366 218.249 650.312 217.797C648.094 222.062 649.325 226.901 650.598 231.387C652.383 237.774 654.257 244.295 658.595 249.849C660.587 252.387 663.181 255.37 661.574 258.087C649.624 253.802 637.133 250.455 624.34 248.126C621.823 251.282 622.894 255.397 621.654 258.999C620.509 262.314 617.428 265.042 616.122 268.329C614.139 273.21 616.356 278.539 619.536 282.975C622.717 287.41 626.89 291.412 629.363 296.124C632.826 302.774 631.732 306.667 641.084 315.44L764.465 323.813V262.434H764.467Z" fill="var(--fill-0, #BD6D14)"/>
<path d="M454.804 289.97C454.804 289.97 455.802 289.795 457.538 289.464C453.66 294.877 451.294 300.64 450.113 306.402C449.522 309.147 449.226 311.894 448.303 314.598C445.421 323.009 436.74 330.603 433.269 338.954C432.566 340.628 432.086 342.303 431.533 343.996H225.631C244.399 334.227 243.264 329.445 250.898 321.781C256.366 316.329 264.751 311.872 271.436 306.808C278.122 301.746 283.258 295.536 280.708 289.52C279.045 285.47 274.059 281.947 272.692 277.877C271.213 273.457 274.02 268.608 270.142 264.619C246.538 266.372 223.265 269.369 200.769 273.536C198.442 270.148 203.76 266.779 207.898 263.898C216.91 257.591 221.676 249.919 226.257 242.404C229.507 237.127 232.758 231.423 229.655 226.128C224.041 226.419 218.463 226.732 212.847 227.043C221.971 220.56 228.952 213.26 233.46 205.569C234.568 203.68 235.087 201.501 235.826 199.379L351.153 260.221C354.655 263.633 358.126 265.843 382.81 283.41C380.742 274.604 379.803 265.958 380.039 256.543L454.806 289.972L454.804 289.97Z" fill="var(--fill-0, #BD6D14)"/>
<path d="M691.922 343.998C658.633 345.863 552.879 344.68 459.016 343.998C466.982 336.791 466.639 334.804 469.655 332.103C471.575 330.37 474.382 328.969 477.116 327.547C490.378 320.674 502.199 313.042 512.319 304.806C513.427 303.911 514.278 302.489 512.504 302.003C511.912 301.828 511.173 301.848 510.472 301.887C500.941 302.431 491.891 305.37 482.435 304.553C483.913 304.553 493.369 294.721 494.552 293.63C498.578 289.99 502.604 286.33 506.594 282.669C507.333 281.989 508.293 281.248 509.18 280.509C518.34 283.312 589.82 306.772 589.82 306.772L591.299 306.187C596.803 309.868 602.417 313.488 608.218 317.032C607.388 309.521 601.363 305.053 599.462 302.858L599.647 302.78L636.44 309.926L679.695 290.554C680.175 295.168 680.323 300.718 680.73 303.326C680.915 304.358 681.026 305.37 681.099 306.382C681.174 307.824 681.911 319.192 681.986 320.634C682.097 322.172 688.339 336.093 691.924 343.998H691.922Z" fill="var(--fill-0, #BD6D14)"/>
<path d="M960 301.399V344H773.635C775.96 342.945 778.032 341.781 779.729 340.436C785.121 336.091 785.232 330.525 784.38 325.349C783.468 319.726 781.884 314.335 785.063 309.229C788.279 304.005 795.713 299.618 798.347 294.269C788.926 294.331 779.505 294.367 770.12 294.407C783.385 288.159 791.073 279.32 798.198 270.715C801.375 266.857 804.591 262.769 803.589 258.621C798.349 259.36 793.023 259.989 787.67 260.533C789.076 255.469 791.14 250.447 793.914 245.538L906.179 292.771L908.091 291.9C909.249 292.905 920.993 301.495 929.148 310.745C929.08 296.508 924.891 286.342 924.422 284.444L925.125 284.131L960 301.401V301.399Z" fill="var(--fill-0, #BD6D14)"/>
</g>
<g id="Vector_3">
<path d="M729.915 255.826L728.845 255.007C730.556 258.726 732.908 262.213 735.176 265.711C736.472 267.731 737.77 269.751 738.937 271.827C739.676 273.192 741.869 276.116 741.688 277.662C743.796 267.53 745.684 257.368 747.391 247.176L747.059 246.877L729.915 255.826Z" fill="var(--fill-0, #BC6007)"/>
<path d="M564.877 237.29L564.768 237.348C564.645 238.573 564.52 239.814 564.355 241.036C563.975 243.932 563.51 246.839 562.948 249.722C562.299 252.989 561.527 256.248 560.64 259.466C565.596 255.047 570.574 250.612 575.53 246.193C577.175 244.713 578.872 243.141 580.276 241.466L577.814 243.1L564.877 237.288V237.29Z" fill="var(--fill-0, #BC6007)"/>
<path d="M530.943 301.395C529.847 294.357 522.409 289.888 521.643 282.824C521.399 280.551 521.503 278.27 521.443 275.977C521.353 271.166 520.614 266.311 519.009 261.691C513.277 259.647 492.415 252.192 492.069 252.17C492.048 252.17 491.858 252.236 491.514 252.361C491.929 253.005 492.386 253.654 492.726 254.244C494.561 257.42 496.418 260.597 498.276 263.759C498.82 264.705 503.059 273.19 503.871 273.244C498.599 273.568 493.912 270.799 488.732 269.994C488.35 269.935 487.947 269.891 487.605 270.014C486.584 270.351 486.912 271.558 487.434 272.339C492.194 279.527 497.946 286.282 504.563 292.46C505.926 293.737 507.331 295.002 508.218 296.506C508.902 297.656 509.265 298.913 509.695 300.128C510.511 302.407 511.645 304.593 512.907 306.742L536.753 308.36C536.613 306.938 531.166 302.806 530.943 301.395Z" fill="var(--fill-0, #BC6007)"/>
<path d="M924.422 284.442L908.091 291.898C915.477 298.315 937.329 327.77 949.716 343.998H953.908C945.12 323.877 926.356 292.275 924.424 284.44L924.422 284.442Z" fill="var(--fill-0, #BC6007)"/>
<path d="M702.436 289.259C689.962 285.464 679.803 290.53 679.695 290.554C680.175 295.168 680.323 300.718 680.73 303.326C680.915 304.358 681.026 305.37 681.099 306.382C681.174 307.824 681.911 319.192 681.986 320.634C682.097 322.172 688.339 336.093 691.924 343.998H695.691C698.239 331.711 702.303 304.358 704.15 299.549C704.742 298.07 705.295 296.59 706.257 295.168C706.737 294.448 707.328 293.747 707.883 293.046C708.438 292.325 708.991 291.586 709.471 290.845L708.806 291.195L702.438 289.257L702.436 289.259Z" fill="var(--fill-0, #BC6007)"/>
<path d="M599.462 302.86L591.299 306.189C596.803 309.87 602.417 313.49 608.218 317.034C607.382 309.468 601.338 305.027 599.462 302.86Z" fill="var(--fill-0, #BC6007)"/>
<path d="M380.039 256.541L379.855 256.463L355.252 262.382L351.153 260.221C353.332 262.344 356.066 264.37 358.725 266.277C366.741 271.982 393.953 322.877 401.969 328.581C401.046 324.648 381.183 275.505 380.703 271.534C380.049 265.888 379.928 261.001 380.039 256.543V256.541Z" fill="var(--fill-0, #BC6007)"/>
<path d="M48.7239 253.134L48.0595 253.465C48.9831 265.827 17.808 319.046 19.4707 331.37C19.4707 329.501 56.4826 285.298 58.1069 283.719C65.449 276.822 73.993 270.951 79.9008 264.368L77.7946 265.263L48.7219 253.134H48.7239Z" fill="var(--fill-0, #BC6007)"/>
</g>
</g>
<path id="land" d="M960 400H0V333.003C323.191 208.385 643.164 209.614 960 333.003V400Z" fill="var(--fill-0, black)"/>
<g id="Container_2">
<path id="Vector_4" d="M558.362 61.7934C567.411 64.9042 572.228 49.7735 572.406 49.2037C572.321 49.4652 571.042 52.7598 559.803 53.5072C554.401 53.8684 552.361 50.1846 549.717 49.5462C545.283 48.475 542.512 50.2655 542.512 50.2655L542.761 58.6826C542.617 58.4926 542.396 58.3712 542.141 58.3712C541.711 58.3712 541.362 58.7199 541.362 59.1496V73.1095L517.488 108.235C516.283 108.484 515.264 108.848 514.738 109.284C514.361 109.599 514.352 110.801 514.576 112.514L514.508 112.613C514.508 112.613 514.542 112.651 514.604 112.716C514.928 115.064 515.663 118.306 516.488 121.56L497.963 121.93C502.229 108.244 513.452 71.6802 511.932 70.6682C510.914 69.9893 507.205 68.8465 503.59 68.3545L478.769 24.1674V12.3344C480.721 11.2196 485.068 9.87436 492.968 12.5897C502.018 15.7006 506.835 0.569854 507.012 0C506.928 0.261573 505.648 3.55614 494.41 4.30349C489.007 4.66471 486.968 0.980897 484.324 0.342535C479.89 -0.728666 477.118 1.06186 477.118 1.06186L477.305 7.40499C477.249 7.51398 477.212 7.63543 477.212 7.76621V25.7338L455.548 71.6989C453.655 71.5432 451.223 71.7767 448.096 72.5366L459.546 122.696L438.947 123.107C440.508 116.839 441.909 110.091 440.934 109.278C439.813 108.344 436.559 107.746 434.003 107.889L413.687 78.3379V64.4216C415.232 63.3068 419.619 61.2204 428.509 64.2783C437.559 67.3892 442.376 52.2585 442.553 51.6886C442.469 51.9502 441.19 55.2447 429.951 55.9921C424.549 56.3533 422.509 52.6695 419.865 52.0311C415.434 50.9599 412.659 52.7505 412.659 52.7505L412.899 60.8561C412.476 60.8623 412.133 61.208 412.133 61.6346V79.026C408.976 84.1454 398.805 100.665 393.608 109.524C391.073 109.484 388 110.215 388 110.215L394.851 134.504L389.865 260H434.395L434.554 247.233L521.471 250.77L521.586 260H566.115L561.133 134.507L567.984 110.219C567.984 110.219 566.178 109.789 564.191 109.608C559.735 101.758 546.865 80.8415 542.916 74.4361V62.466C543.383 61.9771 547.537 58.0753 558.362 61.7965V61.7934Z" fill="var(--fill-0, #736554)"/>
<g id="Vector_5">
<path d="M415.4 148.209C411.974 149.143 412.597 162.844 412.597 162.844L419.448 161.91C419.759 157.551 418.825 147.275 415.4 148.209Z" fill="var(--fill-0, white)"/>
<path d="M539.335 145.718C535.91 146.652 536.533 160.353 536.533 160.353L543.383 159.419C543.695 155.06 542.761 144.784 539.335 145.718Z" fill="var(--fill-0, white)"/>
<path d="M484.218 107.727C484.53 103.368 483.595 93.0918 480.17 94.026C476.745 94.9602 477.368 108.662 477.368 108.662L484.218 107.727Z" fill="var(--fill-0, white)"/>
<path d="M450.587 140.113C446.228 140.113 447.162 152.88 447.162 153.814H453.701C453.701 153.814 454.947 140.113 450.587 140.113Z" fill="var(--fill-0, white)"/>
<path d="M473.008 140.113C468.96 140.735 470.205 153.814 470.205 153.814H477.368C477.368 153.814 477.056 139.49 473.008 140.113Z" fill="var(--fill-0, white)"/>
<path d="M500.411 140.113C497.297 140.735 498.231 152.257 498.231 152.88H504.148C504.148 148.52 503.525 139.49 500.411 140.113Z" fill="var(--fill-0, white)"/>
<path d="M449.342 171.252C445.605 171.564 446.228 182.151 446.228 183.708H452.456C452.456 183.708 453.079 170.941 449.342 171.252Z" fill="var(--fill-0, white)"/>
<path d="M468.026 182.151H474.254C474.876 172.498 473.319 169.384 470.517 169.384C467.714 169.384 468.026 182.151 468.026 182.151Z" fill="var(--fill-0, white)"/>
<path d="M473.631 199.901C458.061 201.458 462.997 242.16 462.997 242.16L485.47 243.076C485.47 243.076 489.204 198.344 473.634 199.901H473.631Z" fill="var(--fill-0, white)"/>
<path d="M551.947 181.78H544.473C542.393 181.78 542.39 185.013 544.473 185.013H551.947C554.027 185.013 554.03 181.78 551.947 181.78Z" fill="var(--fill-0, white)"/>
<path d="M551.48 194.392H545.875C543.795 194.392 543.791 197.624 545.875 197.624H551.48C553.56 197.624 553.563 194.392 551.48 194.392Z" fill="var(--fill-0, white)"/>
<path d="M537 214.01H530.928C528.848 214.01 528.844 217.242 530.928 217.242H537C539.08 217.242 539.083 214.01 537 214.01Z" fill="var(--fill-0, white)"/>
<path d="M550.546 224.753H546.809C544.729 224.753 544.726 227.985 546.809 227.985H550.546C552.626 227.985 552.629 224.753 550.546 224.753Z" fill="var(--fill-0, white)"/>
<path d="M423.963 228.484C422.204 228.614 420.504 228.49 418.794 228.06C416.776 227.556 415.914 230.673 417.935 231.177C419.912 231.672 421.93 231.865 423.963 231.716C426.025 231.563 426.043 228.331 423.963 228.484Z" fill="var(--fill-0, white)"/>
<path d="M407.229 213.2C405.946 213.179 404.663 213.157 403.377 213.138C401.297 213.104 401.297 216.336 403.377 216.37C404.66 216.392 405.943 216.414 407.229 216.433C409.309 216.467 409.309 213.235 407.229 213.2Z" fill="var(--fill-0, white)"/>
<path d="M532.79 174.232C533.655 174.12 534.406 173.569 534.406 172.616C534.406 171.828 533.662 170.888 532.79 171C531.342 171.187 529.928 171.149 528.508 170.81C526.484 170.33 525.621 173.448 527.649 173.927C529.343 174.329 531.062 174.453 532.79 174.232Z" fill="var(--fill-0, white)"/>
<path d="M430.499 189.41C428.011 189.621 425.526 189.684 423.029 189.687C420.949 189.687 420.946 192.919 423.029 192.919C425.526 192.919 428.008 192.857 430.499 192.642C432.558 192.468 432.576 189.232 430.499 189.41Z" fill="var(--fill-0, white)"/>
<path d="M418.922 173.899C418.922 174.858 419.666 175.412 420.538 175.515C421.927 175.677 423.34 175.518 424.735 175.5C426.812 175.468 426.819 172.236 424.735 172.267C423.343 172.286 421.927 172.448 420.538 172.283C419.669 172.18 418.922 173.099 418.922 173.899Z" fill="var(--fill-0, white)"/>
<path d="M407.148 244.838H401.076C398.995 244.838 398.992 248.07 401.076 248.07H407.148C409.228 248.07 409.231 244.838 407.148 244.838Z" fill="var(--fill-0, white)"/>
<path d="M521.897 137.369H531.862C533.942 137.369 533.945 134.137 531.862 134.137H521.897C519.817 134.137 519.814 137.369 521.897 137.369Z" fill="var(--fill-0, white)"/>
<path d="M557.085 134.448H539.024C536.944 134.448 536.941 137.681 539.024 137.681H557.085C559.165 137.681 559.168 134.448 557.085 134.448Z" fill="var(--fill-0, white)"/>
<path d="M477.28 126.159C479.36 126.159 479.364 122.927 477.28 122.927H461.798C459.718 122.927 459.715 126.159 461.798 126.159H477.28Z" fill="var(--fill-0, white)"/>
<path d="M487.955 122.927H483.284C481.204 122.927 481.201 126.159 483.284 126.159H487.955C490.035 126.159 490.038 122.927 487.955 122.927Z" fill="var(--fill-0, white)"/>
<path d="M433.367 133.825H402.633C400.552 133.825 400.549 137.058 402.633 137.058H433.367C435.447 137.058 435.451 133.825 433.367 133.825Z" fill="var(--fill-0, white)"/>
<path d="M519.035 183.708V236.957C519.035 239.037 522.268 239.04 522.268 236.957V183.708C522.268 181.628 519.035 181.625 519.035 183.708Z" fill="var(--fill-0, white)"/>
<path d="M433.402 207.374V235.711C433.402 237.791 436.634 237.794 436.634 235.711V207.374C436.634 205.294 433.402 205.291 433.402 207.374Z" fill="var(--fill-0, white)"/>
</g>
</g>
<path id="tree1" fill-rule="evenodd" clip-rule="evenodd" d="M754.305 262.69C753.775 261.522 752.019 261.185 750.888 260.956C750.504 260.884 748.928 260.631 748.447 260.378C748.952 259.101 749.12 257.668 748.266 256.488C746.618 254.188 741.867 254.236 739.426 254.983C737.513 255.573 734.374 257.62 732.413 257.355C730.501 257.102 729.442 254.441 727.481 253.935C725.545 253.441 723.969 253.983 722.658 255.26C722.237 254.862 721.708 254.405 721.263 253.947C722.959 252.96 724.619 251.852 726.05 250.491C726.676 249.889 727.253 249.25 727.758 248.54C728.781 247.095 729.43 245.505 729.562 243.759C731.475 243.085 733.88 243.374 735.661 242.519C738.391 241.194 739.029 238.352 741.037 236.461C742.18 235.389 743.503 234.727 744.586 233.499C746.486 231.355 745.355 228.019 742.192 228.766C738.391 229.669 737.561 232.005 736.43 235.377C735.697 237.545 733.616 238.075 731.643 238.689C730.753 238.966 729.863 239.255 729.033 239.689C728.516 238.051 727.662 236.509 726.748 235.088C726.748 235.076 726.724 235.064 726.724 235.052C727.024 234.896 727.325 234.763 727.626 234.595C728.6 234.041 729.526 233.378 730.308 232.559C731.751 231.018 732.401 229.163 732.341 227.056C732.293 225.659 730.428 223.588 730.621 222.793C730.633 222.708 730.693 222.636 730.777 222.576C731.463 221.986 734.085 223.058 735.528 222.48C736.479 222.094 737.525 221.311 737.549 220.192C737.585 217.747 733.147 217.398 731.511 217.313C727.133 217.121 724.703 218.518 724.871 223.383C725.016 227.574 725.87 228.236 723.861 230.307C723.837 230.163 723.813 230.018 723.813 229.874C724.138 222.166 717.967 221.191 717.991 225.827C717.991 227.899 718.869 230.392 719.675 232.306C719.795 232.595 719.928 232.872 720.06 233.149C718.821 233.764 717.522 234.318 716.584 235.45C715.982 236.172 715.67 236.991 715.597 237.918C715.561 238.039 715.441 238.207 715.261 238.388C715.297 237.979 715.261 237.557 715.225 237.124C714.852 233.872 713.048 230.777 712.831 227.586C712.747 226.369 714.178 225.49 715.008 224.828C715.489 224.443 715.958 224.033 716.343 223.563C717.354 222.287 716.969 220.204 718.46 219.638C724.15 218.758 721.01 211.75 715.994 212.99C715.85 213.014 715.718 213.062 715.597 213.122C714.022 213.797 712.879 216.518 711.953 217.927C711.207 219.059 710.113 220.059 709.271 221.131C708.381 216.386 703.377 218.084 702.378 221.974C702.27 222.371 701.825 224.033 701.44 224.503C700.971 223.973 700.153 221.781 699.961 221.287C699.66 220.517 699.155 219.096 698.433 218.132C700.261 215.88 703.762 215.362 705.037 211.75C705.59 210.208 706.312 206.957 704.243 206.138C703.377 205.788 702.451 206.15 701.777 206.704C700.875 207.438 700.237 208.546 699.816 209.606C699.155 211.256 698.806 212.641 697.062 213.411C693.357 215.061 692.202 218.409 692.202 222.251C692.202 223.624 690.891 223.696 689.809 223.72C689.508 223.72 689.219 223.72 688.931 223.72C688.907 223.455 688.895 223.202 688.895 222.949C688.895 218.361 684.565 215.989 683.566 211.978L683.434 211.424H682.869C681.461 211.424 678.863 211.521 678.334 213.183C677.829 214.76 679.645 216.795 680.595 217.903C681.257 218.674 682.219 219.698 682.7 220.577C683.891 222.733 684.396 224.708 684.601 227.008C684.42 227.032 684.252 227.056 684.083 227.092C683.422 227.224 682.784 227.393 682.147 227.574C681.762 227.682 681.341 227.827 680.932 227.911C680.078 228.091 679.38 225.117 677.973 224.816C677.54 224.732 677.095 224.768 676.71 224.96C675.76 225.418 675.471 226.478 675.567 227.465C675.507 227.369 675.447 227.261 675.375 227.164C675.194 226.803 675.194 224.467 675.182 223.961C675.122 222.648 675.002 220.493 673.691 219.782C672.933 219.385 672.548 218.939 671.574 218.927C669.95 218.903 668.904 220.517 668.29 221.817C667.857 222.708 667.881 223.768 668.17 224.695C669.036 227.525 672.236 230.416 672.236 233.198C672.236 234.101 670.768 235.281 669.818 236.196C668.495 234.92 666.931 234.378 664.982 234.859C663.034 235.353 661.963 238.039 660.051 238.292C658.09 238.545 654.951 236.509 653.038 235.907C650.597 235.161 645.845 235.1 644.198 237.413C643.356 238.593 643.512 240.026 644.017 241.302C643.536 241.543 641.96 241.796 641.575 241.868C640.433 242.085 638.677 242.434 638.147 243.59C638.063 243.795 638.015 244.012 638.003 244.229C637.991 244.518 638.015 244.807 638.075 245.084C638.46 246.962 640.252 248.251 642.093 248.48C644.667 248.793 646.687 247.167 647.902 245.048C648.732 243.59 650.705 240.255 652.786 240.568C653.94 240.748 655.24 241.977 656.118 242.711C657.092 243.518 658.138 244.325 659.389 244.638C660.64 244.963 661.807 244.698 662.902 244.072C663.575 243.687 664.08 242.796 664.501 242.169C664.682 241.88 665.319 240.857 665.68 240.809C665.716 240.809 665.74 240.809 665.764 240.809C667.22 241.314 667.857 242.603 668.326 244.168C668.122 244.024 667.905 243.879 667.653 243.783C667.123 243.578 666.522 243.518 666.017 243.831C664.718 244.662 665.199 247.577 665.355 248.877C665.415 249.407 665.74 251.731 665.572 252.418C665.007 252.177 663.828 250.924 663.551 250.623C660.797 247.637 655.48 248.54 657.128 253.297L657.152 253.357L657.585 254.164L657.609 254.2C658.066 254.898 659.04 255.043 659.81 255.115C660.7 255.212 661.59 255.236 662.481 255.38C663.816 255.609 665.031 256.079 665.512 257.464C666.065 259.065 667.027 260.33 668.687 260.823C669.493 261.064 670.335 261.088 671.165 261.064C672.139 261.028 674.052 260.739 674.906 261.209C675.267 261.414 675.471 261.751 675.603 262.124C675.928 263.063 676.157 263.979 676.301 264.966C676.385 265.544 676.433 266.207 676.782 266.688C677.311 267.423 678.478 267.604 679.32 267.76C679.404 267.772 679.477 267.808 679.549 267.844C679.934 268.085 680.258 269.049 680.511 270H721.383C724.414 266.724 723.211 261.064 726.7 259.86C726.724 259.86 726.748 259.848 726.784 259.86C727.145 259.908 727.782 260.944 727.975 261.221C728.384 261.859 728.901 262.738 729.574 263.124C730.681 263.762 731.848 264.015 733.099 263.702C734.338 263.389 735.396 262.57 736.37 261.763C737.248 261.028 738.559 259.788 739.702 259.619C741.795 259.294 743.768 262.654 744.598 264.099C745.813 266.231 747.845 267.844 750.407 267.531C752.236 267.302 754.028 266.014 754.425 264.147C754.485 263.87 754.509 263.581 754.497 263.292C754.497 263.075 754.437 262.859 754.341 262.654L754.305 262.69ZM707.671 257.945C709.114 256.536 710.858 254.838 711.279 252.779C711.339 252.466 711.376 252.153 711.376 251.84C711.376 250.431 711.159 249.13 710.87 247.781C713.18 246.577 715.489 245.758 717.281 244.277C717.257 245.096 717.221 246.035 717.113 246.252C716.355 247.444 715.561 248.937 715.14 250.455C714.804 250.659 714.503 250.852 714.262 251.033C710.87 253.574 709.198 260.522 708.802 264.629C708.705 265.737 708.645 267.074 708.729 268.398C708.681 268.362 708.633 268.326 708.585 268.29C707.527 267.555 706.324 266.845 705.434 265.893C704.808 265.231 704.411 264.497 704.219 263.605C703.738 261.45 706.324 259.27 707.683 257.945H707.671ZM687.139 258.511C686.766 256.548 686.092 253.815 684.865 251.587C685.286 251.466 685.707 251.334 686.128 251.189C686.128 251.454 686.104 251.719 686.104 251.984C686.104 257.102 689.568 262.389 692.972 266.387C692.756 266.881 692.503 267.435 692.263 268.025C688.161 266.122 688.353 264.894 687.139 258.511ZM721.239 237.738C721.527 237.497 721.912 237.28 722.309 237.075C722.875 237.966 723.464 238.894 723.825 239.869C723.909 240.098 723.945 240.327 724.005 240.556C723.38 239.363 722.418 238.039 720.974 238.015C721.058 237.918 721.143 237.798 721.227 237.726L721.239 237.738ZM679.753 259.427C679.922 259.174 680.258 258.981 680.655 258.812C680.619 259.631 680.535 260.45 680.535 261.052C680.535 261.317 680.535 261.57 680.547 261.823C679.994 261.004 679.416 259.944 679.753 259.427ZM696.1 224.635C696.641 225.743 697.916 227.935 698.084 228.983C698.205 229.705 697.038 230.946 696.545 231.379C696.16 231.716 694.512 232.945 693.959 232.68C693.177 232.306 692.383 232.198 691.553 232.126C691.517 232.126 691.469 232.126 691.433 232.126C691.18 230.861 690.687 229.681 690.194 228.477C693.333 228.104 695.029 226.827 696.112 224.647L696.1 224.635ZM691.216 237.28C691.613 237.244 691.974 237.256 692.227 237.4C693.032 237.834 692.611 240.375 692.491 241.025C692.371 241.7 691.565 241.784 691.096 242.507C690.627 240.592 690.915 238.99 691.216 237.28ZM691.806 249.467C691.854 248.998 691.89 248.528 691.914 248.034C691.962 248.167 692.022 248.299 692.058 248.42C692.19 248.805 693.177 251.611 692.72 251.888C692.539 251.984 692.407 252.117 692.287 252.273C692.227 252.37 692.178 252.466 692.142 252.562C691.854 251.514 691.685 250.467 691.794 249.455L691.806 249.467ZM699.095 257.608C699.047 257.415 698.998 257.211 698.938 257.018C698.626 256.006 698.156 255.055 697.687 254.104C697.567 253.839 697.074 252.887 697.026 252.574C697.399 251.43 697.302 250.238 697.074 249.082C696.894 248.215 695.991 245.493 696.412 244.759C696.46 244.686 696.509 244.626 696.581 244.578C697.23 244.048 698.193 243.338 698.313 242.434C698.385 241.832 698.12 241.23 697.916 240.676C697.579 239.737 697.351 238.834 697.194 237.846C697.122 237.449 697.158 237.051 697.363 236.702C697.88 235.883 699.72 235.221 700.586 234.799C701.332 234.426 702.066 234.004 702.655 233.426C703.894 232.198 704.147 230.62 703.87 228.947C703.641 227.501 704.495 226.514 705.566 225.683C706.179 225.201 706.841 224.816 707.478 224.382C707.262 225.021 707.081 225.671 706.985 226.381C706.336 228.465 707.286 230.488 708.26 232.294C708.922 233.523 710.185 235.51 710.04 236.943C709.884 238.496 708.044 239.46 706.781 240.002C703.473 241.423 704.495 247.107 705.337 249.768C706.047 251.984 703.064 254.104 701.621 255.296C700.803 255.958 699.877 256.729 699.095 257.596V257.608ZM674.509 252.948C675.459 253.2 676.951 253.598 678.226 254.224C678.105 254.308 677.985 254.381 677.865 254.465C677.155 254.935 676.518 255.404 676 256.091C675.64 256.584 673.619 256.283 673.114 256.163C672.476 256.006 670.864 255.477 670.624 254.778C670.275 253.754 670.371 251.117 670.323 249.925C671.153 251.262 672.392 252.382 674.521 252.936L674.509 252.948ZM714.022 266.785C714.022 266.375 714.022 265.966 713.998 265.556C713.841 261.871 714.503 259.39 716.969 256.849C717.859 257.801 718.737 258.499 720.048 259.174C719.771 259.704 719.519 260.245 719.254 260.787C718.208 262.931 716.704 266.411 714.022 266.785ZM677.528 231.596C679.356 233.896 682.315 233.342 684.829 232.716C684.937 234.378 685.142 236.028 685.671 237.846C686.044 239.135 686.333 240.339 686.489 241.555C686.465 241.567 686.453 241.579 686.429 241.591C685.322 242.519 686.116 245.481 685.286 245.722C684.901 245.83 684.444 245.903 684.047 245.999C683.398 246.131 682.748 246.288 682.123 246.481C681.281 246.746 680.294 247.143 679.609 247.745C679.465 247.745 679.332 247.733 679.176 247.745C676.024 247.974 674.352 244.036 673.21 241.712C672.957 241.17 672.693 240.64 672.416 240.098C674.244 239.159 675.219 238.195 676.59 236.521C677.841 234.992 677.841 233.113 677.323 231.307C677.396 231.403 677.468 231.512 677.552 231.596H677.528Z" fill="var(--fill-0, black)"/>
<path id="tree2" d="M96.9012 259.675C97.7732 258.252 99.1684 257.259 100.604 256.494C102.656 255.287 104.91 254.441 107.137 253.609C108.787 252.979 110.545 252.777 112.302 252.911C114.073 253.046 115.817 253.529 117.44 254.227C120.646 255.609 123.571 257.836 125.677 260.627C127.528 263.083 128.615 265.673 129.554 268.33C130.533 268.598 131.566 268.706 132.626 268.612C133.096 268.572 133.565 268.505 134.035 268.424C133.86 267.471 133.699 266.519 133.512 265.566C133.284 264.345 132.975 263.137 132.465 262.063C132.022 261.205 131.446 260.48 130.802 259.849C128.977 258.064 126.656 256.038 124.537 254.857C124.523 254.777 124.657 254.696 124.657 254.643C126.576 254.186 130.453 256.213 132.237 256.991C133.351 257.514 134.384 258.252 135.269 259.259C136.409 260.493 137.254 262.117 137.858 263.848C138.287 264.922 138.69 266.035 139.079 267.163C140.608 266.773 142.138 266.465 143.707 266.344C143.654 265.861 143.6 265.378 143.546 264.881C143.385 263.513 143.104 262.171 142.527 260.909C142.285 260.373 141.99 259.849 141.682 259.339C140.93 258.172 139.991 257.112 139.012 256.132C137.818 254.911 136.409 253.972 134.786 253.448C133.109 252.938 131.338 252.831 129.594 252.724C127.475 252.603 125.355 252.482 123.303 251.918C120.713 251.167 118.983 249.651 116.85 248.148C116.85 248.081 116.997 248.04 116.997 248C119.265 248.134 121.304 249.785 123.772 249.825C125.717 249.879 127.649 249.53 129.567 249.221C131.647 248.886 133.74 248.617 135.846 248.859C138.489 249.127 140.944 250.201 143.01 251.851C145.183 253.542 147.182 255.501 148.631 257.863C149.717 259.742 150.388 261.795 150.804 263.915C151.059 265.19 151.233 266.478 151.448 267.753C153.004 268.505 154.453 269.511 155.768 270.692C158.732 273.497 160.624 277.147 162.368 280.797C163.2 282.541 164.058 284.125 164.353 285.936C166.071 287.949 169.183 291.425 167.466 294.243C167.157 294.699 166.621 294.779 165.963 294.632C166.124 295.276 166.178 295.947 166.071 296.658C165.36 300.308 153.272 295.464 151.676 294.833C150.281 294.269 148.939 293.585 147.665 292.78C144.593 293.518 141.588 294.551 138.636 295.638C138.126 295.826 137.603 296.014 137.093 296.175C134.531 296.994 131.848 297.517 129.152 297.329C126.603 297.181 124.188 296.363 122.041 294.967C120.579 293.988 119.265 292.619 117.963 291.21C116.259 290.217 114.663 289.049 112.745 288.446C111.457 288.056 110.129 287.775 108.774 287.801C107.768 287.842 106.788 288.097 105.876 288.513C103.622 289.573 101.033 291.532 99.4501 293.505C99.383 293.505 99.3428 293.344 99.3159 293.357C99.5708 291.076 103.019 287.654 104.628 286.312C105.728 285.426 106.99 284.769 108.371 284.433C110.142 283.937 111.993 283.964 113.791 284.218C116.568 284.688 118.929 286.111 121.612 286.768C122.39 286.969 123.168 286.969 123.96 286.808C124.738 286.594 125.503 286.285 126.24 285.936C125.368 285.574 124.51 285.185 123.678 284.702C121.478 283.333 119.801 281.28 118.084 279.388C117.386 278.609 116.662 277.844 115.884 277.16C115.455 276.798 114.891 276.341 114.395 276.154C113.375 275.899 112.329 275.845 111.323 276.113C110.357 276.382 109.471 276.892 108.666 277.482C107.794 278.113 106.99 278.837 106.131 279.495C105.675 279.844 105.192 280.166 104.669 280.421C104.011 280.729 103.314 280.877 102.576 280.85C102.509 280.823 102.804 280.756 102.576 280.636C103.233 280.421 103.823 280.287 104.4 279.871C104.816 279.549 105.178 279.146 105.527 278.743C106.198 277.858 106.815 276.945 107.553 276.113C108.358 275.134 109.31 274.275 110.437 273.671C111.846 272.879 113.456 272.597 115.066 272.718C116.219 272.826 117.319 273.309 118.312 273.899C119.399 274.516 120.405 275.281 121.384 276.06C122.793 277.2 124.242 278.649 125.919 279.455C125.838 279.267 125.744 279.079 125.664 278.878C124.805 276.623 124.322 274.315 123.745 272.02C123.745 272.02 123.718 272.007 123.718 271.994C121.72 270.45 119.654 268.974 117.453 267.726C115.696 266.747 113.791 265.848 111.779 265.552C111.041 265.458 110.29 265.445 109.552 265.606C108.827 265.767 108.157 266.089 107.566 266.532C106.735 267.149 106.091 267.981 105.567 268.853C104.816 270.088 104.052 271.685 103.944 273.161C103.891 273.215 103.797 273.067 103.743 273.121C103.354 272.383 103.461 271.215 103.676 270.128L103.327 270.665L103.689 270.034C103.837 269.296 104.038 268.612 104.186 268.115C104.602 266.908 105.178 265.74 105.983 264.734C106.721 263.875 107.633 263.177 108.666 262.707C109.713 262.238 110.853 261.996 112.007 261.943C114.596 261.795 117.185 262.493 119.586 263.432C119.774 263.499 119.949 263.58 120.137 263.66C118.835 261.768 117.051 260.171 115.052 259.031C113.992 258.427 112.852 257.957 111.645 257.716C110.585 257.501 109.498 257.474 108.425 257.716C106.265 258.266 104.092 258.762 101.986 259.514C100.912 259.916 99.7855 260.399 98.994 261.245C98.2159 262.077 97.9208 263.204 97.7598 264.304C97.4244 266.465 97.4378 268.988 97.961 271.135C97.9342 271.202 97.7598 271.148 97.7598 271.162C96.4451 269.565 96.1768 266.076 96.0024 264.13C95.9755 262.573 96.1633 260.99 96.9817 259.634L96.9012 259.675ZM143.882 277.603C144.016 277.804 144.177 277.979 144.311 278.166C145.009 278.059 145.706 277.952 146.417 277.898C146.457 277.898 146.511 277.898 146.551 277.898C146.431 277.683 146.31 277.469 146.189 277.227C145.652 276.086 145.263 274.946 144.955 273.792C143.882 273.738 142.808 273.845 141.749 274.02C142.366 275.295 143.05 276.516 143.895 277.589L143.882 277.603ZM132.505 276.154C132.72 276.637 133.002 277.106 133.377 277.482C133.78 277.871 134.276 278.14 134.799 278.354C135.349 278.569 135.926 278.73 136.503 278.864C136.06 277.656 135.698 276.408 135.376 275.134C134.437 275.241 133.498 275.308 132.546 275.281C132.398 275.281 132.264 275.254 132.116 275.254C132.251 275.55 132.358 275.845 132.505 276.154ZM136.074 289.465C137.737 288.553 139.468 287.734 141.239 287.01C140.997 287.01 140.756 286.996 140.501 286.983C137.187 288.097 133.995 289.64 130.882 291.103C130.158 291.438 129.407 291.733 128.655 292.002C128.83 292.002 129.004 292.002 129.178 291.975C131.593 291.545 133.887 290.552 136.074 289.465Z" fill="var(--fill-0, black)"/>
</g>
</svg>
