<svg width="200" height="96" viewBox="0 0 200 96" fill="none" xmlns="http://www.w3.org/2000/svg">
<path d="M47.9407 0H152.058C178.518 0 200 21.509 200 48C200 74.4927 178.518 96 152.059 96H47.9407C21.4825 96.0017 0 74.4927 0 48C0 21.509 21.4825 0 47.9407 0Z" fill="black"/>
<path d="M47.7117 93C35.7686 93 24.5412 88.3198 16.0957 79.8198C7.65026 71.3199 3 60.0201 3 48C3 35.9799 7.65026 24.6801 16.0957 16.1802C24.5412 7.68025 35.7686 3 47.7117 3H152.288C164.231 3 175.459 7.68025 183.904 16.1802C192.35 24.6801 197 35.9799 197 48C197 60.0201 192.35 71.3216 183.904 79.8198C175.459 88.3198 164.231 93 152.288 93H47.7117Z" fill="#2D6B58"/>
<path d="M137.989 78H62.0112C44.36 78 30 64.5422 30 48C30 31.4578 44.36 18 62.0112 18H137.989C155.64 18 170 31.4578 170 48C170 64.5422 155.64 78 137.989 78ZM62.0112 18.8123C44.8401 18.8123 30.869 31.9057 30.869 47.998C30.869 64.0903 44.8401 77.1836 62.0112 77.1836H137.989C155.16 77.1836 169.131 64.0903 169.131 47.998C169.131 31.9057 155.16 18.8123 137.989 18.8123H62.0112Z" fill="#539C85"/>
</svg>
