<?xml version="1.0" encoding="UTF-8"?>
<svg id="Layer_2" data-name="Layer 2" xmlns="http://www.w3.org/2000/svg" viewBox="0 0 99.62 129.35">
  <defs>
    <style>
      .cls-1 {
        fill: #e6e6e6;
      }

      .cls-2 {
        fill: #fff;
      }

      .cls-3 {
        fill: #f2f2f2;
      }

      .cls-4 {
        fill: #1a1a1a;
      }
    </style>
  </defs>
  <g id="Cards">
    <g>
      <rect class="cls-3" width="99.62" height="129.35" rx="16.65" ry="16.65"/>
      <rect class="cls-2" x="4.17" y="4.17" width="91.28" height="121.01" rx="12.48" ry="12.48"/>
      <rect class="cls-1" x="19.56" y="17.93" width="60.5" height="92.57" rx="12.48" ry="12.48"/>
      <g>
        <path class="cls-4" d="M49.81,43.04c.71,0,1.41.13,2.07.38,4.03,1.52,17.35,7.49,19.55,20.67.39,1.81.37,3.65-.08,5.46-1.27,5.11-6.64,9.11-12.22,9.11,0,0-.19,0-.29,0-.99-.03-1.93-.15-2.82-.35.76.62,1.68,1.12,2.77,1.43.41.11.8.22,1.18.32.69.19,1.35.36,2.04.57,1.17.36,1.88,1.49,1.7,2.7-.18,1.2-1.19,2.08-2.41,2.08h-22.98c-1.22,0-2.23-.87-2.41-2.08-.18-1.21.54-2.34,1.7-2.7.69-.21,1.35-.39,2.04-.57.38-.1.77-.21,1.18-.32,1.1-.31,2.01-.81,2.77-1.43-.88.21-1.82.33-2.82.35-.1,0-.19,0-.29,0-5.59,0-10.96-4-12.22-9.11-.45-1.81-.48-3.64-.08-5.46,2.2-13.18,15.52-19.15,19.55-20.67.67-.25,1.36-.38,2.07-.38M49.81,42c-.84,0-1.66.15-2.44.44-4.16,1.56-17.9,7.73-20.21,21.45-.42,1.96-.39,3.95.1,5.9,1.18,4.75,5.61,8.63,10.66,9.64-.2.06-.41.12-.62.18-1.66.51-2.69,2.13-2.43,3.85.26,1.72,1.71,2.97,3.45,2.97h22.98c1.74,0,3.19-1.25,3.45-2.97.26-1.72-.76-3.34-2.43-3.85-.21-.06-.41-.12-.62-.18,5.05-1.01,9.48-4.89,10.66-9.64.48-1.96.52-3.94.1-5.9-2.3-13.71-16.05-19.88-20.21-21.45-.78-.29-1.6-.44-2.44-.44h0Z"/>
        <path class="cls-4" d="M69.38,64.48c-1.98-12.03-14.14-17.57-18.23-19.11-.43-.16-.89-.24-1.34-.24s-.91.08-1.34.24c-4.09,1.54-16.26,7.08-18.23,19.11-.32,1.43-.34,2.97.06,4.56,1.09,4.38,5.93,7.64,10.44,7.52,3.75-.1,7.08-1.74,8.38-5.73.06-.17.31-.11.29.06-.35,2.97-1.97,9.15-8.01,10.84-1.13.32-2.13.56-3.17.88-.39.12-.31.7.1.7h22.98c.41,0,.49-.58.1-.7-1.05-.32-2.04-.56-3.17-.88-6.03-1.69-7.66-7.87-8.01-10.84-.02-.18.23-.23.29-.06,1.3,3.99,4.63,5.64,8.38,5.73,4.51.12,9.35-3.14,10.44-7.52.4-1.59.38-3.13.06-4.56Z"/>
      </g>
      <g>
        <path class="cls-4" d="M31.14,31.18l-8.85.61c-.44-1.26-1.02-3.04-1.02-3.04l-6.25.23s-.38,1.2-.67,2.43l-5.9.23,7.6-18.67-1.14-2.31c2.92-.79,4.91-1.29,7.19-2.16l9.06,22.67ZM19.8,24.38l-1.75-5.52-1.69,5.81,3.45-.29Z"/>
        <path class="cls-4" d="M68.39,98.3l8.85-.61c.44,1.26,1.02,3.04,1.02,3.04l6.25-.23s.38-1.2.67-2.43l5.9-.23-7.6,18.67,1.14,2.31c-2.92.79-4.91,1.29-7.19,2.16l-9.06-22.67ZM79.73,105.1l1.75,5.52,1.69-5.81-3.45.29Z"/>
        <path class="cls-4" d="M26.9,42.65c-.74-4.51-5.3-6.59-6.84-7.16-.16-.06-.33-.09-.5-.09s-.34.03-.5.09c-1.53.58-6.1,2.65-6.84,7.16-.12.54-.13,1.11.02,1.71.41,1.64,2.22,2.86,3.91,2.82,1.41-.04,2.65-.65,3.14-2.15.02-.06.12-.04.11.02-.13,1.11-.74,3.43-3,4.06-.42.12-.8.21-1.19.33-.15.05-.12.26.04.26h8.62c.15,0,.18-.22.04-.26-.39-.12-.77-.21-1.19-.33-2.26-.63-2.87-2.95-3-4.06,0-.07.09-.09.11-.02.49,1.5,1.73,2.11,3.14,2.15,1.69.04,3.51-1.18,3.91-2.82.15-.6.14-1.17.02-1.71Z"/>
        <path class="cls-4" d="M72.73,86.82c.74,4.51,5.3,6.59,6.84,7.16.16.06.33.09.5.09s.34-.03.5-.09c1.53-.58,6.1-2.65,6.84-7.16.12-.54.13-1.11-.02-1.71-.41-1.64-2.22-2.86-3.91-2.82-1.41.04-2.65.65-3.14,2.15-.02.06-.12.04-.11-.02.13-1.11.74-3.43,3-4.06.42-.12.8-.21,1.19-.33.15-.05.12-.26-.04-.26h-8.62c-.15,0-.18.22-.04.26.39.12.77.21,1.19.33,2.26.63,2.87,2.95,3,4.06,0,.07-.09.09-.11.02-.49-1.5-1.73-2.11-3.14-2.15-1.69-.04-3.51,1.18-3.91,2.82-.15.6-.14,1.17-.02,1.71Z"/>
      </g>
    </g>
  </g>
</svg>