<?xml version="1.0" encoding="UTF-8"?>
<svg id="Layer_2" data-name="Layer 2" xmlns="http://www.w3.org/2000/svg" viewBox="0 0 100.12 130">
  <defs>
    <style>
      .cls-1 {
        fill: #e6e6e6;
      }

      .cls-2 {
        fill: #fff;
      }

      .cls-3 {
        fill: #f2f2f2;
      }

      .cls-4 {
        fill: #1a1a1a;
      }
    </style>
  </defs>
  <g id="Cards">
    <g>
      <rect class="cls-3" width="100.12" height="130" rx="16.74" ry="16.74"/>
      <rect class="cls-2" x="4.19" y="4.19" width="91.73" height="121.61" rx="12.54" ry="12.54"/>
      <g>
        <rect class="cls-1" x="19.66" y="18.02" width="60.81" height="93.04" rx="12.54" ry="12.54"/>
        <path class="cls-4" d="M69.73,64.8c-1.99-12.09-14.21-17.66-18.32-19.2-.43-.16-.89-.25-1.35-.25s-.91.08-1.35.25c-4.11,1.55-16.34,7.11-18.32,19.2-.32,1.43-.34,2.98.06,4.58,1.09,4.4,5.96,7.67,10.49,7.56,3.77-.1,7.11-1.75,8.42-5.76.06-.17.31-.11.29.06-.35,2.99-1.98,9.2-8.05,10.89-1.14.32-2.14.56-3.19.88-.39.12-.31.7.1.7h11.55s11.55,0,11.55,0c.41,0,.49-.58.1-.7-1.05-.32-2.05-.57-3.19-.88-6.06-1.7-7.7-7.91-8.05-10.89-.02-.18.23-.23.29-.06,1.31,4.01,4.65,5.66,8.42,5.76,4.53.12,9.4-3.16,10.49-7.56.4-1.6.38-3.15.06-4.58Z"/>
      </g>
      <g>
        <g>
          <path class="cls-4" d="M14.91,10.9c-.15,4.08-.58,13.59-.73,19.17l-5.99.23-.15-13.31-3.02,1.33-.28-3.27,9.99-4.3.18.15Z"/>
          <path class="cls-4" d="M26.44,30.2c-5.69,0-9.21-3.88-9.21-9.34,0-6.29,4.13-9.66,9.01-9.66s8.76,3.9,8.76,9.81c0,5.56-4.18,9.18-8.55,9.18ZM26.13,15.81c-1.71,0-2.47,2.21-2.47,4.76,0,2.74.96,5.36,2.77,5.36,1.06,0,2.16-1.43,2.16-4.23,0-3.62-1.01-5.89-2.47-5.89Z"/>
        </g>
        <g>
          <path class="cls-4" d="M85.12,119.22c.15-4.08.58-13.59.73-19.17l5.99-.23.15,13.31,3.02-1.33.28,3.27-9.99,4.3-.18-.15Z"/>
          <path class="cls-4" d="M73.59,99.92c5.69,0,9.21,3.88,9.21,9.34,0,6.29-4.13,9.66-9.01,9.66s-8.76-3.9-8.76-9.81c0-5.56,4.18-9.18,8.56-9.18ZM73.9,114.31c1.71,0,2.47-2.21,2.47-4.76,0-2.74-.96-5.36-2.77-5.36-1.06,0-2.16,1.43-2.16,4.23,0,3.62,1.01,5.89,2.47,5.89Z"/>
        </g>
        <path class="cls-4" d="M27.03,42.87c-.74-4.53-5.33-6.62-6.87-7.2-.16-.06-.33-.09-.5-.09s-.34.03-.5.09c-1.54.58-6.13,2.67-6.87,7.2-.12.54-.13,1.12.02,1.72.41,1.65,2.23,2.88,3.93,2.83,1.41-.04,2.67-.66,3.16-2.16.02-.06.12-.04.11.02-.13,1.12-.74,3.45-3.02,4.08-.43.12-.8.21-1.2.33-.15.05-.12.26.04.26h8.66c.15,0,.19-.22.04-.26-.39-.12-.77-.21-1.2-.33-2.27-.64-2.89-2.96-3.02-4.08,0-.07.09-.09.11-.02.49,1.5,1.74,2.12,3.16,2.16,1.7.04,3.52-1.18,3.93-2.83.15-.6.14-1.18.02-1.72Z"/>
        <path class="cls-4" d="M73.09,87.26c.74,4.53,5.33,6.62,6.87,7.2.16.06.33.09.5.09s.34-.03.5-.09c1.54-.58,6.13-2.67,6.87-7.2.12-.54.13-1.12-.02-1.72-.41-1.65-2.23-2.88-3.93-2.83-1.41.04-2.67.66-3.16,2.16-.02.06-.12.04-.11-.02.13-1.12.74-3.45,3.02-4.08.43-.12.8-.21,1.2-.33.15-.05.12-.26-.04-.26h-8.66c-.15,0-.19.22-.04.26.39.12.77.21,1.2.33,2.27.64,2.89,2.96,3.02,4.08,0,.07-.09.09-.11.02-.49-1.5-1.74-2.12-3.16-2.16-1.7-.04-3.52,1.18-3.93,2.83-.15.6-.14,1.18-.02,1.72Z"/>
      </g>
    </g>
  </g>
</svg>