<?xml version="1.0" encoding="UTF-8"?>
<svg id="Layer_2" data-name="Layer 2" xmlns="http://www.w3.org/2000/svg" viewBox="0 0 99.62 129.35">
  <defs>
    <style>
      .cls-1 {
        fill: #e6e6e6;
      }

      .cls-2 {
        fill: #fff;
      }

      .cls-3 {
        fill: #f2f2f2;
      }

      .cls-4 {
        fill: #edb53a;
      }

      .cls-5 {
        fill: #1a1a1a;
      }
    </style>
  </defs>
  <g id="Cards">
    <g>
      <rect class="cls-3" width="99.62" height="129.35" rx="16.65" ry="16.65"/>
      <rect class="cls-2" x="4.17" y="4.17" width="91.28" height="121.01" rx="12.48" ry="12.48"/>
      <g>
        <rect class="cls-1" x="19.56" y="18.39" width="60.5" height="92.57" rx="12.48" ry="12.48"/>
        <g>
          <g>
            <path class="cls-2" d="M31.75,66.36l-1.52,9.21s-1.04-1.13-2.74,0-.65,3.35,3.26,2.96,19.15.05,19.15.05l.16-12.21h-18.31Z"/>
            <path class="cls-2" d="M67.88,66.36l1.52,9.21s1.04-1.13,2.74,0c1.7,1.13.65,3.35-3.26,2.96-3.91-.39-19.15.05-19.15.05l-.16-12.21h18.31Z"/>
          </g>
          <path class="cls-4" d="M62.74,34c-.55.06-1,.5-1.08,1.05-.07.56.24,1.06.7,1.28l-11.35-1.9c.83-.41,1.37-1.29,1.28-2.29-.11-1.13-1.05-2.03-2.18-2.08-1.32-.06-2.42.99-2.42,2.3,0,.91.53,1.69,1.29,2.07l-11.2,1.82c.4-.26.64-.73.54-1.25-.09-.49-.47-.89-.96-.98-.79-.15-1.47.44-1.47,1.2,0,.68.55,1.23,1.23,1.23.06,0,.12,0,.18-.02l1.02,10.46h-.4c-.37,0-.71.27-.74.64-.04.43.29.78.71.78h24.23c.37,0,.71-.27.74-.64.04-.43-.29-.78-.71-.78h-.29l1.02-10.45c.67,0,1.21-.55,1.21-1.23,0-.72-.63-1.3-1.37-1.22Z"/>
          <polygon class="cls-4" points="50.34 79.2 41.99 80.87 49.81 98.37 57.64 81.41 50.34 79.2"/>
          <path class="cls-5" d="M69.38,64.02c-1.98-12.03-14.14-17.57-18.23-19.11-.43-.16-.89-.24-1.34-.24s-.91.08-1.34.24c-4.09,1.54-16.26,7.08-18.23,19.11-.32,1.43-.34,2.97.06,4.56,1.09,4.38,5.93,7.64,10.44,7.52,3.75-.1,7.08-1.74,8.38-5.73.06-.17.31-.11.29.06-.35,2.97-1.97,9.15-8.01,10.84-1.13.32-2.13.56-3.17.88-.39.12-.31.7.1.7h11.49s11.49,0,11.49,0c.41,0,.49-.58.1-.7-1.05-.32-2.04-.56-3.17-.88-6.03-1.69-7.66-7.87-8.01-10.84-.02-.18.23-.23.29-.06,1.3,3.99,4.63,5.64,8.38,5.73,4.51.12,9.35-3.14,10.44-7.52.4-1.59.38-3.13.06-4.56Z"/>
          <g>
            <path class="cls-5" d="M35.95,84.11s3.02,10.87,0,12.83l13.86,1.43-7.82-17.5-6.04,3.24Z"/>
            <path class="cls-2" d="M49.81,98.37s-11.15-3.91-13.86-2.22c-2.71,1.7,1.33,3.69,5.24,3.02,3.91-.67,8.62-.8,8.62-.8Z"/>
            <path class="cls-5" d="M64.16,84.11s-3.13,10.87,0,12.83l-14.35,1.43,7.82-16.95,6.53,2.69Z"/>
            <path class="cls-2" d="M49.81,98.37s11.15-3.91,13.86-2.22c2.71,1.7-1.33,3.69-5.24,3.02-3.91-.67-8.62-.8-8.62-.8Z"/>
            <path class="cls-2" d="M43.93,82.36s-1.23-4.14-7.98,0c-6.75,4.14,9.94,5.12,7.98,0Z"/>
            <path class="cls-2" d="M55.69,82.36s1.23-4.14,7.98,0c6.75,4.14-9.94,5.12-7.98,0Z"/>
          </g>
          <g>
            <circle class="cls-5" cx="49.81" cy="91.34" r=".52"/>
            <circle class="cls-5" cx="49.81" cy="94.14" r=".52"/>
          </g>
          <g>
            <path class="cls-5" d="M52.75,86.95c-.3-1.8-2.12-2.64-2.74-2.87-.06-.02-.13-.04-.2-.04s-.14.01-.2.04c-.61.23-2.44,1.06-2.74,2.87-.05.21-.05.44,0,.68.16.66.89,1.15,1.57,1.13.56-.01,1.06-.26,1.26-.86,0-.03.05-.02.04,0-.05.45-.3,1.37-1.2,1.63-.17.05-.32.08-.48.13-.06.02-.05.1.02.1h3.45c.06,0,.07-.09.02-.1-.16-.05-.31-.08-.48-.13-.91-.25-1.15-1.18-1.2-1.63,0-.03.03-.03.04,0,.2.6.69.85,1.26.86.68.02,1.4-.47,1.57-1.13.06-.24.06-.47,0-.68Z"/>
            <path class="cls-2" d="M44.53,91.38c-.3-1.8-2.12-2.64-2.74-2.87-.06-.02-.13-.04-.2-.04s-.14.01-.2.04c-.61.23-2.44,1.06-2.74,2.87-.05.21-.05.44,0,.68.16.66.89,1.15,1.57,1.13.56-.01,1.06-.26,1.26-.86,0-.03.05-.02.04,0-.05.45-.3,1.37-1.2,1.63-.17.05-.32.08-.48.13-.06.02-.05.1.01.1h3.45c.06,0,.07-.09.02-.1-.16-.05-.31-.08-.48-.13-.91-.25-1.15-1.18-1.2-1.63,0-.03.03-.03.04,0,.2.6.69.85,1.26.86.68.02,1.4-.47,1.57-1.13.06-.24.06-.47,0-.68Z"/>
            <path class="cls-2" d="M60.97,91.38c-.3-1.8-2.12-2.64-2.74-2.87-.06-.02-.13-.04-.2-.04s-.14.01-.2.04c-.61.23-2.44,1.06-2.74,2.87-.05.21-.05.44,0,.68.16.66.89,1.15,1.57,1.13.56-.01,1.06-.26,1.26-.86,0-.03.05-.02.04,0-.05.45-.3,1.37-1.2,1.63-.17.05-.32.08-.48.13-.06.02-.05.1.02.1h3.45c.06,0,.07-.09.02-.1-.16-.05-.31-.08-.48-.13-.91-.25-1.15-1.18-1.2-1.63,0-.03.03-.03.04,0,.2.6.69.85,1.26.86.68.02,1.4-.47,1.57-1.13.06-.24.06-.47,0-.68Z"/>
          </g>
        </g>
      </g>
      <g>
        <path class="cls-5" d="M25.95,29.55c-1.55,1.34-5.32,2.51-7.51,2.51-2.72,0-4.97-.35-6.81-.88l-.2-4.56c1.4.38,3.65.7,5.03.7.53,0,1.05,0,1.49-.12l-.32-17.18c1.29,0,8.62-.61,8.62-.61l-.29,20.13Z"/>
        <path class="cls-5" d="M73.59,99.93c1.55-1.34,5.32-2.51,7.51-2.51,2.72,0,4.97.35,6.81.88l.2,4.56c-1.4-.38-3.65-.7-5.03-.7-.53,0-1.05,0-1.49.12l.32,17.18c-1.29,0-8.62.61-8.62.61l.29-20.13Z"/>
        <path class="cls-5" d="M26.9,42.65c-.74-4.51-5.3-6.59-6.84-7.16-.16-.06-.33-.09-.5-.09s-.34.03-.5.09c-1.53.58-6.1,2.65-6.84,7.16-.12.54-.13,1.11.02,1.71.41,1.64,2.22,2.86,3.91,2.82,1.41-.04,2.65-.65,3.14-2.15.02-.06.12-.04.11.02-.13,1.11-.74,3.43-3,4.06-.42.12-.8.21-1.19.33-.15.04-.12.26.04.26h8.62c.15,0,.18-.22.04-.26-.39-.12-.77-.21-1.19-.33-2.26-.63-2.87-2.95-3-4.06,0-.07.09-.09.11-.02.49,1.5,1.73,2.11,3.14,2.15,1.69.04,3.51-1.18,3.91-2.82.15-.6.14-1.17.02-1.71Z"/>
        <path class="cls-5" d="M72.73,86.82c.74,4.51,5.3,6.59,6.84,7.16.16.06.33.09.5.09s.34-.03.5-.09c1.53-.58,6.1-2.65,6.84-7.16.12-.54.13-1.11-.02-1.71-.41-1.64-2.22-2.86-3.91-2.82-1.41.04-2.65.65-3.14,2.15-.02.06-.12.04-.11-.02.13-1.11.74-3.43,3-4.06.42-.12.8-.21,1.19-.33.15-.04.12-.26-.04-.26h-8.62c-.15,0-.18.22-.04.26.39.12.77.21,1.19.33,2.26.63,2.87,2.95,3,4.06,0,.07-.09.09-.11.02-.49-1.5-1.73-2.11-3.14-2.15-1.69-.04-3.51,1.18-3.91,2.82-.15.6-.14,1.17-.02,1.71Z"/>
      </g>
    </g>
  </g>
</svg>