<?xml version="1.0" encoding="UTF-8"?>
<svg id="Layer_2" data-name="Layer 2" xmlns="http://www.w3.org/2000/svg" viewBox="0 0 100.12 130">
  <defs>
    <style>
      .cls-1 {
        fill: #e6e6e6;
      }

      .cls-2 {
        fill: #fff;
      }

      .cls-3 {
        fill: #f2f2f2;
      }

      .cls-4 {
        fill: #edb53a;
      }

      .cls-5 {
        fill: #1a1a1a;
      }
    </style>
  </defs>
  <g id="Cards">
    <g>
      <rect class="cls-3" width="100.12" height="130" rx="16.74" ry="16.74"/>
      <rect class="cls-2" x="4.19" y="4.19" width="91.73" height="121.61" rx="12.54" ry="12.54"/>
      <g>
        <rect class="cls-1" x="19.66" y="18.48" width="60.81" height="93.04" rx="12.54" ry="12.54"/>
        <g>
          <path class="cls-4" d="M64.01,37.55c0-.73-.63-1.31-1.37-1.23-.55.06-1.01.51-1.08,1.06-.07.57.24,1.07.71,1.29l-2.5,4.3c-.15.26-.55.22-.64-.07l-1.1-3.44c.42-.11.71-.53.63-1-.06-.34-.33-.62-.67-.69-.56-.12-1.06.31-1.06.85,0,.32.17.59.42.74l-2.45,3.16c-.18.23-.48.33-.76.26l-.11-.03c-.21-.05-.38-.2-.48-.39l-2.69-5.61c.83-.41,1.38-1.29,1.29-2.3-.11-1.13-1.06-2.04-2.19-2.09-1.33-.06-2.43,1-2.43,2.31,0,.91.53,1.7,1.3,2.08l-2.65,5.52c-.12.24-.36.4-.63.41h0c-.23,0-.46-.09-.6-.28l-2.4-3.03c.32-.17.52-.53.44-.93-.06-.34-.33-.61-.67-.68-.56-.12-1.06.31-1.06.85,0,.39.25.71.6.82l-1.11,3.45c-.09.29-.49.33-.64.07l-2.55-4.38c.4-.26.64-.73.55-1.26-.09-.49-.48-.89-.97-.99-.79-.15-1.48.45-1.48,1.21,0,.68.55,1.23,1.23,1.23.06,0,.12,0,.18-.02l1.03,10.52h-.4c-.37,0-.71.27-.74.65-.04.43.29.79.71.79h24.35c.37,0,.71-.27.74-.65.04-.43-.29-.79-.71-.79h-.29l1.03-10.5c.67,0,1.22-.56,1.22-1.23Z"/>
          <path class="cls-4" d="M58.92,67.65h-17.23c-1.44,0-2.62,1.18-2.62,2.62v23.92c0,1.44,1.18,2.62,2.62,2.62h3.85s4.17,1.53,9.77,0h3.61c1.44,0,2.62-1.18,2.62-2.62v-23.92c0-1.44-1.18-2.62-2.62-2.62Z"/>
          <path class="cls-5" d="M69.8,65.84c-1.99-12.09-14.21-17.66-18.32-19.2-.43-.16-.89-.25-1.35-.25s-.91.08-1.35.25c-4.11,1.55-16.34,7.11-18.32,19.2-.32,1.43-.34,2.98.06,4.58,1.09,4.4,5.96,7.67,10.49,7.56,3.77-.1,7.11-1.75,8.42-5.76.06-.17.31-.11.29.06-.35,2.99-1.98,9.2-8.05,10.89-1.14.32-2.14.56-3.19.88-.39.12-.31.7.1.7h23.1c.41,0,.49-.58.1-.7-1.05-.32-2.05-.57-3.19-.88-6.06-1.7-7.7-7.91-8.05-10.89-.02-.18.23-.23.29-.06,1.31,4.01,4.65,5.66,8.42,5.76,4.53.12,9.4-3.16,10.49-7.56.4-1.6.38-3.15.06-4.58Z"/>
          <g>
            <path class="cls-2" d="M42.73,49.43s-3.95,12.96-14.24,15.32c0,0-6.24-20.77,14.24-15.32Z"/>
            <path class="cls-2" d="M28.38,65.49s-3.68-.78-3.41,2.89c.26,3.67-.2,5.18-2.75,5.24,0,0,5.56,3.47,7.04.39,1.48-3.08-2.05-6.9-.88-8.53Z"/>
            <circle class="cls-5" cx="28.38" cy="65.49" r="1.15"/>
          </g>
          <g>
            <path class="cls-2" d="M57.39,49.43s3.95,12.96,14.24,15.32c0,0,6.24-20.77-14.24-15.32Z"/>
            <path class="cls-2" d="M71.74,65.49s3.68-.78,3.41,2.89c-.26,3.67.2,5.18,2.75,5.24,0,0-5.56,3.47-7.04.39-1.48-3.08,2.05-6.9.88-8.53Z"/>
            <circle class="cls-5" cx="71.74" cy="65.49" r="1.15"/>
          </g>
          <g>
            <path class="cls-2" d="M42.57,72.4c-.1,0-.2-.04-.28-.12-.15-.15-.15-.4,0-.56l3.32-3.32c.15-.15.4-.15.56,0s.15.4,0,.56l-3.32,3.32c-.08.08-.18.12-.28.12Z"/>
            <path class="cls-2" d="M39.4,72.4c-.1,0-.2-.04-.28-.12-.15-.15-.15-.4,0-.56l3.32-3.32c.15-.15.4-.15.56,0,.15.15.15.4,0,.56l-3.32,3.32c-.08.08-.18.12-.28.12Z"/>
            <path class="cls-2" d="M36.23,72.4c-.1,0-.2-.04-.28-.12-.15-.15-.15-.4,0-.56l3.32-3.32c.15-.15.4-.15.56,0,.15.15.15.4,0,.56l-3.32,3.32c-.08.08-.18.12-.28.12Z"/>
            <path class="cls-2" d="M61.13,72.4c-.1,0-.2-.04-.28-.12-.15-.15-.15-.4,0-.56l3.32-3.32c.15-.15.4-.15.56,0,.15.15.15.4,0,.56l-3.32,3.32c-.08.08-.18.12-.28.12Z"/>
            <path class="cls-2" d="M57.96,72.4c-.1,0-.2-.04-.28-.12-.15-.15-.15-.4,0-.56l3.32-3.32c.15-.15.4-.15.56,0,.15.15.15.4,0,.56l-3.32,3.32c-.08.08-.18.12-.28.12Z"/>
            <path class="cls-2" d="M54.8,72.4c-.1,0-.2-.04-.28-.12-.15-.15-.15-.4,0-.56l3.32-3.32c.15-.15.4-.15.56,0,.15.15.15.4,0,.56l-3.32,3.32c-.08.08-.18.12-.28.12Z"/>
          </g>
          <g>
            <path class="cls-2" d="M53.23,83.18c0,1.73-1.4,3.13-3.13,3.13s-3.13-1.4-3.13-3.13,1.4-3.13,3.13-3.13,3.13,1.4,3.13,3.13Z"/>
            <g>
              <path class="cls-5" d="M47.8,85.58l-1.27-2.01-9.9-.28s1.37,7.43-2.29,11.01c0,0,5.51,2.97,9.44,1.4,3.93-1.57,4.02-10.11,4.02-10.11Z"/>
              <path class="cls-2" d="M48.61,85.58c1.24.05,1.67-1.62.57-2.18-4.53-2.29-11.18-5.23-13.53-4.06-3.69,1.85-2.31,6,3.23,6,2.85,0,6.69.12,9.73.24Z"/>
              <path class="cls-2" d="M48.43,84.3s1.14,13.33-6.46,13.33-10.57-1.75-9.09-2.97c1.49-1.22,6.9,1.05,9.96.35s3.32-7.86,3.41-10.22c.09-2.36,2.13-2.47,2.18-.49Z"/>
              <path class="cls-5" d="M52.39,85.58l1.27-2.01,9.9-.28s-1.37,7.43,2.29,11.01c0,0-5.51,2.97-9.44,1.4-3.93-1.57-4.02-10.11-4.02-10.11Z"/>
              <path class="cls-2" d="M51.58,85.58c-1.24.05-1.67-1.62-.57-2.18,4.53-2.29,11.18-5.23,13.53-4.06,3.69,1.85,2.31,6-3.23,6-2.85,0-6.69.12-9.73.24Z"/>
              <path class="cls-2" d="M51.76,84.3s-1.14,13.33,6.46,13.33,10.57-1.75,9.09-2.97c-1.49-1.22-6.9,1.05-9.96.35s-3.32-7.86-3.41-10.22c-.09-2.36-2.13-2.47-2.18-.49Z"/>
            </g>
            <g>
              <circle class="cls-5" cx="50.1" cy="89.66" r=".52"/>
              <circle class="cls-5" cx="50.1" cy="92.46" r=".52"/>
              <path class="cls-5" d="M50.62,95.27c0,.29-.23.52-.52.52s-.52-.23-.52-.52.23-.52.52-.52.52.23.52.52Z"/>
            </g>
            <g>
              <path class="cls-5" d="M53.05,85.24c-.3-1.81-2.13-2.65-2.75-2.88-.07-.02-.13-.04-.2-.04s-.14.01-.2.04c-.62.23-2.45,1.07-2.75,2.88-.05.22-.05.45,0,.69.16.66.89,1.15,1.57,1.13.57-.01,1.07-.26,1.26-.86,0-.03.05-.02.04,0-.05.45-.3,1.38-1.21,1.63-.17.05-.32.08-.48.13-.06.02-.05.1.02.1h3.46c.06,0,.07-.09.02-.1-.16-.05-.31-.08-.48-.13-.91-.25-1.15-1.19-1.21-1.63,0-.03.03-.04.04,0,.2.6.7.85,1.26.86.68.02,1.41-.47,1.57-1.13.06-.24.06-.47,0-.69Z"/>
              <path class="cls-2" d="M43.74,89.69c-.3-1.81-2.13-2.65-2.75-2.88-.07-.02-.13-.04-.2-.04s-.14.01-.2.04c-.62.23-2.45,1.07-2.75,2.88-.05.22-.05.45,0,.69.16.66.89,1.15,1.57,1.13.57-.01,1.07-.26,1.26-.86,0-.03.05-.02.04,0-.05.45-.3,1.38-1.21,1.63-.17.05-.32.08-.48.13-.06.02-.05.1.02.1h3.46c.06,0,.07-.09.02-.1-.16-.05-.31-.08-.48-.13-.91-.25-1.15-1.19-1.21-1.63,0-.03.03-.04.04,0,.2.6.7.85,1.26.86.68.02,1.41-.47,1.57-1.13.06-.24.06-.47,0-.69Z"/>
              <path class="cls-2" d="M62.36,89.69c-.3-1.81-2.13-2.65-2.75-2.88-.07-.02-.13-.04-.2-.04s-.14.01-.2.04c-.62.23-2.45,1.07-2.75,2.88-.05.22-.05.45,0,.69.16.66.89,1.15,1.57,1.13.57-.01,1.07-.26,1.26-.86,0-.03.05-.02.04,0-.05.45-.3,1.38-1.21,1.63-.17.05-.32.08-.48.13-.06.02-.05.1.02.1h3.46c.06,0,.07-.09.02-.1-.16-.05-.31-.08-.48-.13-.91-.25-1.15-1.19-1.21-1.63,0-.03.03-.04.04,0,.2.6.7.85,1.26.86.68.02,1.41-.47,1.57-1.13.06-.24.06-.47,0-.69Z"/>
            </g>
          </g>
        </g>
      </g>
      <g>
        <path class="cls-5" d="M30.82,31.57l-6.78-.03c-1.2.35-2.53.59-4.02.59-5.46,0-11.07-3.99-11.07-10.86s4.38-11.92,11.39-11.92c6.49,0,11.22,4.26,11.22,11.19,0,2.35-.85,4.82-2,6.69.91-.09,2.29-.26,2.88-.35l-1.62,4.7ZM19.23,14.63c-1.17,0-1.91.82-1.91,2.17,0,3.85,1.97,10.42,4.4,10.42,1.15,0,1.82-.76,1.82-2.67,0-3.23-2.35-9.92-4.32-9.92Z"/>
        <path class="cls-5" d="M69.21,98.55l6.78.03c1.2-.35,2.53-.59,4.02-.59,5.46,0,11.07,3.99,11.07,10.86s-4.38,11.92-11.39,11.92c-6.49,0-11.22-4.26-11.22-11.19,0-2.35.85-4.82,2-6.69-.91.09-2.29.26-2.88.35l1.62-4.7ZM80.8,115.49c1.17,0,1.91-.82,1.91-2.17,0-3.85-1.97-10.42-4.4-10.42-1.14,0-1.82.76-1.82,2.67,0,3.23,2.35,9.92,4.32,9.92Z"/>
        <path class="cls-5" d="M27.03,42.87c-.74-4.53-5.33-6.62-6.87-7.2-.16-.06-.33-.09-.5-.09s-.34.03-.5.09c-1.54.58-6.13,2.67-6.87,7.2-.12.54-.13,1.12.02,1.72.41,1.65,2.23,2.88,3.93,2.83,1.41-.04,2.67-.66,3.16-2.16.02-.06.12-.04.11.02-.13,1.12-.74,3.45-3.02,4.08-.43.12-.8.21-1.2.33-.15.05-.12.26.04.26h4.33s4.33,0,4.33,0c.15,0,.19-.22.04-.26-.39-.12-.77-.21-1.2-.33-2.27-.64-2.89-2.96-3.02-4.08,0-.07.09-.09.11-.02.49,1.5,1.74,2.12,3.16,2.16,1.7.04,3.52-1.18,3.93-2.83.15-.6.14-1.18.02-1.72Z"/>
        <path class="cls-5" d="M73.09,87.26c.74,4.53,5.33,6.62,6.87,7.2.16.06.33.09.5.09s.34-.03.5-.09c1.54-.58,6.13-2.67,6.87-7.2.12-.54.13-1.12-.02-1.72-.41-1.65-2.23-2.88-3.93-2.83-1.41.04-2.67.66-3.16,2.16-.02.06-.12.04-.11-.02.13-1.12.74-3.45,3.02-4.08.43-.12.8-.21,1.2-.33.15-.05.12-.26-.04-.26h-8.66c-.15,0-.19.22-.04.26.39.12.77.21,1.2.33,2.27.64,2.89,2.96,3.02,4.08,0,.07-.09.09-.11.02-.49-1.51-1.74-2.12-3.16-2.16-1.7-.04-3.52,1.18-3.93,2.83-.15.6-.14,1.18-.02,1.72Z"/>
      </g>
    </g>
  </g>
</svg>