<?xml version="1.0" encoding="UTF-8"?>
<svg id="Layer_2" data-name="Layer 2" xmlns="http://www.w3.org/2000/svg" viewBox="0 0 99.62 129.35">
  <defs>
    <style>
      .cls-1 {
        fill: #e6e6e6;
      }

      .cls-2 {
        fill: #fff;
      }

      .cls-3 {
        fill: #f2f2f2;
      }

      .cls-4 {
        fill: #1a1a1a;
      }
    </style>
  </defs>
  <g id="Cards">
    <g>
      <rect class="cls-3" width="99.62" height="129.35" rx="16.65" ry="16.65"/>
      <rect class="cls-2" x="4.17" y="4.17" width="91.28" height="121.01" rx="12.48" ry="12.48"/>
      <g>
        <rect class="cls-1" x="19.56" y="17.93" width="60.5" height="92.57" rx="12.48" ry="12.48"/>
        <path class="cls-4" d="M69.38,64.48c-1.98-12.03-14.14-17.57-18.23-19.11-.43-.16-.89-.24-1.34-.24s-.91.08-1.34.24c-4.09,1.54-16.26,7.08-18.23,19.11-.32,1.43-.34,2.97.06,4.56,1.09,4.38,5.93,7.64,10.44,7.52,3.75-.1,7.08-1.74,8.38-5.73.06-.17.31-.11.29.06-.35,2.97-1.97,9.15-8.01,10.84-1.13.32-2.13.56-3.17.88-.39.12-.31.7.1.7h22.98c.41,0,.49-.58.1-.7-1.05-.32-2.04-.56-3.17-.88-6.03-1.69-7.66-7.87-8.01-10.84-.02-.18.23-.23.29-.06,1.3,3.99,4.63,5.64,8.38,5.73,4.51.12,9.35-3.14,10.44-7.52.4-1.59.38-3.13.06-4.56Z"/>
      </g>
      <g>
        <path class="cls-4" d="M20.39,31.65c-4.53,0-9.06-1.55-9.06-5.67,0-2.43,2.28-4.29,4.67-5.23-2.07-1.29-3.62-2.81-3.62-5.11,0-3.62,4.24-6.05,8.94-6.05s8.36,1.96,8.36,5.03c0,2.19-1.05,3.36-3.16,4.67,2.83,1.52,4.59,2.98,4.59,5.43,0,4.88-4.88,6.92-10.72,6.92ZM19.75,22.65c-1.34.7-2.48,1.49-2.48,3.01,0,1.02,1.05,1.87,2.92,1.87,1.69,0,2.69-.76,2.69-2.13s-1.4-2.1-3.13-2.75ZM22.18,13.57c-.91,0-1.72.56-1.72,1.49s.99,1.52,2.37,2.05c.94-.64,1.43-1.08,1.43-2.07,0-.93-.67-1.46-2.07-1.46Z"/>
        <path class="cls-4" d="M79.14,97.83c4.53,0,9.06,1.55,9.06,5.67,0,2.43-2.28,4.29-4.67,5.23,2.07,1.29,3.62,2.8,3.62,5.11,0,3.62-4.24,6.05-8.94,6.05s-8.36-1.96-8.36-5.03c0-2.19,1.05-3.36,3.16-4.67-2.83-1.52-4.59-2.98-4.59-5.43,0-4.88,4.88-6.92,10.72-6.92ZM77.36,115.91c.91,0,1.72-.55,1.72-1.49s-.99-1.52-2.37-2.05c-.94.64-1.43,1.08-1.43,2.07,0,.94.67,1.46,2.07,1.46ZM79.78,106.82c1.34-.7,2.48-1.49,2.48-3.01,0-1.02-1.05-1.87-2.92-1.87-1.69,0-2.69.76-2.69,2.13s1.4,2.1,3.13,2.75Z"/>
        <path class="cls-4" d="M26.9,42.65c-.74-4.51-5.3-6.59-6.84-7.16-.16-.06-.33-.09-.5-.09s-.34.03-.5.09c-1.53.58-6.1,2.65-6.84,7.16-.12.54-.13,1.11.02,1.71.41,1.64,2.22,2.86,3.91,2.82,1.41-.04,2.65-.65,3.14-2.15.02-.06.12-.04.11.02-.13,1.11-.74,3.43-3,4.06-.42.12-.8.21-1.19.33-.15.04-.12.26.04.26h8.62c.15,0,.18-.22.04-.26-.39-.12-.77-.21-1.19-.33-2.26-.63-2.87-2.95-3-4.06,0-.07.09-.09.11-.02.49,1.5,1.73,2.11,3.14,2.15,1.69.04,3.51-1.18,3.91-2.82.15-.6.14-1.17.02-1.71Z"/>
        <path class="cls-4" d="M72.73,86.82c.74,4.51,5.3,6.59,6.84,7.16.16.06.33.09.5.09s.34-.03.5-.09c1.53-.58,6.1-2.65,6.84-7.16.12-.54.13-1.11-.02-1.71-.41-1.64-2.22-2.86-3.91-2.82-1.41.04-2.65.65-3.14,2.15-.02.06-.12.04-.11-.02.13-1.11.74-3.43,3-4.06.42-.12.8-.21,1.19-.33.15-.04.12-.26-.04-.26h-8.62c-.15,0-.18.22-.04.26.39.12.77.21,1.19.33,2.26.63,2.87,2.95,3,4.06,0,.07-.09.09-.11.02-.49-1.5-1.73-2.11-3.14-2.15-1.69-.04-3.51,1.18-3.91,2.82-.15.6-.14,1.17-.02,1.71Z"/>
      </g>
    </g>
  </g>
</svg>