<?xml version="1.0" encoding="UTF-8"?>
<svg id="Layer_2" data-name="Layer 2" xmlns="http://www.w3.org/2000/svg" viewBox="0 0 99.62 129.35">
  <defs>
    <style>
      .cls-1 {
        fill: #e6e6e6;
      }

      .cls-2 {
        fill: #fff;
      }

      .cls-3 {
        fill: #f2f2f2;
      }

      .cls-4 {
        fill: #1a1a1a;
      }
    </style>
  </defs>
  <g id="Cards">
    <g>
      <rect class="cls-3" width="99.62" height="129.35" rx="16.65" ry="16.65"/>
      <rect class="cls-2" x="4.17" y="4.17" width="91.28" height="121.01" rx="12.48" ry="12.48"/>
      <g>
        <rect class="cls-1" x="19.56" y="17.93" width="60.5" height="92.57" rx="12.48" ry="12.48"/>
        <path class="cls-4" d="M69.38,64.48c-1.98-12.03-14.14-17.57-18.23-19.11-.43-.16-.89-.24-1.34-.24s-.91.08-1.34.24c-4.09,1.54-16.26,7.08-18.23,19.11-.32,1.43-.34,2.97.06,4.56,1.09,4.38,5.93,7.64,10.44,7.52,3.75-.1,7.08-1.74,8.38-5.73.06-.17.31-.11.29.06-.35,2.97-1.97,9.15-8.01,10.84-1.13.32-2.13.56-3.17.88-.39.12-.31.7.1.7h11.49s11.49,0,11.49,0c.41,0,.49-.58.1-.7-1.05-.32-2.04-.56-3.17-.88-6.03-1.69-7.66-7.87-8.01-10.84-.02-.18.23-.23.29-.06,1.3,3.99,4.63,5.64,8.38,5.73,4.51.12,9.35-3.14,10.44-7.52.4-1.59.38-3.13.06-4.56Z"/>
      </g>
      <g>
        <path class="cls-4" d="M18.99,32.94l-2.8-3.1c2.34-1.17,5.23-3.65,6.19-6.19-1.08.38-2.05.64-3.62.64-3.74,0-7.19-2.02-7.19-6.87,0-4.32,3.91-7.86,10.05-7.86,4.76,0,8.62,3.24,8.62,8.12,0,6.63-3.91,11.16-11.25,15.25ZM20.89,14.21c-1.2,0-2.07.91-2.07,2.54,0,1.81.73,2.83,1.96,2.83,1.37,0,2.13-1.34,2.13-2.83s-.76-2.54-2.02-2.54Z"/>
        <path class="cls-4" d="M80.54,96.54l2.8,3.1c-2.34,1.17-5.23,3.65-6.19,6.19,1.08-.38,2.05-.64,3.62-.64,3.74,0,7.19,2.02,7.19,6.87,0,4.32-3.91,7.86-10.05,7.86-4.76,0-8.62-3.24-8.62-8.12,0-6.63,3.91-11.16,11.25-15.25ZM78.64,115.27c1.2,0,2.07-.91,2.07-2.54,0-1.81-.73-2.83-1.96-2.83-1.37,0-2.13,1.34-2.13,2.83s.76,2.54,2.02,2.54Z"/>
        <path class="cls-4" d="M26.9,42.65c-.74-4.51-5.3-6.59-6.84-7.16-.16-.06-.33-.09-.5-.09s-.34.03-.5.09c-1.53.58-6.1,2.65-6.84,7.16-.12.53-.13,1.11.02,1.71.41,1.64,2.22,2.86,3.91,2.82,1.41-.04,2.65-.65,3.14-2.15.02-.06.12-.04.11.02-.13,1.11-.74,3.43-3,4.06-.42.12-.8.21-1.19.33-.15.04-.12.26.04.26h8.62c.15,0,.18-.22.04-.26-.39-.12-.77-.21-1.19-.33-2.26-.63-2.87-2.95-3-4.06,0-.07.09-.09.11-.02.49,1.5,1.73,2.11,3.14,2.15,1.69.04,3.51-1.18,3.91-2.82.15-.6.14-1.17.02-1.71Z"/>
        <path class="cls-4" d="M72.73,86.82c.74,4.51,5.3,6.59,6.84,7.16.16.06.33.09.5.09s.34-.03.5-.09c1.53-.58,6.1-2.65,6.84-7.16.12-.53.13-1.11-.02-1.71-.41-1.64-2.22-2.86-3.91-2.82-1.41.04-2.65.65-3.14,2.15-.02.06-.12.04-.11-.02.13-1.11.74-3.43,3-4.06.42-.12.8-.21,1.19-.33.15-.04.12-.26-.04-.26h-8.62c-.15,0-.18.22-.04.26.39.12.77.21,1.19.33,2.26.63,2.87,2.95,3,4.06,0,.07-.09.09-.11.02-.49-1.5-1.73-2.11-3.14-2.15-1.69-.04-3.51,1.18-3.91,2.82-.15.6-.14,1.17-.02,1.71Z"/>
      </g>
    </g>
  </g>
</svg>