<svg width="32" height="24" viewBox="0 0 32 24" fill="none" xmlns="http://www.w3.org/2000/svg">
<g id="contents">
<path id="middle" fill-rule="evenodd" clip-rule="evenodd" d="M0 0H32V24H0V0Z" fill="var(--fill-0, #F7FCFF)"/>
<path id="Combined Shape" fill-rule="evenodd" clip-rule="evenodd" d="M0 14.6667V16.6667H32V14.6667H0Z" fill="var(--fill-0, #E31D1C)"/>
<path id="Combined Shape_2" fill-rule="evenodd" clip-rule="evenodd" d="M0 18.3333V20.3333H32V18.3333H0Z" fill="var(--fill-0, #E31D1C)"/>
<path id="Combined Shape_3" fill-rule="evenodd" clip-rule="evenodd" d="M0 7.33333V9.33333H32V7.33333H0Z" fill="var(--fill-0, #E31D1C)"/>
<path id="Combined Shape_4" fill-rule="evenodd" clip-rule="evenodd" d="M0 22V24H32V22H0Z" fill="var(--fill-0, #E31D1C)"/>
<path id="Combined Shape_5" fill-rule="evenodd" clip-rule="evenodd" d="M0 11V13H32V11H0Z" fill="var(--fill-0, #E31D1C)"/>
<path id="Combined Shape_6" fill-rule="evenodd" clip-rule="evenodd" d="M0 0V2H32V0H0Z" fill="var(--fill-0, #E31D1C)"/>
<path id="Combined Shape_7" fill-rule="evenodd" clip-rule="evenodd" d="M0 3.66667V5.66667H32V3.66667H0Z" fill="var(--fill-0, #E31D1C)"/>
<rect id="Rectangle 82" width="20" height="13" fill="var(--fill-0, #2E42A5)"/>
<path id="Combined Shape_8" d="M2.05256 9.96822H2.77034L2.20588 10.5415L2.42463 11.4477L1.72249 10.9389L0.995923 11.4477L1.24104 10.5415L0.596509 9.96822H1.43831L1.72151 9.22897L2.05256 9.96822ZM6.05256 9.96822H6.77034L6.20588 10.5415L6.42463 11.4477L5.72249 10.9389L4.99592 11.4477L5.24104 10.5415L4.59651 9.96822H5.43831L5.72151 9.22897L6.05256 9.96822ZM10.0526 9.96822H10.7703L10.2059 10.5415L10.4246 11.4477L9.72249 10.9389L8.99592 11.4477L9.24104 10.5415L8.59651 9.96822H9.43831L9.72151 9.22897L10.0526 9.96822ZM14.0526 9.96822H14.7703L14.2059 10.5415L14.4246 11.4477L13.7225 10.9389L12.9959 11.4477L13.241 10.5415L12.5965 9.96822H13.4383L13.7215 9.22897L14.0526 9.96822ZM18.0526 9.96822H18.7703L18.2059 10.5415L18.4246 11.4477L17.7225 10.9389L16.9959 11.4477L17.241 10.5415L16.5965 9.96822H17.4383L17.7215 9.22897L18.0526 9.96822ZM4.05256 7.96822H4.77034L4.20588 8.54147L4.42463 9.44772L3.72249 8.93893L2.99592 9.44772L3.24104 8.54147L2.59651 7.96822H3.43831L3.72151 7.22897L4.05256 7.96822ZM8.05256 7.96822H8.77034L8.20588 8.54147L8.42463 9.44772L7.72249 8.93893L6.99592 9.44772L7.24104 8.54147L6.59651 7.96822H7.43831L7.72151 7.22897L8.05256 7.96822ZM12.0526 7.96822H12.7703L12.2059 8.54147L12.4246 9.44772L11.7225 8.93893L10.9959 9.44772L11.241 8.54147L10.5965 7.96822H11.4383L11.7215 7.22897L12.0526 7.96822ZM16.0526 7.96822H16.7703L16.2059 8.54147L16.4246 9.44772L15.7225 8.93893L14.9959 9.44772L15.241 8.54147L14.5965 7.96822H15.4383L15.7215 7.22897L16.0526 7.96822ZM2.05256 5.96822H2.77034L2.20588 6.54147L2.42463 7.44772L1.72249 6.93893L0.995923 7.44772L1.24104 6.54147L0.596509 5.96822H1.43831L1.72151 5.22897L2.05256 5.96822ZM6.05256 5.96822H6.77034L6.20588 6.54147L6.42463 7.44772L5.72249 6.93893L4.99592 7.44772L5.24104 6.54147L4.59651 5.96822H5.43831L5.72151 5.22897L6.05256 5.96822ZM10.0526 5.96822H10.7703L10.2059 6.54147L10.4246 7.44772L9.72249 6.93893L8.99592 7.44772L9.24104 6.54147L8.59651 5.96822H9.43831L9.72151 5.22897L10.0526 5.96822ZM14.0526 5.96822H14.7703L14.2059 6.54147L14.4246 7.44772L13.7225 6.93893L12.9959 7.44772L13.241 6.54147L12.5965 5.96822H13.4383L13.7215 5.22897L14.0526 5.96822ZM18.0526 5.96822H18.7703L18.2059 6.54147L18.4246 7.44772L17.7225 6.93893L16.9959 7.44772L17.241 6.54147L16.5965 5.96822H17.4383L17.7215 5.22897L18.0526 5.96822ZM4.05256 3.96822H4.77034L4.20588 4.54147L4.42463 5.44772L3.72249 4.93893L2.99592 5.44772L3.24104 4.54147L2.59651 3.96822H3.43831L3.72151 3.22897L4.05256 3.96822ZM8.05256 3.96822H8.77034L8.20588 4.54147L8.42463 5.44772L7.72249 4.93893L6.99592 5.44772L7.24104 4.54147L6.59651 3.96822H7.43831L7.72151 3.22897L8.05256 3.96822ZM12.0526 3.96822H12.7703L12.2059 4.54147L12.4246 5.44772L11.7225 4.93893L10.9959 5.44772L11.241 4.54147L10.5965 3.96822H11.4383L11.7215 3.22897L12.0526 3.96822ZM16.0526 3.96822H16.7703L16.2059 4.54147L16.4246 5.44772L15.7225 4.93893L14.9959 5.44772L15.241 4.54147L14.5965 3.96822H15.4383L15.7215 3.22897L16.0526 3.96822ZM2.05256 1.96822H2.77034L2.20588 2.54147L2.42463 3.44772L1.72249 2.93893L0.995923 3.44772L1.24104 2.54147L0.596509 1.96822H1.43831L1.72151 1.22897L2.05256 1.96822ZM6.05256 1.96822H6.77034L6.20588 2.54147L6.42463 3.44772L5.72249 2.93893L4.99592 3.44772L5.24104 2.54147L4.59651 1.96822H5.43831L5.72151 1.22897L6.05256 1.96822ZM10.0526 1.96822H10.7703L10.2059 2.54147L10.4246 3.44772L9.72249 2.93893L8.99592 3.44772L9.24104 2.54147L8.59651 1.96822H9.43831L9.72151 1.22897L10.0526 1.96822ZM14.0526 1.96822H14.7703L14.2059 2.54147L14.4246 3.44772L13.7225 2.93893L12.9959 3.44772L13.241 2.54147L12.5965 1.96822H13.4383L13.7215 1.22897L14.0526 1.96822ZM18.0526 1.96822H18.7703L18.2059 2.54147L18.4246 3.44772L17.7225 2.93893L16.9959 3.44772L17.241 2.54147L16.5965 1.96822H17.4383L17.7215 1.22897L18.0526 1.96822Z" fill="var(--fill-0, #F7FCFF)"/>
</g>
</svg>
