<svg preserveAspectRatio="none" width="100%" height="100%" overflow="visible" style="display: block;" viewBox="0 0 26.6667 29.0853" fill="none" xmlns="http://www.w3.org/2000/svg">
<g id="Group">
<g id="Vector">
</g>
<path id="Vector_2" d="M13.3333 0C20.6973 0 26.6667 5.96933 26.6667 13.3333C26.6667 20.6973 20.6973 26.6667 13.3333 26.6667C5.96933 26.6667 0 20.6973 0 13.3333C0 5.96933 5.96933 0 13.3333 0ZM13.3333 2.66667C10.5044 2.66667 7.79125 3.79047 5.79086 5.79086C3.79047 7.79125 2.66667 10.5044 2.66667 13.3333C2.66667 16.1623 3.79047 18.8754 5.79086 20.8758C7.79125 22.8762 10.5044 24 13.3333 24C16.1623 24 18.8754 22.8762 20.8758 20.8758C22.8762 18.8754 24 16.1623 24 13.3333C24 10.5044 22.8762 7.79125 20.8758 5.79086C18.8754 3.79047 16.1623 2.66667 13.3333 2.66667ZM10.5053 8.61867L13.3333 11.448L16.1613 8.61867C16.2852 8.49479 16.4323 8.39652 16.5941 8.32947C16.756 8.26243 16.9295 8.22793 17.1047 8.22793C17.2799 8.22793 17.4533 8.26243 17.6152 8.32947C17.7771 8.39652 17.9241 8.49479 18.048 8.61867C18.1719 8.74255 18.2701 8.88961 18.3372 9.05147C18.4042 9.21333 18.4387 9.38681 18.4387 9.562C18.4387 9.73719 18.4042 9.91067 18.3372 10.0725C18.2701 10.2344 18.1719 10.3815 18.048 10.5053L15.2187 13.332L18.048 16.1613C18.2982 16.4115 18.4387 16.7508 18.4387 17.1047C18.4387 17.4585 18.2982 17.7978 18.048 18.048C17.7978 18.2982 17.4585 18.4387 17.1047 18.4387C16.7508 18.4387 16.4115 18.2982 16.1613 18.048L13.3333 15.2187L10.5053 18.048C10.2551 18.2982 9.91582 18.4387 9.562 18.4387C9.20818 18.4387 8.86885 18.2982 8.61867 18.048C8.36848 17.7978 8.22793 17.4585 8.22793 17.1047C8.22793 16.7508 8.36848 16.4115 8.61867 16.1613L11.448 13.3333L8.62 10.5053C8.36981 10.2553 8.22919 9.91617 8.22906 9.56247C8.22894 9.20878 8.36932 8.86952 8.61933 8.61933C8.86934 8.36915 9.2085 8.22852 9.56219 8.2284C9.91589 8.22827 10.2551 8.36866 10.5053 8.61867Z" fill="var(--fill-0, black)"/>
</g>
</svg>
