<svg width="27" height="29" viewBox="0 0 26.6723 29.0871" fill="none" xmlns="http://www.w3.org/2000/svg">
<path d="M24.8833 6.66841C28.566 13.0457 26.3806 21.2017 20.0033 24.8817C14.506 28.0551 7.69263 26.8697 3.55663 22.4017C3.32242 22.1412 3.20016 21.799 3.21628 21.449C3.2324 21.099 3.38561 20.7695 3.64278 20.5316C3.89994 20.2937 4.24041 20.1666 4.59057 20.1777C4.94072 20.1888 5.27243 20.3373 5.51397 20.5911C7.16134 22.3677 9.36445 23.5305 11.7607 23.8882C14.157 24.2459 16.6037 23.7771 18.6981 22.5591C20.7924 21.341 22.4097 19.4463 23.2838 17.1866C24.1579 14.9269 24.2367 12.437 23.5071 10.1266C22.7776 7.81624 21.2833 5.82304 19.2701 4.47507C17.2569 3.12709 14.8447 2.50465 12.4306 2.71018C10.0165 2.91572 7.74433 3.93698 5.98797 5.6059C4.23161 7.27482 3.09574 9.49195 2.7673 11.8924L4.4753 11.4457C5.8713 11.0817 6.8993 12.7391 5.95263 13.8284L2.94997 17.2777C2.19263 18.1471 0.729967 17.8511 0.427301 16.6857C-0.305409 13.8616 -0.0915588 10.8751 1.03606 8.18419C2.16368 5.49328 4.14281 3.2465 6.66997 1.78841C13.0473 -1.89292 21.202 0.291077 24.8833 6.66841ZM13.3366 5.33508C13.6903 5.33508 14.0294 5.47555 14.2794 5.7256C14.5295 5.97565 14.67 6.31479 14.67 6.66841V12.7831L18.2793 16.3924C18.4066 16.5154 18.5082 16.6625 18.5781 16.8252C18.648 16.9879 18.6848 17.1628 18.6863 17.3399C18.6878 17.5169 18.6541 17.6925 18.5871 17.8563C18.52 18.0202 18.421 18.1691 18.2958 18.2943C18.1706 18.4195 18.0218 18.5185 17.8579 18.5855C17.694 18.6525 17.5185 18.6863 17.3414 18.6847C17.1644 18.6832 16.9894 18.6464 16.8268 18.5765C16.6641 18.5067 16.517 18.4051 16.394 18.2777L12.394 14.2777C12.1439 14.0278 12.0034 13.6887 12.0033 13.3351V6.66841C12.0033 6.31479 12.1438 5.97565 12.3938 5.7256C12.6439 5.47555 12.983 5.33508 13.3366 5.33508Z" fill="currentColor"/>
</svg>
