<svg width="24" height="29" viewBox="0 0 24 28.6957" fill="none" xmlns="http://www.w3.org/2000/svg">
<path fill-rule="evenodd" clip-rule="evenodd" d="M18.6 0.391715C18.85 0.641752 18.9904 0.98083 18.9904 1.33438C18.9904 1.68793 18.85 2.02701 18.6 2.27705L14.6 6.27705H21.3333C22.0406 6.27705 22.7189 6.558 23.219 7.0581C23.719 7.55819 24 8.23647 24 8.94372V22.277C24 22.9843 23.719 23.6626 23.219 24.1627C22.7189 24.6628 22.0406 24.9437 21.3333 24.9437H2.66667C1.95942 24.9437 1.28115 24.6628 0.781048 24.1627C0.280951 23.6626 0 22.9843 0 22.277V8.94372C0 8.23647 0.280951 7.55819 0.781048 7.0581C1.28115 6.558 1.95942 6.27705 2.66667 6.27705H7.51467L5.4 4.16238C5.14999 3.91219 5.00961 3.57294 5.00973 3.21924C5.00986 2.86555 5.15048 2.52639 5.40067 2.27638C5.65085 2.02637 5.99011 1.88599 6.3438 1.88611C6.6975 1.88624 7.03666 2.02686 7.28667 2.27705L10.5853 5.57705C10.7104 5.70203 10.8799 5.77224 11.0567 5.77224C11.2334 5.77224 11.403 5.70203 11.528 5.57705L16.7147 0.390382C16.9647 0.140421 17.3038 0 17.6573 0C18.0109 0 18.35 0.141754 18.6 0.391715ZM21.3333 8.94372H2.66667V22.277H21.3333V8.94372ZM7.97333 12.3397C8.0014 12.0833 8.08944 11.8371 8.23033 11.6211C8.37122 11.4051 8.56101 11.2252 8.78432 11.0962C9.00763 10.9671 9.2582 10.8925 9.51572 10.8783C9.77325 10.8641 10.0305 10.9107 10.2667 11.0144C11.2717 11.4582 12.251 11.9581 13.2 12.5117C14.1551 13.0576 15.0788 13.6568 15.9667 14.3064C16.8573 14.965 16.86 16.2917 15.9667 16.9517C15.0788 17.6004 14.1551 18.1987 13.2 18.7437C11.8707 19.5117 10.82 20.0011 10.2667 20.2424C10.0307 20.3467 9.77337 20.3938 9.51572 20.3799C9.25808 20.3661 9.00733 20.2916 8.78388 20.1626C8.56042 20.0336 8.37056 19.8537 8.22972 19.6375C8.08888 19.4213 8.00104 19.1749 7.97333 18.9184C7.85756 17.8258 7.80059 16.7278 7.80267 15.629C7.80267 14.109 7.90667 12.9437 7.97333 12.3397ZM10.5093 14.081C10.4573 15.1115 10.4573 16.1439 10.5093 17.1744C11.4272 16.7042 12.3208 16.188 13.1867 15.6277C12.3208 15.0675 11.4272 14.5513 10.5093 14.081Z" fill="currentColor"/>
</svg>
