<svg preserveAspectRatio="none" width="100%" height="100%" overflow="visible" style="display: block;" viewBox="0 0 24 26.4187" fill="none" xmlns="http://www.w3.org/2000/svg">
<g id="Group">
<g id="Vector">
</g>
<path id="Vector_2" d="M22.6667 18.6667C23.0065 18.667 23.3334 18.7972 23.5805 19.0305C23.8276 19.2638 23.9763 19.5826 23.9962 19.9219C24.0161 20.2611 23.9058 20.5952 23.6876 20.8558C23.4695 21.1164 23.1601 21.2839 22.8227 21.324L22.6667 21.3333H1.33333C0.993494 21.333 0.666624 21.2028 0.419509 20.9695C0.172394 20.7362 0.0236867 20.4174 0.00377051 20.0781C-0.0161456 19.7389 0.0942328 19.4048 0.312353 19.1442C0.530474 18.8836 0.839872 18.7161 1.17733 18.676L1.33333 18.6667H22.6667ZM22.6667 9.33333C23.0203 9.33333 23.3594 9.47381 23.6095 9.72386C23.8595 9.97391 24 10.313 24 10.6667C24 11.0203 23.8595 11.3594 23.6095 11.6095C23.3594 11.8595 23.0203 12 22.6667 12H1.33333C0.979711 12 0.640573 11.8595 0.390524 11.6095C0.140476 11.3594 0 11.0203 0 10.6667C0 10.313 0.140476 9.97391 0.390524 9.72386C0.640573 9.47381 0.979711 9.33333 1.33333 9.33333H22.6667ZM22.6667 0C23.0203 0 23.3594 0.140476 23.6095 0.390525C23.8595 0.640573 24 0.979711 24 1.33333C24 1.68696 23.8595 2.02609 23.6095 2.27614C23.3594 2.52619 23.0203 2.66667 22.6667 2.66667H1.33333C0.979711 2.66667 0.640573 2.52619 0.390524 2.27614C0.140476 2.02609 0 1.68696 0 1.33333C0 0.979711 0.140476 0.640573 0.390524 0.390525C0.640573 0.140476 0.979711 0 1.33333 0H22.6667Z" fill="var(--fill-0, black)"/>
</g>
</svg>
