<?xml version="1.0" encoding="UTF-8"?>
<svg id="Layer_2" data-name="Layer 2" xmlns="http://www.w3.org/2000/svg" viewBox="0 0 99.62 129.35">
  <defs>
    <style>
      .cls-1 {
        fill: #db2626;
      }

      .cls-2 {
        fill: #fff;
      }

      .cls-3 {
        fill: #f2f2f2;
      }

      .cls-4 {
        fill: #ffe3e3;
      }
    </style>
  </defs>
  <g id="Cards">
    <g>
      <rect class="cls-3" width="99.62" height="129.35" rx="16.65" ry="16.65"/>
      <rect class="cls-2" x="4.17" y="4.17" width="91.28" height="121.01" rx="12.48" ry="12.48"/>
      <g>
        <rect class="cls-4" x="19.56" y="18.39" width="60.5" height="92.57" rx="12.48" ry="12.48"/>
        <g>
          <path class="cls-1" d="M49.81,44.57c1.11,0,2.13.58,2.72,1.56l1.66,2.72c2.65,4.36,5.94,8.14,9.76,11.22l2.43,1.95c.79.64,1.25,1.6,1.25,2.65s-.45,2.01-1.25,2.65l-2.42,1.95c-3.83,3.08-7.11,6.86-9.76,11.22l-1.66,2.72c-.59.97-1.61,1.56-2.72,1.56s-2.13-.58-2.72-1.56l-1.65-2.72c-2.65-4.36-5.94-8.14-9.76-11.22l-2.43-1.95c-.79-.64-1.25-1.6-1.25-2.65s.45-2.01,1.25-2.65l2.42-1.95c3.83-3.08,7.11-6.86,9.76-11.22l1.66-2.72c.59-.98,1.61-1.56,2.72-1.56M49.81,43.53c-1.48,0-2.83.77-3.61,2.06l-1.66,2.72c-2.59,4.26-5.79,7.94-9.53,10.95l-2.43,1.95c-1.04.84-1.63,2.1-1.63,3.46s.6,2.62,1.63,3.46l2.43,1.95c3.73,3.01,6.94,6.69,9.52,10.95l1.65,2.72c.78,1.29,2.13,2.06,3.61,2.06s2.83-.77,3.61-2.06l1.66-2.72c2.59-4.26,5.79-7.94,9.53-10.95l2.42-1.95c1.04-.84,1.64-2.1,1.64-3.46s-.6-2.62-1.64-3.46l-2.42-1.95c-3.73-3.01-6.94-6.69-9.52-10.95l-1.66-2.72c-.78-1.29-2.13-2.06-3.61-2.06h0Z"/>
          <path class="cls-1" d="M52.4,49.94l-1.66-2.72c-.45-.74-1.43-.74-1.88,0l-1.66,2.72c-2.77,4.56-6.23,8.54-10.24,11.76l-2.42,1.95c-.63.5-.63,1.54,0,2.05l2.42,1.95c4,3.22,7.47,7.2,10.24,11.76l1.66,2.72c.45.74,1.43.74,1.88,0l1.66-2.72c2.77-4.56,6.23-8.54,10.24-11.76l2.43-1.95c.63-.5.63-1.54,0-2.05l-2.43-1.95c-4-3.22-7.47-7.2-10.24-11.76Z"/>
        </g>
      </g>
      <g>
        <path class="cls-1" d="M81.04,81.36l-.62-1.02c-.17-.28-.53-.28-.7,0l-.62,1.02c-1.04,1.71-2.34,3.2-3.84,4.41l-.91.73c-.23.19-.23.58,0,.77l.91.73c1.5,1.21,2.8,2.7,3.84,4.41l.62,1.02c.17.28.53.28.7,0l.62-1.02c1.04-1.71,2.34-3.2,3.84-4.41l.91-.73c.23-.19.23-.58,0-.77l-.91-.73c-1.5-1.21-2.8-2.7-3.84-4.41Z"/>
        <path class="cls-1" d="M20.53,38.34l-.62-1.02c-.17-.28-.53-.28-.7,0l-.62,1.02c-1.04,1.71-2.34,3.2-3.84,4.41l-.91.73c-.23.19-.23.58,0,.77l.91.73c1.5,1.21,2.8,2.7,3.84,4.41l.62,1.02c.17.28.53.28.7,0l.62-1.02c1.04-1.71,2.34-3.2,3.84-4.41l.91-.73c.23-.19.23-.58,0-.77l-.91-.73c-1.5-1.21-2.8-2.7-3.84-4.41Z"/>
        <path class="cls-1" d="M31.14,31.71l-8.85.61c-.44-1.26-1.02-3.04-1.02-3.04l-6.25.23s-.38,1.2-.67,2.42l-5.9.23,7.6-18.67-1.14-2.31c2.92-.79,4.91-1.29,7.19-2.16l9.06,22.67ZM19.8,24.9l-1.75-5.52-1.69,5.81,3.45-.29Z"/>
        <path class="cls-1" d="M68.39,98.82l8.85-.61c.44,1.26,1.02,3.04,1.02,3.04l6.25-.23s.38-1.2.67-2.43l5.9-.23-7.6,18.67,1.14,2.31c-2.92.79-4.91,1.29-7.19,2.16l-9.06-22.67ZM79.73,105.62l1.75,5.52,1.69-5.81-3.45.29Z"/>
      </g>
    </g>
  </g>
</svg>