<?xml version="1.0" encoding="UTF-8"?>
<svg id="Layer_2" data-name="Layer 2" xmlns="http://www.w3.org/2000/svg" viewBox="0 0 100.12 130">
  <defs>
    <style>
      .cls-1 {
        fill: #db2626;
      }

      .cls-2 {
        fill: #fff;
      }

      .cls-3 {
        fill: #f2f2f2;
      }

      .cls-4 {
        fill: #edb53a;
      }

      .cls-5 {
        fill: #ffe3e3;
      }
    </style>
  </defs>
  <g id="Cards">
    <g>
      <rect class="cls-3" width="100.12" height="130" rx="16.74" ry="16.74"/>
      <rect class="cls-2" x="4.19" y="4.19" width="91.73" height="121.61" rx="12.54" ry="12.54"/>
      <g>
        <rect class="cls-5" x="19.66" y="18.48" width="60.81" height="93.04" rx="12.54" ry="12.54"/>
        <g>
          <path class="cls-4" d="M58.68,79.24h-17.23c-1.44,0-2.62,1.18-2.62,2.62v16.14c0,1.44,1.18,2.62,2.62,2.62h3.85s4.17,1.53,9.77,0h3.61c1.44,0,2.62-1.18,2.62-2.62v-16.14c0-1.44-1.18-2.62-2.62-2.62Z"/>
          <g>
            <path class="cls-2" d="M36.73,68.55s-3.32,13.12,13.25,13.12c0,0,.16-13.12-13.25-13.12Z"/>
            <path class="cls-2" d="M63.39,68.55s3.32,13.12-13.25,13.12c0,0-.16-13.12,13.25-13.12Z"/>
          </g>
          <path class="cls-4" d="M64.24,33.48c0-.73-.63-1.31-1.37-1.23-.55.06-1.01.51-1.08,1.06-.07.57.24,1.07.71,1.29l-2.5,4.3c-.15.26-.55.22-.64-.07l-1.1-3.44c.42-.11.71-.53.63-1-.06-.34-.33-.62-.67-.69-.56-.12-1.06.31-1.06.85,0,.32.17.59.42.74l-2.45,3.16c-.18.23-.48.33-.76.26l-.11-.03c-.21-.05-.38-.2-.48-.39l-2.69-5.61c.83-.41,1.38-1.29,1.29-2.3-.11-1.13-1.06-2.04-2.19-2.09-1.33-.06-2.43,1-2.43,2.31,0,.91.53,1.7,1.3,2.08l-2.65,5.52c-.12.24-.36.4-.63.41h0c-.23,0-.46-.09-.6-.28l-2.4-3.03c.32-.17.52-.53.44-.93-.06-.34-.33-.61-.67-.68-.56-.12-1.06.31-1.06.85,0,.39.25.71.6.82l-1.11,3.45c-.09.29-.49.33-.64.07l-2.55-4.38c.4-.26.64-.73.55-1.26-.09-.49-.48-.89-.97-.99-.79-.15-1.48.45-1.48,1.21,0,.68.55,1.23,1.23,1.23.06,0,.12,0,.18-.02l1.03,10.52h-.4c-.37,0-.71.27-.74.65-.04.43.29.79.71.79h24.35c.37,0,.71-.27.74-.65.04-.43-.29-.79-.71-.79h-.29l1.03-10.5c.67,0,1.22-.56,1.22-1.23Z"/>
          <g>
            <path class="cls-1" d="M47.77,89.65l-1.27-2.01-9.9-.28s1.37,7.43-2.29,11.01c0,0,5.51,2.97,9.44,1.4,3.93-1.57,4.02-10.11,4.02-10.11Z"/>
            <path class="cls-2" d="M48.58,89.65c1.24.05,1.67-1.62.57-2.18-4.53-2.29-11.18-5.23-13.53-4.06-3.69,1.85-2.31,6,3.23,6,2.85,0,6.69.12,9.73.24Z"/>
            <path class="cls-2" d="M48.39,88.37s1.14,13.33-6.47,13.33-10.57-1.75-9.09-2.97,6.9,1.05,9.96.35c3.06-.7,3.32-7.86,3.41-10.22.09-2.36,2.13-2.47,2.18-.49Z"/>
            <path class="cls-1" d="M52.35,89.65l1.27-2.01,9.9-.28s-1.37,7.43,2.29,11.01c0,0-5.51,2.97-9.44,1.4-3.93-1.57-4.02-10.11-4.02-10.11Z"/>
            <path class="cls-2" d="M51.55,89.65c-1.24.05-1.67-1.62-.57-2.18,4.53-2.29,11.18-5.23,13.53-4.06,3.69,1.85,2.31,6-3.23,6-2.85,0-6.69.12-9.73.24Z"/>
            <path class="cls-2" d="M51.73,88.37s-1.14,13.33,6.47,13.33,10.57-1.75,9.09-2.97-6.9,1.05-9.96.35c-3.06-.7-3.32-7.86-3.41-10.22-.09-2.36-2.13-2.47-2.18-.49Z"/>
          </g>
          <g>
            <g>
              <circle class="cls-1" cx="50.2" cy="92.95" r=".52"/>
              <circle class="cls-1" cx="50.2" cy="95.76" r=".52"/>
              <circle class="cls-1" cx="50.2" cy="98.57" r=".52"/>
            </g>
            <path class="cls-1" d="M50.58,86.53l-.24-.4c-.07-.11-.21-.11-.28,0l-.24.4c-.41.67-.92,1.26-1.51,1.74l-.36.29c-.09.07-.09.23,0,.3l.36.29c.59.48,1.1,1.06,1.51,1.74l.24.4c.07.11.21.11.28,0l.24-.4c.41-.67.92-1.26,1.51-1.74l.36-.29c.09-.07.09-.23,0-.3l-.36-.29c-.59-.48-1.1-1.06-1.51-1.74Z"/>
            <path class="cls-2" d="M41.23,92.17l-.24-.4c-.07-.11-.21-.11-.28,0l-.24.4c-.41.67-.92,1.26-1.51,1.74l-.36.29c-.09.07-.09.23,0,.3l.36.29c.59.48,1.1,1.06,1.51,1.74l.24.4c.07.11.21.11.28,0l.24-.4c.41-.67.92-1.26,1.51-1.74l.36-.29c.09-.07.09-.23,0-.3l-.36-.29c-.59-.48-1.1-1.06-1.51-1.74Z"/>
            <path class="cls-2" d="M59.66,92.17l-.24-.4c-.07-.11-.21-.11-.28,0l-.24.4c-.41.67-.92,1.26-1.51,1.74l-.36.29c-.09.07-.09.23,0,.3l.36.29c.59.48,1.1,1.06,1.51,1.74l.24.4c.07.11.21.11.28,0l.24-.4c.41-.67.92-1.26,1.51-1.74l.36-.29c.09-.07.09-.23,0-.3l-.36-.29c-.59-.48-1.1-1.06-1.51-1.74Z"/>
          </g>
          <path class="cls-1" d="M52.67,52.11l-1.66-2.74c-.45-.74-1.43-.74-1.88,0l-1.66,2.74c-2.78,4.58-6.26,8.58-10.29,11.82l-2.44,1.96c-.63.51-.63,1.55,0,2.06l2.44,1.96c4.02,3.24,7.5,7.24,10.29,11.82l1.66,2.74c.45.74,1.43.74,1.88,0l1.66-2.74c2.78-4.58,6.26-8.58,10.29-11.82l2.44-1.96c.63-.51.63-1.55,0-2.06l-2.44-1.96c-4.02-3.24-7.5-7.24-10.29-11.82Z"/>
          <g>
            <g>
              <path class="cls-2" d="M44.85,55.95s-3.95,12.96-14.24,15.32c0,0-6.24-20.77,14.24-15.32Z"/>
              <path class="cls-2" d="M30.5,72s-3.68-.78-3.41,2.89c.26,3.67-.2,5.18-2.75,5.24,0,0,5.56,3.47,7.04.39,1.48-3.08-2.05-6.9-.88-8.53Z"/>
              <circle class="cls-1" cx="30.5" cy="72" r="1.15"/>
            </g>
            <g>
              <path class="cls-2" d="M55.27,55.95s3.95,12.96,14.24,15.32c0,0,6.24-20.77-14.24-15.32Z"/>
              <path class="cls-2" d="M69.62,72s3.68-.78,3.41,2.89c-.26,3.67.2,5.18,2.75,5.24,0,0-5.56,3.47-7.04.39-1.48-3.08,2.05-6.9.88-8.53Z"/>
              <circle class="cls-1" cx="69.62" cy="72" r="1.15"/>
            </g>
          </g>
          <g>
            <g>
              <path class="cls-2" d="M41.97,74.62c-.1,0-.2-.04-.28-.12-.15-.15-.15-.4,0-.56l3.32-3.32c.15-.15.4-.15.56,0s.15.4,0,.56l-3.32,3.32c-.08.08-.18.12-.28.12Z"/>
              <path class="cls-2" d="M38.8,74.62c-.1,0-.2-.04-.28-.12-.15-.15-.15-.4,0-.56l3.32-3.32c.15-.15.4-.15.56,0,.15.15.15.4,0,.56l-3.32,3.32c-.08.08-.18.12-.28.12Z"/>
              <path class="cls-2" d="M35.63,74.62c-.1,0-.2-.04-.28-.12-.15-.15-.15-.4,0-.56l3.32-3.32c.15-.15.4-.15.56,0,.15.15.15.4,0,.56l-3.32,3.32c-.08.08-.18.12-.28.12Z"/>
            </g>
            <g>
              <path class="cls-2" d="M61.17,74.62c-.1,0-.2-.04-.28-.12-.15-.15-.15-.4,0-.56l3.32-3.32c.15-.15.4-.15.56,0,.15.15.15.4,0,.56l-3.32,3.32c-.08.08-.18.12-.28.12Z"/>
              <path class="cls-2" d="M58,74.62c-.1,0-.2-.04-.28-.12-.15-.15-.15-.4,0-.56l3.32-3.32c.15-.15.4-.15.56,0s.15.4,0,.56l-3.32,3.32c-.08.08-.18.12-.28.12Z"/>
              <path class="cls-2" d="M54.83,74.62c-.1,0-.2-.04-.28-.12-.15-.15-.15-.4,0-.56l3.32-3.32c.15-.15.4-.15.56,0s.15.4,0,.56l-3.32,3.32c-.08.08-.18.12-.28.12Z"/>
            </g>
          </g>
        </g>
      </g>
      <g>
        <path class="cls-1" d="M81.44,81.77l-.62-1.03c-.17-.28-.54-.28-.71,0l-.62,1.03c-1.04,1.72-2.35,3.22-3.86,4.43l-.91.74c-.24.19-.24.58,0,.77l.91.74c1.51,1.21,2.81,2.71,3.86,4.43l.62,1.03c.17.28.54.28.71,0l.62-1.03c1.04-1.72,2.35-3.22,3.86-4.43l.91-.74c.24-.19.24-.58,0-.77l-.91-.74c-1.51-1.21-2.81-2.71-3.86-4.43Z"/>
        <path class="cls-1" d="M20.63,38.53l-.62-1.03c-.17-.28-.54-.28-.71,0l-.62,1.03c-1.04,1.72-2.35,3.22-3.86,4.43l-.91.74c-.24.19-.24.58,0,.77l.91.74c1.51,1.21,2.81,2.71,3.86,4.43l.62,1.03c.17.28.54.28.71,0l.62-1.03c1.04-1.72,2.35-3.22,3.86-4.43l.91-.74c.24-.19.24-.58,0-.77l-.91-.74c-1.51-1.21-2.81-2.71-3.86-4.43Z"/>
        <path class="cls-1" d="M30.82,32.1l-6.78-.03c-1.2.35-2.53.59-4.02.59-5.46,0-11.07-3.99-11.07-10.86s4.37-11.92,11.39-11.92c6.49,0,11.22,4.26,11.22,11.19,0,2.35-.85,4.82-2,6.69.91-.09,2.29-.26,2.88-.35l-1.62,4.7ZM19.23,15.16c-1.17,0-1.91.82-1.91,2.17,0,3.85,1.97,10.42,4.4,10.42,1.15,0,1.82-.76,1.82-2.67,0-3.23-2.35-9.92-4.32-9.92Z"/>
        <path class="cls-1" d="M69.21,99.07l6.78.03c1.2-.35,2.53-.59,4.02-.59,5.46,0,11.07,3.99,11.07,10.86s-4.38,11.92-11.39,11.92c-6.49,0-11.22-4.26-11.22-11.19,0-2.35.85-4.82,2-6.69-.91.09-2.29.26-2.88.35l1.62-4.7ZM80.8,116.02c1.17,0,1.91-.82,1.91-2.17,0-3.85-1.97-10.42-4.4-10.42-1.14,0-1.82.76-1.82,2.67,0,3.23,2.35,9.92,4.32,9.92Z"/>
      </g>
    </g>
  </g>
</svg>