<?xml version="1.0" encoding="UTF-8"?>
<svg id="Layer_2" data-name="Layer 2" xmlns="http://www.w3.org/2000/svg" viewBox="0 0 99.62 129.35">
  <defs>
    <style>
      .cls-1 {
        fill: #db2626;
      }

      .cls-2 {
        fill: #fff;
      }

      .cls-3 {
        fill: #f2f2f2;
      }

      .cls-4 {
        fill: #ffe3e3;
      }
    </style>
  </defs>
  <g id="Cards">
    <g>
      <rect class="cls-3" width="99.62" height="129.35" rx="16.65" ry="16.65"/>
      <rect class="cls-2" x="4.17" y="4.17" width="91.28" height="121.01" rx="12.48" ry="12.48"/>
      <g>
        <rect class="cls-4" x="19.56" y="18.39" width="60.5" height="92.57" rx="12.48" ry="12.48"/>
        <path class="cls-1" d="M52.4,49.94l-1.66-2.72c-.45-.74-1.43-.74-1.88,0l-1.66,2.72c-2.77,4.56-6.23,8.54-10.24,11.76l-2.42,1.95c-.63.5-.63,1.54,0,2.05l2.42,1.95c4,3.22,7.47,7.21,10.24,11.76l1.66,2.72c.45.74,1.43.74,1.88,0l1.66-2.72c2.77-4.56,6.23-8.54,10.24-11.76l2.42-1.95c.63-.5.63-1.54,0-2.05l-2.42-1.95c-4-3.22-7.47-7.21-10.24-11.76Z"/>
      </g>
      <g>
        <path class="cls-1" d="M81.04,81.36l-.62-1.02c-.17-.28-.53-.28-.7,0l-.62,1.02c-1.04,1.71-2.34,3.2-3.84,4.41l-.91.73c-.23.19-.23.58,0,.77l.91.73c1.5,1.21,2.8,2.7,3.84,4.41l.62,1.02c.17.28.53.28.7,0l.62-1.02c1.04-1.71,2.34-3.2,3.84-4.41l.91-.73c.23-.19.23-.58,0-.77l-.91-.73c-1.5-1.21-2.8-2.7-3.84-4.41Z"/>
        <path class="cls-1" d="M20.53,38.34l-.62-1.02c-.17-.28-.53-.28-.7,0l-.62,1.02c-1.04,1.71-2.34,3.2-3.84,4.41l-.91.73c-.23.19-.23.58,0,.77l.91.73c1.5,1.21,2.8,2.7,3.84,4.41l.62,1.02c.17.28.53.28.7,0l.62-1.02c1.04-1.71,2.34-3.2,3.84-4.41l.91-.73c.23-.19.23-.58,0-.77l-.91-.73c-1.5-1.21-2.8-2.7-3.84-4.41Z"/>
        <path class="cls-1" d="M13.3,33.14l-1.61-3.65c6.87-1.96,7.45-3.97,7.45-5.79,0-1.11-.96-1.55-2.28-1.55-.38,0-1.05.09-1.4.15l-.73-2.92c2.63-.76,3.51-1.46,3.51-2.57,0-1.05-.61-1.37-1.96-1.37s-3.24.56-4.85,1.26l.26-4.97c1.72-.76,4.38-1.69,7.86-1.69,4.65,0,7.04,1.52,7.04,4.21,0,1.9-.96,3.33-3.01,4.65,2.54.5,4.59,1.84,4.59,4.79,0,4.88-6.6,8.01-14.87,9.47Z"/>
        <path class="cls-1" d="M86.23,97.38l1.61,3.65c-6.87,1.96-7.45,3.97-7.45,5.79,0,1.11.96,1.55,2.28,1.55.38,0,1.05-.09,1.4-.15l.73,2.92c-2.63.76-3.51,1.46-3.51,2.57,0,1.05.61,1.37,1.96,1.37s3.24-.56,4.85-1.26l-.26,4.97c-1.72.76-4.38,1.7-7.86,1.7-4.65,0-7.04-1.52-7.04-4.21,0-1.9.96-3.33,3.01-4.65-2.54-.5-4.59-1.84-4.59-4.79,0-4.88,6.6-8.01,14.87-9.47Z"/>
      </g>
    </g>
  </g>
</svg>