<?xml version="1.0" encoding="UTF-8"?>
<svg id="Layer_2" data-name="Layer 2" xmlns="http://www.w3.org/2000/svg" viewBox="0 0 99.62 129.35">
  <defs>
    <style>
      .cls-1 {
        fill: #db2626;
      }

      .cls-2 {
        fill: #fff;
      }

      .cls-3 {
        fill: #f2f2f2;
      }

      .cls-4 {
        fill: #ffe3e3;
      }
    </style>
  </defs>
  <g id="Cards">
    <g>
      <rect class="cls-3" width="99.62" height="129.35" rx="16.65" ry="16.65"/>
      <rect class="cls-2" x="4.17" y="4.17" width="91.28" height="121.01" rx="12.48" ry="12.48"/>
      <g>
        <rect class="cls-4" x="19.56" y="18.39" width="60.5" height="92.57" rx="12.48" ry="12.48"/>
        <path class="cls-1" d="M52.4,49.94l-1.66-2.72c-.45-.74-1.43-.74-1.88,0l-1.66,2.72c-2.77,4.56-6.23,8.54-10.24,11.76l-2.42,1.95c-.63.5-.63,1.54,0,2.05l2.42,1.95c4,3.22,7.47,7.2,10.24,11.76l1.66,2.72c.45.74,1.43.74,1.88,0l1.66-2.72c2.77-4.56,6.23-8.54,10.24-11.76l2.43-1.95c.63-.5.63-1.54,0-2.05l-2.43-1.95c-4-3.22-7.47-7.21-10.24-11.76Z"/>
      </g>
      <g>
        <path class="cls-1" d="M81.04,81.36l-.62-1.02c-.17-.28-.53-.28-.7,0l-.62,1.02c-1.04,1.71-2.34,3.2-3.84,4.41l-.91.73c-.23.19-.23.58,0,.77l.91.73c1.5,1.21,2.8,2.7,3.84,4.41l.62,1.02c.17.28.53.28.7,0l.62-1.02c1.04-1.71,2.34-3.2,3.84-4.41l.91-.73c.23-.19.23-.58,0-.77l-.91-.73c-1.5-1.21-2.8-2.7-3.84-4.41Z"/>
        <path class="cls-1" d="M20.53,38.34l-.62-1.02c-.17-.28-.53-.28-.7,0l-.62,1.02c-1.04,1.71-2.34,3.2-3.84,4.41l-.91.73c-.23.19-.23.58,0,.77l.91.73c1.5,1.21,2.8,2.7,3.84,4.41l.62,1.02c.17.28.53.28.7,0l.62-1.02c1.04-1.71,2.34-3.2,3.84-4.41l.91-.73c.23-.19.23-.58,0-.77l-.91-.73c-1.5-1.21-2.8-2.7-3.84-4.41Z"/>
        <path class="cls-1" d="M17.95,33.46l-2.81-3.1c2.34-1.17,5.23-3.65,6.19-6.19-1.08.38-2.05.64-3.62.64-3.74,0-7.19-2.02-7.19-6.87,0-4.32,3.92-7.86,10.05-7.86,4.76,0,8.62,3.24,8.62,8.12,0,6.63-3.91,11.16-11.25,15.25ZM19.85,14.73c-1.2,0-2.07.91-2.07,2.54,0,1.81.73,2.83,1.96,2.83,1.37,0,2.13-1.34,2.13-2.83s-.76-2.54-2.02-2.54Z"/>
        <path class="cls-1" d="M81.58,97.06l2.8,3.1c-2.34,1.17-5.23,3.65-6.19,6.19,1.08-.38,2.05-.64,3.62-.64,3.74,0,7.19,2.02,7.19,6.87,0,4.32-3.91,7.86-10.05,7.86-4.76,0-8.62-3.24-8.62-8.12,0-6.63,3.91-11.16,11.25-15.25ZM79.68,115.79c1.2,0,2.07-.91,2.07-2.54,0-1.81-.73-2.83-1.96-2.83-1.37,0-2.13,1.34-2.13,2.83s.76,2.54,2.02,2.54Z"/>
      </g>
    </g>
  </g>
</svg>