<svg width="100%" height="100%" overflow="visible" style="display: block;" viewBox="0 0 24 24" fill="none" xmlns="http://www.w3.org/2000/svg">
<g id="Frame" clip-path="url(#clip0_86_474)">
<circle id="Ellipse 1" cx="12" cy="12" r="12" fill="black"/>
<g id="Group 6">
<path id="Vector" fill-rule="evenodd" clip-rule="evenodd" d="M19.3972 3.86052C14.9027 -0.225715 7.947 0.105431 3.86077 4.60055C-0.225799 9.09568 0.105348 16.0511 4.6008 20.1373C9.09559 24.2235 16.0513 23.8937 20.1376 19.3986C24.2238 14.9031 23.892 7.94709 19.3972 3.86052Z" fill="#E6E6E6"/>
<path id="Vector_2" fill-rule="evenodd" clip-rule="evenodd" d="M22.9384 13.1652L20.1489 12.8615C20.2687 11.7229 20.1496 10.567 19.7953 9.47299L22.4673 8.61419C22.9417 10.0837 23.1008 11.6365 22.9384 13.1652Z" fill="#73D1D3"/>
<path id="Vector_3" fill-rule="evenodd" clip-rule="evenodd" d="M5.89183 17.4626L3.80273 19.336C2.74214 18.154 1.97928 16.7911 1.51978 15.3497L4.19177 14.4903C4.53317 15.5654 5.10119 16.582 5.89183 17.4626Z" fill="#73D1D3"/>
<path id="Vector_4" fill-rule="evenodd" clip-rule="evenodd" d="M11.0805 3.85612C9.72683 4.00697 8.40621 4.49559 7.25497 5.31469L5.61975 3.03437C7.16698 1.9311 8.94445 1.27278 10.7659 1.06834L11.0802 3.85612H11.0805Z" fill="#73D1D3"/>
<path id="Vector_5" fill-rule="evenodd" clip-rule="evenodd" d="M20.1488 12.8613C20.0314 13.9851 19.681 15.091 19.0958 16.102C18.8077 16.5969 18.4646 17.0706 18.0633 17.5116C17.6773 17.936 17.2578 18.3105 16.8112 18.6337H16.8105C15.6431 19.4826 14.2977 19.9874 12.9168 20.1416C11.4804 20.3043 10.0053 20.0866 8.6556 19.4822C7.88149 19.1369 7.1484 18.6638 6.48677 18.062C6.27571 17.8708 6.07788 17.6704 5.89163 17.4626C5.10099 16.582 4.53298 15.5657 4.19157 14.4902C3.84091 13.3886 3.72711 12.2255 3.8548 11.0818C3.98051 9.95409 4.34077 8.84586 4.93922 7.83455C5.21843 7.36082 5.55089 6.90926 5.93497 6.48648C6.34055 6.04054 6.78318 5.64918 7.25493 5.31407C8.40583 4.49497 9.72645 4.00635 11.0805 3.8555C12.5162 3.69373 13.989 3.91042 15.3374 4.51316C16.1132 4.85853 16.8479 5.33226 17.5112 5.93501C17.7173 6.12225 17.9118 6.31776 18.0931 6.52022V6.52088C18.8821 7.39622 19.4508 8.40422 19.7948 9.47209C20.1491 10.5661 20.2682 11.722 20.1485 12.8606L20.1488 12.8613Z" fill="#5191A4"/>
<path id="Vector_6" fill-rule="evenodd" clip-rule="evenodd" d="M13.2321 22.9304C11.3038 23.1481 9.32389 22.8556 7.51135 22.0455L8.65564 19.4826C10.0054 20.0867 11.4801 20.3044 12.9169 20.142L13.2321 22.9304Z" fill="#73D1D3"/>
<path id="Vector_7" fill-rule="evenodd" clip-rule="evenodd" d="M20.1833 4.64755L18.0936 6.52095C17.9123 6.31816 17.7174 6.12265 17.5117 5.93574C16.8484 5.33333 16.1137 4.85927 15.3379 4.5139L16.4815 1.95107C17.5233 2.41487 18.5091 3.05136 19.399 3.85987C19.6762 4.11195 19.9372 4.37528 20.1837 4.64788L20.1833 4.64755Z" fill="#73D1D3"/>
<path id="Vector_8" fill-rule="evenodd" clip-rule="evenodd" d="M4.9394 7.83508C4.34096 8.84639 3.9807 9.95462 3.85499 11.0824L1.06555 10.7787C1.23294 9.26586 1.71461 7.77785 2.51585 6.41986L4.93907 7.83508H4.9394Z" fill="#73D1D3"/>
<path id="Vector_9" fill-rule="evenodd" clip-rule="evenodd" d="M21.5181 17.5176C21.134 18.1793 20.6742 18.8105 20.1393 19.4C19.6179 19.9729 19.0509 20.4784 18.4475 20.9151L16.8113 18.6338C17.2579 18.3103 17.6774 17.9361 18.0634 17.5117C18.4647 17.071 18.8078 16.5973 19.0959 16.1021L21.5181 17.5173V17.5176Z" fill="#73D1D3"/>
<path id="Vector_10" fill-rule="evenodd" clip-rule="evenodd" d="M11.9945 19.3967C11.8599 19.3967 11.7229 19.3928 11.5883 19.3855L11.6154 18.8936C11.7411 18.9005 11.8688 18.9038 11.9949 18.9038H11.9969C12.1834 18.9038 12.372 18.8962 12.5579 18.8813L12.5976 19.3723C12.3978 19.3885 12.191 19.3964 11.9945 19.3967ZM10.5863 19.2614C10.2564 19.1973 9.92794 19.1103 9.61035 19.0021L9.76915 18.5356C10.0656 18.6365 10.3722 18.7182 10.6799 18.7778L10.5863 19.2614ZM13.596 19.2227L13.4898 18.7417C13.7958 18.6742 14.1005 18.5849 14.3939 18.4767L14.5643 18.9389C14.2497 19.055 13.9235 19.1503 13.5957 19.2227H13.596ZM8.67944 18.6117C8.37972 18.4612 8.08728 18.2878 7.81039 18.0973L8.0896 17.6917C8.34796 17.8697 8.62089 18.0311 8.90042 18.1721L8.67944 18.612V18.6117ZM15.4856 18.5254L15.2534 18.091C15.5296 17.9435 15.7979 17.7754 16.0517 17.5912L16.3411 17.9898C16.0695 18.1873 15.7817 18.3676 15.4856 18.5254ZM7.01974 17.4694C6.77063 17.2425 6.53542 16.9977 6.32106 16.7413L6.69852 16.425C6.89899 16.6645 7.11865 16.8935 7.35122 17.1052L7.01974 17.4694ZM17.1156 17.342L16.7745 16.9864C16.889 16.8766 17.0014 16.7611 17.1083 16.6437C17.2128 16.5289 17.3141 16.4095 17.4097 16.2891L17.7954 16.5954C17.6932 16.7241 17.5847 16.8518 17.4728 16.9748C17.3584 17.1006 17.2383 17.2243 17.1159 17.3417L17.1156 17.342ZM5.72757 15.9248C5.54926 15.6403 5.38915 15.3409 5.25153 15.0346L5.70078 14.8328C5.82946 15.1186 5.97866 15.3978 6.14473 15.6632L5.72757 15.9245V15.9248ZM18.368 15.7644L17.9443 15.5133C18.104 15.2437 18.2463 14.9605 18.3677 14.6717L18.8219 14.8623C18.6922 15.1719 18.5394 15.4753 18.368 15.7644ZM4.90186 14.0875C4.80757 13.7656 4.73413 13.4338 4.68418 13.102L5.17114 13.0285C5.21812 13.3388 5.28626 13.6485 5.37426 13.9489L4.90153 14.0875H4.90186ZM19.1478 13.9065L18.6717 13.7798C18.7521 13.4771 18.8123 13.1658 18.851 12.8545L19.34 12.9151C19.2986 13.2485 19.2341 13.582 19.1478 13.9062V13.9065ZM4.60247 12.096C4.60181 12.0626 4.60181 12.0295 4.60181 11.9964C4.60181 11.6934 4.62066 11.388 4.65771 11.088L5.14666 11.1482C5.11226 11.4284 5.09472 11.7139 5.09472 11.9964C5.09472 12.0272 5.09472 12.0583 5.09538 12.0894L4.6028 12.096H4.60247ZM18.9036 11.9137C18.8993 11.6001 18.8742 11.2842 18.8279 10.9742L19.3148 10.9014C19.3648 11.2332 19.3916 11.5716 19.3962 11.9074L18.9036 11.9137ZM5.32497 10.2229L4.84893 10.0965C4.93494 9.77166 5.04444 9.45011 5.17412 9.14047L5.62866 9.33068C5.50758 9.61949 5.40569 9.91954 5.32497 10.2226V10.2229ZM18.6251 10.0535C18.5368 9.75247 18.4273 9.45507 18.2992 9.16958L18.7485 8.96811C18.8858 9.27411 19.0032 9.59302 19.0975 9.91557L18.6247 10.0538L18.6251 10.0535ZM6.05144 8.48909L5.62734 8.23833C5.79804 7.94986 5.99057 7.66999 6.19998 7.40666L6.58538 7.713C6.3902 7.95912 6.21056 8.22014 6.05111 8.48942L6.05144 8.48909ZM17.8556 8.3389C17.6899 8.07358 17.5036 7.8172 17.3025 7.5767L17.6806 7.26077C17.8963 7.51881 18.0954 7.79338 18.2734 8.07755L17.8556 8.3389ZM7.22054 7.01498L6.87947 6.65968C7.12163 6.42645 7.38231 6.20845 7.65325 6.01128L7.94304 6.40958C7.68997 6.59352 7.44715 6.7973 7.22054 7.01498ZM16.6501 6.89588L16.6451 6.89125C16.4106 6.6782 16.1622 6.48137 15.9048 6.30405L16.184 5.89847C16.4596 6.08803 16.7255 6.29909 16.975 6.52537L16.9822 6.53198L16.6501 6.89555V6.89588ZM8.74064 5.90939L8.50808 5.47503C8.80416 5.3169 9.1138 5.17762 9.42907 5.06118L9.59977 5.52333C9.30567 5.63183 9.01687 5.76185 8.74064 5.90939ZM15.0936 5.82503C14.8134 5.68443 14.521 5.56203 14.2246 5.46113L14.383 4.99468C14.7009 5.10253 15.0146 5.23386 15.3146 5.38438L15.0936 5.8247V5.82503ZM10.5039 5.25768L10.3977 4.77668C10.7252 4.70423 11.061 4.65394 11.3958 4.62649L11.4358 5.11742C11.1232 5.14289 10.8096 5.18987 10.5039 5.25735V5.25768ZM13.3138 5.21997C13.0065 5.16075 12.6916 5.12172 12.3786 5.10485L12.4054 4.61292C12.7409 4.63112 13.078 4.6728 13.4075 4.73632L13.3142 5.21997H13.3138Z" fill="#E6E6E6"/>
<path id="Vector_11" fill-rule="evenodd" clip-rule="evenodd" d="M15.8876 7.72194C13.5252 5.57429 9.86936 5.74863 7.7217 8.11098C5.57405 10.4733 5.74806 14.1288 8.11074 16.2765C10.4731 18.4242 14.1289 18.2508 16.2769 15.8881C18.4246 13.5254 18.2502 9.8696 15.8879 7.72194H15.8876Z" fill="#73D1D3"/>
</g>
</g>
<defs>
<clipPath id="clip0_86_474">
<rect width="24" height="24" fill="white"/>
</clipPath>
</defs>
</svg>
