<svg width="100%" height="100%" overflow="visible" style="display: block;" viewBox="0 0 24 23.9997" fill="none" xmlns="http://www.w3.org/2000/svg">
<g id="Frame" clip-path="url(#clip0_86_504)">
<circle id="Ellipse 1" cx="12" cy="12" r="12" fill="black"/>
<g id="Group 7">
<path id="Vector" fill-rule="evenodd" clip-rule="evenodd" d="M19.3973 3.86054C14.9028 -0.225722 7.94703 0.105426 3.86078 4.60058C-0.225804 9.09572 0.105343 16.0512 4.60082 20.1374C9.09563 24.2237 16.0514 23.8939 20.1376 19.3987C24.2239 14.9032 23.8921 7.94713 19.3973 3.86054Z" fill="#E6E6E6"/>
<path id="Vector_2" fill-rule="evenodd" clip-rule="evenodd" d="M22.9384 13.1654L20.1489 12.8617C20.2687 11.723 20.1496 10.5672 19.7953 9.47314L22.4673 8.61434C22.9417 10.0838 23.1008 11.6367 22.9384 13.1654Z" fill="#8B79C4"/>
<path id="Vector_3" fill-rule="evenodd" clip-rule="evenodd" d="M5.89173 17.463L3.80262 19.3365C2.74202 18.1545 1.97916 16.7915 1.51965 15.3501L4.19166 14.4906C4.53307 15.5658 5.10108 16.5824 5.89173 17.463Z" fill="#8B79C4"/>
<path id="Vector_4" fill-rule="evenodd" clip-rule="evenodd" d="M11.0805 3.85643C9.72685 4.00728 8.40622 4.4959 7.25498 5.31501L5.61975 3.03468C7.16698 1.9314 8.94446 1.27308 10.7659 1.06863L11.0802 3.85643H11.0805Z" fill="#8B79C4"/>
<path id="Vector_5" fill-rule="evenodd" clip-rule="evenodd" d="M20.1489 12.8617C20.0314 13.9855 19.6811 15.0914 19.0959 16.1024C18.8077 16.5973 18.4647 17.0711 18.0634 17.5117C17.6773 17.9361 17.2579 18.3106 16.8113 18.6338H16.8106C15.6431 19.4827 14.2977 19.9875 12.9169 20.1417C11.4805 20.3045 10.0054 20.0868 8.65562 19.4827C7.88151 19.137 7.14842 18.6643 6.48678 18.0625C6.27572 17.8713 6.07789 17.6708 5.89164 17.4631C5.10099 16.5824 4.53298 15.5662 4.19158 14.4907C3.84091 13.3891 3.72711 12.2259 3.8548 11.0823C3.98051 9.95451 4.34077 8.84627 4.93922 7.83496C5.21843 7.36123 5.5509 6.90966 5.93498 6.48688C6.34056 6.04094 6.7832 5.64958 7.25494 5.31446C8.40585 4.49536 9.72648 4.00674 11.0805 3.85589C12.5163 3.69412 13.9891 3.91113 15.3375 4.51355C16.1132 4.85893 16.848 5.33266 17.5113 5.93541C17.7174 6.12265 17.9119 6.31816 18.0932 6.52062V6.52128C18.8822 7.39663 19.4508 8.40463 19.7949 9.47251C20.1492 10.5665 20.2683 11.7224 20.1485 12.8611L20.1489 12.8617Z" fill="#604C9C"/>
<path id="Vector_6" fill-rule="evenodd" clip-rule="evenodd" d="M13.2322 22.9304C11.3038 23.1481 9.3239 22.8556 7.51135 22.0455L8.65565 19.4826C10.0054 20.0867 11.4802 20.3044 12.9169 20.1416L13.2322 22.9301V22.9304Z" fill="#8B79C4"/>
<path id="Vector_7" fill-rule="evenodd" clip-rule="evenodd" d="M20.1834 4.64759L18.0936 6.52101C17.9123 6.31822 17.7175 6.12304 17.5117 5.93579C16.8484 5.33338 16.1137 4.85931 15.3379 4.51394L16.4815 1.9511C17.5233 2.4149 18.5091 3.0514 19.399 3.85991C19.6762 4.112 19.9372 4.37533 20.1837 4.64792L20.1834 4.64759Z" fill="#8B79C4"/>
<path id="Vector_8" fill-rule="evenodd" clip-rule="evenodd" d="M4.9393 7.83524C4.34085 8.84655 3.98059 9.95479 3.85488 11.0825L1.06543 10.7789C1.23282 9.26602 1.71449 7.77801 2.51573 6.42L4.93897 7.83524H4.9393Z" fill="#8B79C4"/>
<path id="Vector_9" fill-rule="evenodd" clip-rule="evenodd" d="M21.5181 17.5173C21.1341 18.179 20.6742 18.8102 20.1393 19.3997C19.6179 19.9727 19.0509 20.4781 18.4475 20.9148L16.8113 18.6335C17.2579 18.31 17.6774 17.9358 18.0634 17.5114C18.4647 17.0707 18.8078 16.597 19.0959 16.1021L21.5181 17.5173Z" fill="#8B79C4"/>
<path id="Vector_10" fill-rule="evenodd" clip-rule="evenodd" d="M11.9946 19.3968C11.8599 19.3968 11.723 19.3928 11.5883 19.3855L11.6155 18.8936C11.7412 18.9006 11.8689 18.9039 11.9949 18.9039H11.9969C12.1835 18.9039 12.372 18.8963 12.558 18.8814L12.5977 19.3723C12.3978 19.3885 12.1911 19.3964 11.9946 19.3968ZM10.5863 19.2615C10.2565 19.1973 9.92796 19.1103 9.61038 19.0021L9.76917 18.5357C10.0656 18.6366 10.3722 18.7183 10.6799 18.7778L10.5863 19.2615ZM13.5961 19.2228L13.4899 18.7418C13.7959 18.6743 14.1006 18.585 14.394 18.4768L14.5644 18.9389C14.2498 19.055 13.9236 19.1506 13.5957 19.2228H13.5961ZM8.67946 18.6117C8.37974 18.4612 8.0873 18.2879 7.8104 18.0973L8.08961 17.6917C8.34798 17.8697 8.6209 18.0312 8.90044 18.1721L8.67946 18.6121V18.6117ZM15.4857 18.5254L15.2535 18.091C15.5297 17.9435 15.798 17.7754 16.0517 17.5912L16.3412 17.9898C16.0696 18.1873 15.7818 18.3676 15.4857 18.5254ZM7.01975 17.4694C6.77064 17.2425 6.53543 16.9977 6.32106 16.7413L6.69853 16.425C6.899 16.6646 7.11866 16.8935 7.35123 17.1052L7.01975 17.4694ZM17.1156 17.3421L16.7746 16.9864C16.889 16.8766 17.0015 16.7612 17.1083 16.6437C17.2129 16.5289 17.3141 16.4095 17.4097 16.2891L17.7955 16.5954C17.6932 16.7241 17.5847 16.8518 17.4729 16.9749C17.3584 17.1006 17.2384 17.2243 17.116 17.3417L17.1156 17.3421ZM5.72758 15.9248C5.54927 15.6403 5.38915 15.341 5.25153 15.0346L5.70078 14.8328C5.82947 15.1186 5.97867 15.3979 6.14474 15.6632L5.72758 15.9245V15.9248ZM18.3681 15.7644L17.9443 15.5133C18.1041 15.2437 18.2464 14.9605 18.3678 14.6717L18.822 14.8623C18.6923 15.1719 18.5395 15.4753 18.3681 15.7644ZM4.90186 14.0875C4.80757 13.7656 4.73413 13.4341 4.68418 13.102L5.17114 13.0285C5.21812 13.3388 5.28627 13.6485 5.37426 13.9489L4.90153 14.0875H4.90186ZM19.1478 13.9065L18.6718 13.7798C18.7522 13.4771 18.8124 13.1662 18.8511 12.8545L19.34 12.9151C19.2987 13.2485 19.2342 13.582 19.1478 13.9062V13.9065ZM4.60247 12.096C4.60181 12.0629 4.60181 12.0298 4.60181 11.9964C4.60181 11.6934 4.62066 11.388 4.65771 11.088L5.14666 11.1482C5.11226 11.4284 5.09472 11.7139 5.09472 11.9964C5.09472 12.0272 5.09472 12.0583 5.09539 12.0893L4.6028 12.096H4.60247ZM18.9037 11.9137C18.8994 11.6001 18.8742 11.2841 18.8279 10.9742L19.3149 10.9014C19.3649 11.2332 19.3916 11.5716 19.3963 11.9074L18.9037 11.9137ZM5.32497 10.2229L4.84893 10.0965C4.93494 9.77164 5.04444 9.45009 5.17412 9.14044L5.62866 9.33066C5.50758 9.61946 5.40569 9.91951 5.32497 10.2225V10.2229ZM18.6251 10.0535C18.5368 9.75245 18.4273 9.45505 18.2993 9.16955L18.7485 8.96808C18.8858 9.27409 19.0033 9.593 19.0976 9.91555L18.6248 10.0538L18.6251 10.0535ZM6.05145 8.48906L5.62734 8.2383C5.79804 7.94983 5.99058 7.66996 6.19998 7.40662L6.58539 7.71296C6.3902 7.95909 6.21057 8.22044 6.05112 8.48939L6.05145 8.48906ZM17.8557 8.33887C17.6899 8.07355 17.5037 7.81717 17.3025 7.57666L17.6807 7.26073C17.8964 7.51877 18.0955 7.79335 18.2735 8.07752L17.8557 8.33887ZM7.22055 7.01494L6.87948 6.65964C7.12164 6.42641 7.38232 6.2084 7.65326 6.01124L7.94306 6.40954C7.68998 6.59347 7.44716 6.79726 7.22055 7.01494ZM16.6502 6.89584L16.6452 6.89121C16.4107 6.67816 16.1622 6.48133 15.9048 6.30401L16.184 5.89843C16.4596 6.08799 16.7256 6.29905 16.975 6.52533L16.9823 6.53194L16.6502 6.89551V6.89584ZM8.74066 5.90934L8.5081 5.47498C8.80418 5.31685 9.11382 5.17724 9.42909 5.06113L9.59979 5.52328C9.30569 5.63179 9.01689 5.7618 8.74066 5.90934ZM15.0937 5.82499C14.8135 5.68439 14.521 5.56199 14.2246 5.46109L14.3831 4.99463C14.701 5.10248 15.0146 5.23381 15.3147 5.38467L15.0937 5.82499ZM10.5039 5.25763L10.3977 4.77662C10.7252 4.70418 11.061 4.65389 11.3958 4.62643L11.4358 5.11737C11.1232 5.14284 10.8096 5.18982 10.5039 5.2573V5.25763ZM13.3139 5.21992C13.0065 5.1607 12.6916 5.12167 12.3787 5.1048L12.4055 4.61287C12.7409 4.63106 13.078 4.67275 13.4075 4.73626L13.3142 5.21992H13.3139Z" fill="#E6E6E6"/>
<path id="Vector_11" fill-rule="evenodd" clip-rule="evenodd" d="M15.8876 7.72208C13.5252 5.57441 9.86938 5.74875 7.72171 8.11112C5.57405 10.4738 5.74806 14.129 8.11075 16.2767C10.4731 18.4244 14.129 18.251 16.277 15.8883C18.4246 13.5256 18.2503 9.86975 15.8879 7.72208H15.8876Z" fill="#8B79C4"/>
</g>
</g>
<defs>
<clipPath id="clip0_86_504">
<rect width="24" height="23.9997" fill="white"/>
</clipPath>
</defs>
</svg>
