<svg width="100%" height="100%" overflow="visible" style="display: block;" viewBox="0 0 24 23.9997" fill="none" xmlns="http://www.w3.org/2000/svg">
<g id="Frame" clip-path="url(#clip0_86_519)">
<circle id="Ellipse 1" cx="12" cy="12" r="12" fill="black"/>
<g id="Group 9">
<path id="Vector" fill-rule="evenodd" clip-rule="evenodd" d="M19.3974 3.86054C14.9029 -0.225722 7.94707 0.105426 3.86079 4.60058C-0.225811 9.09572 0.105339 16.0512 4.60084 20.1374C9.09567 24.2237 16.0515 23.8939 20.1377 19.3987C24.224 14.9032 23.8922 7.94713 19.3974 3.86054Z" fill="#E6E6E6"/>
<path id="Vector_2" fill-rule="evenodd" clip-rule="evenodd" d="M22.9383 13.1654L20.1488 12.8617C20.2686 11.723 20.1495 10.5672 19.7952 9.47314L22.4672 8.61434C22.9416 10.0838 23.1007 11.6367 22.9383 13.1654Z" fill="#6D97BF"/>
<path id="Vector_3" fill-rule="evenodd" clip-rule="evenodd" d="M5.89163 17.463L3.80251 19.3365C2.74191 18.1545 1.97904 16.7915 1.51953 15.3501L4.19156 14.4906C4.53296 15.5658 5.10098 16.5824 5.89163 17.463Z" fill="#6D97BF"/>
<path id="Vector_4" fill-rule="evenodd" clip-rule="evenodd" d="M11.0805 3.85643C9.72675 4.00728 8.40612 4.4959 7.25487 5.31501L5.61963 3.03468C7.16687 1.9314 8.94436 1.27308 10.7658 1.06863L11.0801 3.85643H11.0805Z" fill="#6D97BF"/>
<path id="Vector_5" fill-rule="evenodd" clip-rule="evenodd" d="M20.1488 12.8617C20.0317 13.9855 19.6811 15.0914 19.0958 16.1024C18.8077 16.5973 18.4646 17.0711 18.0634 17.5117C17.6773 17.9361 17.2578 18.3106 16.8112 18.6338H16.8105C15.6431 19.4827 14.2976 19.9875 12.9168 20.1417C11.4804 20.3045 10.0053 20.0868 8.65552 19.4827C7.88141 19.137 7.14831 18.6643 6.48668 18.0625C6.27561 17.8713 6.07778 17.6708 5.89153 17.4631C5.10088 16.5824 4.53286 15.5662 4.19146 14.4907C3.84079 13.3891 3.72699 12.2259 3.85468 11.0823C3.98039 9.95451 4.34065 8.84627 4.93911 7.83496C5.21832 7.36123 5.55079 6.90966 5.93487 6.48688C6.34045 6.04094 6.78309 5.64958 7.25484 5.31446C8.40576 4.49536 9.72639 4.00674 11.0804 3.85589C12.5162 3.69412 13.989 3.91113 15.3374 4.51355C16.1132 4.85893 16.8479 5.33266 17.5112 5.93541C17.7173 6.12265 17.9118 6.31816 18.0931 6.52062V6.52128C18.8821 7.39663 19.4508 8.40463 19.7949 9.47251C20.1492 10.5665 20.2683 11.7224 20.1485 12.8611L20.1488 12.8617Z" fill="#416B91"/>
<path id="Vector_6" fill-rule="evenodd" clip-rule="evenodd" d="M13.2323 22.9304C11.304 23.1481 9.32403 22.8556 7.51147 22.0455L8.65578 19.4826C10.0055 20.0867 11.4803 20.3044 12.9171 20.1416L13.2323 22.9301V22.9304Z" fill="#6D97BF"/>
<path id="Vector_7" fill-rule="evenodd" clip-rule="evenodd" d="M20.1832 4.64759L18.0934 6.52101C17.9121 6.31822 17.7172 6.12304 17.5115 5.93579C16.8482 5.33338 16.1134 4.85931 15.3376 4.51394L16.4813 1.9511C17.523 2.4149 18.5089 3.0514 19.3988 3.85991C19.676 4.112 19.937 4.37533 20.1835 4.64792L20.1832 4.64759Z" fill="#6D97BF"/>
<path id="Vector_8" fill-rule="evenodd" clip-rule="evenodd" d="M4.93932 7.83524C4.34087 8.84655 3.98061 9.95479 3.85489 11.0825L1.06543 10.7789C1.23282 9.26602 1.7145 7.77801 2.51607 6.42L4.93932 7.83524Z" fill="#6D97BF"/>
<path id="Vector_9" fill-rule="evenodd" clip-rule="evenodd" d="M21.5183 17.5173C21.1342 18.179 20.6743 18.8102 20.1391 19.3997C19.6177 19.9727 19.0507 20.4781 18.4473 20.9148L16.811 18.6335C17.2576 18.31 17.6771 17.9358 18.0632 17.5114C18.4645 17.0707 18.8075 16.597 19.0957 16.1021L21.5183 17.5173Z" fill="#6D97BF"/>
<path id="Vector_10" fill-rule="evenodd" clip-rule="evenodd" d="M11.9946 19.3968C11.86 19.3968 11.723 19.3928 11.5884 19.3855L11.6155 18.8936C11.7412 18.9006 11.8689 18.9039 11.9949 18.9039H11.9969C12.1835 18.9039 12.3721 18.8963 12.558 18.8814L12.5977 19.3723C12.3979 19.3885 12.1911 19.3964 11.9946 19.3968ZM10.5863 19.2615C10.2565 19.1973 9.92799 19.1103 9.6104 19.0021L9.7692 18.5357C10.0656 18.6366 10.3723 18.7183 10.6799 18.7778L10.5863 19.2615ZM13.5961 19.2228L13.4902 18.7418C13.7963 18.6743 14.1009 18.585 14.3944 18.4768L14.5647 18.9389C14.2501 19.055 13.924 19.1506 13.5961 19.2228ZM8.67948 18.6117C8.37976 18.4612 8.08731 18.2879 7.81042 18.0973L8.08963 17.6917C8.348 17.8697 8.62092 18.0312 8.90047 18.1721L8.67948 18.6121V18.6117ZM15.4857 18.5254L15.2535 18.091C15.5297 17.9435 15.798 17.7754 16.0518 17.5912L16.3412 17.9898C16.0693 18.1873 15.7818 18.3676 15.4857 18.5254ZM7.01976 17.4694C6.77066 17.2425 6.53544 16.9977 6.32107 16.7413L6.69854 16.425C6.89901 16.6646 7.11868 16.8935 7.35124 17.1052L7.01976 17.4694ZM17.1157 17.3421L16.7746 16.9864C16.8891 16.8766 17.0016 16.7612 17.1084 16.6437C17.213 16.5289 17.3142 16.4095 17.4098 16.2891L17.7955 16.5954C17.6933 16.7241 17.5848 16.8518 17.473 16.9749C17.3585 17.1006 17.2388 17.2243 17.116 17.3417L17.1157 17.3421ZM5.72758 15.9248C5.54927 15.6403 5.38916 15.341 5.25154 15.0346L5.70079 14.8328C5.82948 15.1186 5.97867 15.3979 6.14475 15.6632L5.72758 15.9245V15.9248ZM18.3682 15.7644L17.9444 15.5133C18.1042 15.2437 18.2464 14.9605 18.3678 14.6717L18.8221 14.8623C18.6924 15.1719 18.5395 15.4753 18.3682 15.7644ZM4.90186 14.0875C4.80758 13.7656 4.73413 13.4341 4.68418 13.102L5.17115 13.0285C5.21779 13.3388 5.28627 13.6485 5.37427 13.9489L4.90153 14.0875H4.90186ZM19.1479 13.9065L18.6719 13.7798C18.7523 13.4771 18.8125 13.1662 18.8512 12.8545L19.3401 12.9151C19.2988 13.2485 19.2343 13.582 19.1479 13.9062V13.9065ZM4.60247 12.096C4.60181 12.0629 4.60181 12.0298 4.60181 11.9964C4.60181 11.6934 4.62066 11.388 4.65772 11.088L5.14667 11.1482C5.11226 11.4284 5.09473 11.7139 5.09473 11.9964C5.09473 12.0272 5.09473 12.0583 5.09539 12.0893L4.6028 12.096H4.60247ZM18.9038 11.9137C18.8998 11.6001 18.8743 11.2841 18.828 10.9742L19.315 10.9014C19.3649 11.2332 19.3917 11.5716 19.3964 11.9074L18.9038 11.9137ZM5.32498 10.2229L4.84893 10.0965C4.93494 9.77164 5.04444 9.45009 5.17412 9.14044L5.62867 9.33066C5.50759 9.61946 5.4057 9.91951 5.32498 10.2225V10.2229ZM18.6252 10.0535C18.5372 9.75245 18.4274 9.45505 18.2994 9.16955L18.7486 8.96808C18.8859 9.27409 19.0033 9.593 19.098 9.91555L18.6252 10.0538V10.0535ZM6.05145 8.48906L5.62735 8.2383C5.79805 7.94983 5.99058 7.66996 6.19999 7.40662L6.5854 7.71296C6.39021 7.95909 6.21058 8.22044 6.05112 8.48939L6.05145 8.48906ZM17.8557 8.33887C17.69 8.07355 17.5037 7.81717 17.3026 7.57666L17.6807 7.26073C17.8964 7.51877 18.0956 7.79335 18.2736 8.07752L17.8557 8.33887ZM7.22057 7.01494L6.87949 6.65964C7.12165 6.42641 7.38234 6.2084 7.65328 6.01124L7.94308 6.40954C7.69 6.59347 7.44718 6.79726 7.22057 7.01494ZM16.6502 6.89584L16.6453 6.89121C16.4107 6.67816 16.1623 6.48133 15.9049 6.30401L16.1841 5.89843C16.4597 6.08799 16.7257 6.29905 16.9751 6.52533L16.9824 6.53194L16.6502 6.89551V6.89584ZM8.74068 5.90934L8.50812 5.47498C8.8042 5.31685 9.11384 5.17724 9.42911 5.06113L9.59982 5.52328C9.30572 5.63179 9.01692 5.7618 8.74068 5.90934ZM15.0937 5.82499C14.8135 5.68439 14.5211 5.56199 14.2247 5.46109L14.3831 4.99463C14.701 5.10248 15.0147 5.23381 15.3147 5.38467L15.0937 5.82499ZM10.5039 5.25763L10.3978 4.77662C10.7253 4.70418 11.061 4.65389 11.3958 4.62643L11.4359 5.11737C11.1232 5.14284 10.8096 5.18982 10.5039 5.2573V5.25763ZM13.3139 5.21992C13.0066 5.1607 12.6917 5.12167 12.3787 5.1048L12.4055 4.61287C12.7409 4.63106 13.078 4.67275 13.4072 4.73626L13.3139 5.21992Z" fill="#E6E6E6"/>
<path id="Vector_11" fill-rule="evenodd" clip-rule="evenodd" d="M15.8877 7.72208C13.5253 5.57441 9.8694 5.74875 7.72172 8.11112C5.57404 10.4738 5.74805 14.129 8.11076 16.2767C10.4731 18.4244 14.129 18.251 16.277 15.8883C18.4247 13.5256 18.2504 9.86975 15.888 7.72208H15.8877Z" fill="#6D97BF"/>
</g>
</g>
<defs>
<clipPath id="clip0_86_519">
<rect width="24" height="23.9997" fill="white"/>
</clipPath>
</defs>
</svg>
