<svg width="100%" height="100%" overflow="visible" style="display: block;" viewBox="0 0 24 24" fill="none" xmlns="http://www.w3.org/2000/svg">
<g id="Frame" clip-path="url(#clip0_86_489)">
<circle id="Ellipse 1" cx="12" cy="12" r="12" fill="black"/>
<g id="Group 10">
<path id="Vector" fill-rule="evenodd" clip-rule="evenodd" d="M19.3973 3.86051C14.9028 -0.225711 7.94704 0.105434 3.86078 4.60054C-0.225805 9.09565 0.105343 16.051 4.60082 20.1373C9.09564 24.2235 16.0514 23.8937 20.1377 19.3985C24.2239 14.9031 23.8921 7.94706 19.3973 3.86051Z" fill="#E6E6E6"/>
<path id="Vector_2" fill-rule="evenodd" clip-rule="evenodd" d="M22.9383 13.1652L20.1488 12.8615C20.2686 11.7228 20.1498 10.567 19.7952 9.47296L22.4672 8.61416C22.9416 10.0836 23.101 11.6365 22.9383 13.1652Z" fill="#D484CA"/>
<path id="Vector_3" fill-rule="evenodd" clip-rule="evenodd" d="M5.89161 17.4632L3.8025 19.3366C2.7419 18.1546 1.97904 16.7916 1.51953 15.3503L4.19154 14.4908C4.53295 15.5659 5.10096 16.5825 5.89161 17.4632Z" fill="#D484CA"/>
<path id="Vector_4" fill-rule="evenodd" clip-rule="evenodd" d="M11.0804 3.8564C9.72673 4.00726 8.4061 4.49587 7.25486 5.31497L5.61963 3.03466C7.16686 1.93139 8.94434 1.27307 10.7658 1.06863L11.0801 3.8564H11.0804Z" fill="#D484CA"/>
<path id="Vector_5" fill-rule="evenodd" clip-rule="evenodd" d="M20.149 12.8616C20.0319 13.9854 19.6812 15.0913 19.096 16.1023C18.8079 16.5972 18.4648 17.0709 18.0635 17.5119C17.6775 17.9363 17.258 18.3108 16.8114 18.634H16.8107C15.6433 19.4829 14.2978 19.9877 12.917 20.1419C11.4806 20.3046 10.0055 20.0869 8.65575 19.4826C7.88164 19.1372 7.14854 18.6641 6.48691 18.0624C6.27585 17.8712 6.07802 17.6707 5.89177 17.4629C5.10111 16.5823 4.5331 15.566 4.1917 14.4906C3.84103 13.3889 3.72723 12.2258 3.85493 11.0822C3.98064 9.95443 4.3409 8.8462 4.93935 7.8349C5.21856 7.36117 5.55103 6.90961 5.93511 6.48683C6.34069 6.04089 6.78332 5.64953 7.25507 5.31442C8.40598 4.49532 9.7266 4.00671 11.0806 3.85586C12.5164 3.69409 13.9892 3.91077 15.3379 4.51352C16.1137 4.85889 16.8484 5.33261 17.5117 5.93536C17.7178 6.1226 17.9124 6.31811 18.0936 6.52057V6.52123C18.8826 7.39657 19.4513 8.40456 19.7954 9.47243C20.1497 10.5664 20.2688 11.7223 20.149 12.861V12.8616Z" fill="#A3609A"/>
<path id="Vector_6" fill-rule="evenodd" clip-rule="evenodd" d="M13.2321 22.9304C11.3037 23.1481 9.32378 22.8556 7.51123 22.0455L8.65553 19.4827C10.0053 20.0867 11.48 20.3044 12.9168 20.142L13.2321 22.9304Z" fill="#D484CA"/>
<path id="Vector_7" fill-rule="evenodd" clip-rule="evenodd" d="M20.1831 4.64755L18.0934 6.52095C17.9121 6.31816 17.7172 6.12265 17.5114 5.93574C16.8482 5.33332 16.1134 4.85927 15.3376 4.5139L16.4813 1.95107C17.523 2.41488 18.5089 3.05136 19.3988 3.85988C19.676 4.11196 19.937 4.37528 20.1835 4.64788L20.1831 4.64755Z" fill="#D484CA"/>
<path id="Vector_8" fill-rule="evenodd" clip-rule="evenodd" d="M4.9393 7.8351C4.34085 8.8464 3.98059 9.95463 3.85488 11.0824L1.06543 10.7787C1.23282 9.26587 1.71449 7.77787 2.51606 6.41987L4.9393 7.8351Z" fill="#D484CA"/>
<path id="Vector_9" fill-rule="evenodd" clip-rule="evenodd" d="M21.518 17.5173C21.1339 18.1789 20.6741 18.8101 20.1388 19.3996C19.6174 19.9726 19.0504 20.4781 18.447 20.9148L16.8108 18.6335C17.2574 18.3099 17.6769 17.9358 18.0629 17.5113C18.4642 17.0707 18.8073 16.597 19.0954 16.1017L21.518 17.517V17.5173Z" fill="#D484CA"/>
<path id="Vector_10" fill-rule="evenodd" clip-rule="evenodd" d="M11.9946 19.3966C11.8599 19.3966 11.723 19.3926 11.5883 19.3853L11.6155 18.8934C11.7412 18.9003 11.8689 18.9036 11.9949 18.9036H11.9969C12.1835 18.9036 12.372 18.896 12.558 18.8812L12.5977 19.3721C12.3978 19.3883 12.1911 19.3962 11.9946 19.3966ZM10.5863 19.2613C10.2565 19.1971 9.92797 19.1101 9.61038 19.0019L9.76917 18.5355C10.0656 18.6364 10.3723 18.7181 10.6799 18.7776L10.5863 19.2613ZM13.5961 19.2226L13.4902 18.7415C13.7962 18.6741 14.1009 18.5847 14.3943 18.4766L14.5647 18.9387C14.2501 19.0548 13.9239 19.1501 13.5961 19.2226ZM8.67946 18.6115C8.37974 18.461 8.0873 18.2877 7.8104 18.0971L8.08961 17.6915C8.34798 17.8695 8.62091 18.031 8.90045 18.1719L8.67946 18.6119V18.6115ZM15.4857 18.5252L15.2535 18.0908C15.5297 17.9433 15.798 17.7752 16.0517 17.591L16.3412 17.9896C16.0693 18.1871 15.7818 18.3674 15.4857 18.5252ZM7.01975 17.4692C6.77065 17.2423 6.53543 16.9975 6.32106 16.7411L6.69853 16.4249C6.899 16.6644 7.11867 16.8933 7.35123 17.105L7.01975 17.4692ZM17.1156 17.3419L16.7746 16.9862C16.889 16.8764 17.0015 16.761 17.1084 16.6435C17.2129 16.5287 17.3141 16.4093 17.4097 16.2889L17.7955 16.5952C17.6932 16.7239 17.5847 16.8516 17.4729 16.9747C17.3585 17.1004 17.2387 17.2241 17.116 17.3415L17.1156 17.3419ZM5.72758 15.9247C5.54927 15.6402 5.38915 15.3408 5.25153 15.0344L5.70078 14.8326C5.82947 15.1185 5.97867 15.3977 6.14474 15.663L5.72758 15.9243V15.9247ZM18.3681 15.7642L17.9443 15.5131C18.1041 15.2435 18.2464 14.9603 18.3678 14.6715L18.822 14.8621C18.6923 15.1717 18.5395 15.4751 18.3681 15.7642ZM4.90186 14.0873C4.80758 13.7654 4.73413 13.4336 4.68418 13.1018L5.17114 13.0284C5.21779 13.3387 5.28627 13.6483 5.37427 13.9487L4.90153 14.0873H4.90186ZM19.1478 13.9064L18.6718 13.7797C18.7522 13.477 18.8124 13.1657 18.8511 12.8544L19.3401 12.9149C19.2987 13.2484 19.2342 13.5818 19.1478 13.906V13.9064ZM4.60247 12.0958C4.60181 12.0624 4.60181 12.0293 4.60181 11.9962C4.60181 11.6932 4.62066 11.3879 4.65771 11.0878L5.14666 11.148C5.11226 11.4282 5.09472 11.7137 5.09472 11.9962C5.09472 12.027 5.09472 12.0581 5.09539 12.0892L4.6028 12.0958H4.60247ZM18.9037 11.9135C18.8997 11.5999 18.8743 11.284 18.8279 10.974L19.3149 10.9012C19.3649 11.233 19.3917 11.5715 19.3963 11.9072L18.9037 11.9135ZM5.32497 10.2227L4.84893 10.0964C4.93494 9.77151 5.04444 9.44996 5.17412 9.14032L5.62866 9.33053C5.50758 9.61934 5.40569 9.91938 5.32497 10.2224V10.2227ZM18.6252 10.0534C18.5368 9.75232 18.4273 9.45492 18.2993 9.16943L18.7486 8.96796C18.8858 9.27396 19.0033 9.59287 19.0979 9.91541L18.6252 10.0537V10.0534ZM6.05145 8.48894L5.62734 8.23818C5.79804 7.94971 5.99058 7.66984 6.19999 7.40652L6.58539 7.71285C6.39021 7.95898 6.21024 8.21999 6.05112 8.48927L6.05145 8.48894ZM17.8557 8.33875C17.6899 8.07344 17.5037 7.81706 17.3025 7.57655L17.6807 7.26063C17.8964 7.51866 18.0955 7.79324 18.2735 8.07741L17.8557 8.33875ZM7.22056 7.01483L6.87948 6.65954C7.12164 6.42631 7.38233 6.2083 7.65327 6.01114L7.94306 6.40944C7.68999 6.59337 7.44717 6.79715 7.22056 7.01483ZM16.6502 6.89574L16.6452 6.89111C16.4107 6.67806 16.1622 6.48123 15.9048 6.30391L16.1841 5.89833C16.4596 6.08789 16.7256 6.29895 16.975 6.52523L16.9823 6.53184L16.6502 6.89541V6.89574ZM8.74066 5.90925L8.5081 5.47489C8.80418 5.31676 9.11382 5.17749 9.42909 5.06104L9.5998 5.52319C9.3057 5.63169 9.0169 5.7617 8.74066 5.90925ZM15.0937 5.82489C14.8135 5.68429 14.521 5.56189 14.2246 5.46099L14.3831 4.99455C14.701 5.10239 15.0143 5.23372 15.3147 5.38425L15.0937 5.82456V5.82489ZM10.5039 5.25754L10.3977 4.77654C10.7252 4.70409 11.061 4.65381 11.3958 4.62635L11.4358 5.11728C11.1232 5.14275 10.8096 5.18973 10.5039 5.25721V5.25754ZM13.3139 5.21983C13.0066 5.16061 12.6916 5.12158 12.3787 5.10471L12.4055 4.61279C12.7409 4.63098 13.078 4.67266 13.4072 4.73618L13.3139 5.21983Z" fill="#E6E6E6"/>
<path id="Vector_11" fill-rule="evenodd" clip-rule="evenodd" d="M15.8876 7.72195C13.5252 5.5743 9.86938 5.74864 7.72171 8.11098C5.57405 10.4733 5.74806 14.1288 8.11075 16.2765C10.4731 18.4241 14.129 18.2508 16.277 15.8881C18.4246 13.5254 18.2503 9.86959 15.8879 7.72195H15.8876Z" fill="#D484CA"/>
</g>
</g>
<defs>
<clipPath id="clip0_86_489">
<rect width="24" height="24" fill="white"/>
</clipPath>
</defs>
</svg>
