<?xml version="1.0" encoding="UTF-8"?>
<svg id="Layer_2" data-name="Layer 2" xmlns="http://www.w3.org/2000/svg" viewBox="0 0 688.98 688.98">
  <defs>
    <style>
      .cls-1 {
        fill: #e6e6e6;
      }

      .cls-1, .cls-2, .cls-3 {
        fill-rule: evenodd;
      }

      .cls-2 {
        fill: #3d8743;
      }

      .cls-3 {
        fill: #56b35d;
      }
    </style>
  </defs>
  <g id="_1" data-name="1">
    <g>
      <g>
        <path class="cls-1" d="M568.12,98.47C432.26-25.05,222-15.04,98.48,120.84-25.05,256.72-15.04,466.97,120.85,590.49c135.87,123.52,346.13,113.55,469.65-22.33,123.52-135.89,113.49-346.16-22.38-469.69Z"/>
        <path d="M344.59,12c79.78,0,159.85,28.57,223.53,86.47,135.87,123.53,145.91,333.8,22.38,469.69-65.61,72.17-155.67,108.82-246.08,108.82-79.8,0-159.87-28.57-223.58-86.49C-15.04,466.97-25.05,256.72,98.48,120.84,164.1,48.66,254.17,12,344.59,12M344.59,0c-47.54,0-93.67,9.53-137.12,28.34-44.98,19.47-84.64,47.87-117.87,84.43-31.28,34.41-54.89,73.92-70.17,117.43C4.67,272.23-1.73,316.19.4,360.87c2.13,44.68,12.68,87.84,31.37,128.27,19.35,41.86,46.6,78.95,81.02,110.23,63.56,57.78,145.83,89.61,231.65,89.61,47.53,0,93.66-9.53,137.1-28.33,44.98-19.46,84.63-47.87,117.85-84.42,31.28-34.41,54.89-73.92,70.17-117.44,14.75-42.03,21.16-85.99,19.03-130.68-2.13-44.68-12.68-87.84-31.37-128.28-19.35-41.87-46.6-78.96-81.01-110.24C512.65,31.82,430.4,0,344.59,0h0Z"/>
      </g>
      <path class="cls-3" d="M675.16,379.73l-84.32-9.18c3.62-34.42.02-69.36-10.69-102.43l80.77-25.96c14.34,44.42,19.15,91.36,14.24,137.57Z"/>
      <path class="cls-3" d="M159.87,509.65l-63.15,56.63c-32.06-35.73-55.12-76.93-69.01-120.5l80.77-25.98c10.32,32.5,27.49,63.23,51.39,89.85Z"/>
      <path class="cls-3" d="M316.72,98.34c-40.92,4.56-80.84,19.33-115.64,44.09l-49.43-68.93c46.77-33.35,100.5-53.25,155.56-59.43l9.5,84.27Z"/>
      <path class="cls-2" d="M590.84,370.55c-3.54,33.97-14.14,67.4-31.83,97.96-8.71,14.96-19.08,29.28-31.21,42.61-11.67,12.83-24.35,24.15-37.85,33.92h-.02c-35.29,25.66-75.96,40.92-117.7,45.58-43.42,4.92-88.01-1.66-128.81-19.93-23.4-10.44-45.56-24.74-65.56-42.93-6.38-5.78-12.36-11.84-17.99-18.12-23.9-26.62-41.07-57.34-51.39-89.85-10.6-33.3-14.04-68.46-10.18-103.03,3.8-34.09,14.69-67.59,32.78-98.16,8.44-14.32,18.49-27.97,30.1-40.75,12.26-13.48,25.64-25.31,39.9-35.44,34.79-24.76,74.71-39.53,115.64-44.09,43.4-4.89,87.92,1.66,128.68,19.88,23.45,10.44,45.66,24.76,65.71,42.98,6.23,5.66,12.11,11.57,17.59,17.69v.02c23.85,26.46,41.04,56.93,51.44,89.21,10.71,33.07,14.31,68.01,10.69,102.43Z"/>
      <path class="cls-3" d="M381.76,674.92c-58.29,6.58-118.14-2.26-172.93-26.75l34.59-77.47c40.8,18.26,85.38,24.84,128.81,19.93l9.53,84.29Z"/>
      <path class="cls-3" d="M591.88,122.26l-63.17,56.63c-5.48-6.13-11.37-12.04-17.59-17.69-20.05-18.21-42.26-32.54-65.71-42.98l34.57-77.47c31.49,14.02,61.29,33.26,88.19,57.7,8.38,7.62,16.27,15.58,23.72,23.82Z"/>
      <path class="cls-3" d="M131.08,218.61c-18.09,30.57-28.98,64.07-32.78,98.16l-84.32-9.18c5.06-45.73,19.62-90.71,43.85-131.76l73.25,42.78Z"/>
      <path class="cls-3" d="M632.23,511.29c-11.61,20-25.51,39.08-41.69,56.9-15.76,17.32-32.9,32.6-51.14,45.8l-49.46-68.96c13.5-9.78,26.18-21.09,37.85-33.92,12.13-13.32,22.5-27.64,31.21-42.61l73.23,42.78Z"/>
      <path class="cls-1" d="M344.35,568.1c-4.07,0-8.21-.12-12.28-.34l.82-14.87c3.8.21,7.66.31,11.47.31h.06c5.64,0,11.34-.23,16.96-.68l1.2,14.84c-6.04.49-12.29.73-18.23.74h0ZM301.78,564.01h0c-9.97-1.94-19.9-4.57-29.5-7.84l4.8-14.1c8.96,3.05,18.23,5.52,27.53,7.32l-2.83,14.62h0ZM392.76,562.84h0l-3.2-14.54c9.25-2.04,18.46-4.74,27.33-8.01l5.15,13.97c-9.51,3.51-19.37,6.39-29.28,8.58h0ZM244.14,544.37h0c-9.06-4.55-17.9-9.79-26.27-15.55l8.44-12.26c7.81,5.38,16.06,10.26,24.51,14.52l-6.68,13.3h0ZM449.88,541.76h0l-7.02-13.13c8.35-4.46,16.46-9.54,24.13-15.11l8.75,12.05c-8.22,5.97-16.91,11.42-25.86,16.19h0ZM193.97,509.84h0c-7.53-6.86-14.64-14.26-21.12-22.01l11.41-9.56c6.06,7.24,12.7,14.16,19.73,20.56l-10.02,11.01h0ZM499.15,505.99h0l-10.31-10.75c3.46-3.32,6.86-6.81,10.09-10.36,3.16-3.47,6.22-7.08,9.11-10.72l11.66,9.26c-3.09,3.89-6.37,7.75-9.75,11.47-3.46,3.8-7.08,7.54-10.79,11.09h0ZM154.91,463.15h0c-5.39-8.6-10.23-17.65-14.39-26.91l13.58-6.1c3.89,8.64,8.4,17.08,13.42,25.1l-12.61,7.9h0ZM537.01,458.3h0l-12.81-7.59c4.83-8.15,9.13-16.71,12.8-25.44l13.73,5.76c-3.92,9.36-8.54,18.53-13.72,27.27h0ZM129.95,407.61h0c-2.85-9.73-5.07-19.76-6.58-29.79l14.72-2.22c1.41,9.38,3.48,18.74,6.14,27.82l-14.29,4.19h0ZM560.58,402.14h0l-14.39-3.83c2.43-9.15,4.25-18.56,5.42-27.97l14.78,1.83c-1.25,10.08-3.2,20.16-5.81,29.96h0ZM120.9,347.41h0c-.02-1.01-.02-2.01-.02-3.01,0-9.16.57-18.39,1.69-27.46l14.78,1.82c-1.04,8.47-1.57,17.1-1.57,25.64,0,.93,0,1.87.02,2.81l-14.89.2h0ZM553.2,341.9h0c-.12-9.48-.89-19.03-2.29-28.4l14.72-2.2c1.51,10.03,2.32,20.26,2.46,30.41l-14.89.19h0ZM142.74,290.79h0l-14.39-3.82c2.6-9.82,5.91-19.54,9.83-28.9l13.74,5.75c-3.66,8.73-6.74,17.8-9.18,26.96h0ZM544.78,285.67h0c-2.66-9.1-5.98-18.09-9.85-26.72l13.58-6.09c4.15,9.25,7.7,18.89,10.56,28.64l-14.29,4.18h0ZM164.7,238.38h0l-12.82-7.58c5.16-8.72,10.98-17.18,17.31-25.14l11.65,9.26c-5.9,7.44-11.33,15.33-16.15,23.47h0ZM521.52,233.84h0c-5.01-8.02-10.64-15.77-16.72-23.04l11.43-9.55c6.52,7.8,12.54,16.1,17.92,24.69l-12.63,7.9h0ZM200.04,193.82h0l-10.31-10.74c7.32-7.05,15.2-13.64,23.39-19.6l8.76,12.04c-7.65,5.56-14.99,11.72-21.84,18.3h0ZM485.08,190.22h0l-.15-.14c-7.09-6.44-14.6-12.39-22.38-17.75l8.44-12.26c8.33,5.73,16.37,12.11,23.91,18.95l.22.2-10.04,10.99h0ZM245.99,160.4h0l-7.03-13.13c8.95-4.78,18.31-8.99,27.84-12.51l5.16,13.97c-8.89,3.28-17.62,7.21-25.97,11.67h0ZM438.03,157.85h0c-8.47-4.25-17.31-7.95-26.27-11l4.79-14.1c9.61,3.26,19.09,7.23,28.16,11.78l-6.68,13.31h0ZM299.29,140.7h0l-3.21-14.54c9.9-2.19,20.05-3.71,30.17-4.54l1.21,14.84c-9.45.77-18.93,2.19-28.17,4.23h0ZM384.23,139.56h0c-9.29-1.79-18.81-2.97-28.27-3.48l.81-14.87c10.14.55,20.33,1.81,30.28,3.73l-2.82,14.62Z"/>
      <path class="cls-3" d="M462.03,215.19c-71.41-64.92-181.92-59.65-246.84,11.76-64.92,71.41-59.66,181.91,11.76,246.83,71.41,64.92,181.92,59.68,246.85-11.74,64.92-71.42,59.65-181.93-11.76-246.85Z"/>
    </g>
  </g>
</svg>