<?xml version="1.0" encoding="UTF-8"?>
<svg id="Layer_2" data-name="Layer 2" xmlns="http://www.w3.org/2000/svg" viewBox="0 0 100.12 130">
  <defs>
    <style>
      .cls-1 {
        fill: #db2626;
      }

      .cls-2 {
        fill: #fff;
      }

      .cls-3 {
        fill: #f2f2f2;
      }

      .cls-4 {
        fill: #ffe3e3;
      }
    </style>
  </defs>
  <g id="Cards">
    <g>
      <rect class="cls-3" width="100.12" height="130" rx="16.74" ry="16.74"/>
      <rect class="cls-2" x="4.19" y="4.19" width="91.73" height="121.61" rx="12.54" ry="12.54"/>
      <rect class="cls-4" x="19.66" y="18.48" width="60.81" height="93.04" rx="12.54" ry="12.54"/>
      <g>
        <path class="cls-1" d="M15.17,11.95c-.15,4.08-.58,13.59-.73,19.17l-5.99.23-.15-13.31-3.02,1.33-.28-3.27,9.99-4.3.18.15Z"/>
        <path class="cls-1" d="M26.7,31.25c-5.69,0-9.21-3.88-9.21-9.34,0-6.29,4.13-9.66,9.01-9.66s8.76,3.9,8.76,9.81c0,5.56-4.18,9.18-8.56,9.18ZM26.4,16.86c-1.71,0-2.47,2.21-2.47,4.76,0,2.74.96,5.36,2.77,5.36,1.06,0,2.16-1.43,2.16-4.23,0-3.62-1.01-5.89-2.47-5.89Z"/>
      </g>
      <path class="cls-1" d="M60.09,47.82c-4.34,0-8.04,2.96-9.43,7.11h0s-.3.83-.3.83c-.1.28-.48.28-.58,0l-.3-.83h0c-1.39-4.14-5.09-7.1-9.43-7.1-5.54,0-10.03,4.82-10.03,10.76,0,.8.08,1.59.24,2.34,2.41,15.76,19.81,21.26,19.81,21.26,0,0,17.4-5.51,19.81-21.26.16-.75.24-1.54.24-2.34,0-5.94-4.49-10.76-10.03-10.76Z"/>
      <path class="cls-1" d="M23.42,37.69c-1.62,0-3,1.1-3.51,2.65h0s-.11.31-.11.31c-.04.11-.18.11-.22,0l-.11-.31h0c-.52-1.54-1.9-2.65-3.51-2.65-2.06,0-3.74,1.8-3.74,4.01,0,.3.03.59.09.87.9,5.87,7.38,7.92,7.38,7.92,0,0,6.48-2.05,7.38-7.92.06-.28.09-.57.09-.87,0-2.21-1.67-4.01-3.74-4.01Z"/>
      <g>
        <path class="cls-1" d="M85.12,119.22c.15-4.08.58-13.59.73-19.17l5.99-.23.15,13.31,3.02-1.33.28,3.27-9.99,4.3-.18-.15Z"/>
        <path class="cls-1" d="M73.59,99.92c5.69,0,9.21,3.88,9.21,9.34,0,6.29-4.13,9.66-9.01,9.66s-8.76-3.9-8.76-9.81c0-5.56,4.18-9.18,8.55-9.18ZM73.9,114.31c1.71,0,2.47-2.21,2.47-4.76,0-2.74-.96-5.36-2.77-5.36-1.06,0-2.16,1.43-2.16,4.23,0,3.62,1.01,5.89,2.47,5.89Z"/>
      </g>
      <path class="cls-1" d="M76.87,93.49c1.62,0,3-1.1,3.51-2.65h0s.11-.31.11-.31c.04-.11.18-.11.22,0l.11.31h0c.52,1.54,1.9,2.65,3.51,2.65,2.06,0,3.74-1.8,3.74-4.01,0-.3-.03-.59-.09-.87-.9-5.87-7.38-7.92-7.38-7.92,0,0-6.48,2.05-7.38,7.92-.06.28-.09.57-.09.87,0,2.21,1.67,4.01,3.74,4.01Z"/>
    </g>
  </g>
</svg>