<?xml version="1.0" encoding="UTF-8"?>
<svg id="Layer_2" data-name="Layer 2" xmlns="http://www.w3.org/2000/svg" viewBox="0 0 99.62 129.35">
  <defs>
    <style>
      .cls-1 {
        fill: #db2626;
      }

      .cls-2 {
        fill: #fff;
      }

      .cls-3 {
        fill: #f2f2f2;
      }

      .cls-4 {
        fill: #edb53a;
      }

      .cls-5 {
        fill: #ffe3e3;
      }
    </style>
  </defs>
  <g id="Cards">
    <g>
      <rect class="cls-3" width="99.62" height="129.35" rx="16.65" ry="16.65"/>
      <rect class="cls-2" x="4.17" y="4.17" width="91.28" height="121.01" rx="12.48" ry="12.48"/>
      <rect class="cls-5" x="19.56" y="18.39" width="60.5" height="92.57" rx="12.48" ry="12.48"/>
      <path class="cls-1" d="M26.21,30.07c-1.55,1.34-5.32,2.51-7.51,2.51-2.72,0-4.97-.35-6.81-.88l-.2-4.56c1.4.38,3.65.7,5.02.7.53,0,1.05,0,1.49-.12l-.32-17.18c1.29,0,8.62-.61,8.62-.61l-.29,20.13Z"/>
      <path class="cls-1" d="M23.31,37.5c-1.61,0-2.98,1.1-3.5,2.64h0s-.11.31-.11.31c-.04.1-.18.1-.22,0l-.11-.31h0c-.52-1.53-1.89-2.63-3.5-2.63-2.05,0-3.72,1.79-3.72,3.99,0,.3.03.59.09.87.89,5.84,7.35,7.88,7.35,7.88,0,0,6.45-2.04,7.35-7.88.06-.28.09-.57.09-.87,0-2.2-1.66-3.99-3.72-3.99Z"/>
      <path class="cls-1" d="M73.85,100.45c1.55-1.34,5.32-2.51,7.51-2.51,2.72,0,4.97.35,6.81.88l.2,4.56c-1.4-.38-3.65-.7-5.03-.7-.53,0-1.05,0-1.49.12l.32,17.18c-1.29,0-8.62.61-8.62.61l.29-20.13Z"/>
      <path class="cls-1" d="M76.49,93.02c1.61,0,2.98-1.1,3.5-2.64h0s.11-.31.11-.31c.04-.1.18-.1.22,0l.11.31h0c.52,1.53,1.89,2.63,3.5,2.63,2.05,0,3.72-1.79,3.72-3.99,0-.3-.03-.59-.09-.87-.89-5.84-7.35-7.88-7.35-7.88,0,0-6.45,2.04-7.35,7.88-.06.28-.09.57-.09.87,0,2.2,1.66,3.99,3.72,3.99Z"/>
      <g>
        <path class="cls-4" d="M63.29,30.46c-.55.06-1,.5-1.08,1.05-.07.56.24,1.06.7,1.28l-11.35-1.9c.83-.41,1.37-1.29,1.28-2.29-.11-1.13-1.05-2.03-2.18-2.08-1.32-.06-2.42.99-2.42,2.3,0,.91.53,1.69,1.29,2.07l-11.2,1.82c.4-.26.64-.73.54-1.25-.09-.49-.47-.89-.96-.98-.79-.15-1.47.44-1.47,1.2,0,.68.55,1.23,1.23,1.23.06,0,.12,0,.18-.01l1.02,10.46h-.4c-.37,0-.71.27-.74.64-.04.43.29.78.71.78h24.23c.37,0,.71-.27.74-.64.04-.43-.29-.78-.71-.78h-.29l1.02-10.45c.67,0,1.21-.55,1.21-1.23,0-.72-.63-1.3-1.37-1.22Z"/>
        <polygon class="cls-4" points="50.84 78.61 42.49 80.28 50.31 97.78 58.13 80.83 50.84 78.61"/>
        <g>
          <path class="cls-1" d="M51.64,82.91c-.55,0-1.02.38-1.2.9h0s-.04.1-.04.1c-.01.04-.06.04-.07,0l-.04-.11h0c-.18-.52-.65-.9-1.2-.9-.7,0-1.27.61-1.27,1.36,0,.1.01.2.03.3.31,2,2.51,2.7,2.51,2.7,0,0,2.21-.7,2.51-2.7.02-.1.03-.19.03-.3,0-.75-.57-1.36-1.27-1.36Z"/>
          <g>
            <circle class="cls-1" cx="50.37" cy="88.85" r=".52"/>
            <circle class="cls-1" cx="50.37" cy="91.64" r=".52"/>
            <path class="cls-1" d="M50.89,94.44c0,.29-.23.52-.52.52s-.52-.23-.52-.52.23-.52.52-.52.52.23.52.52Z"/>
          </g>
        </g>
        <path class="cls-2" d="M32,64.68l-1.52,9.21s-1.04-1.13-2.74,0c-1.7,1.13-.65,3.35,3.26,2.96,3.91-.39,19.15.05,19.15.05l.16-12.21h-18.31Z"/>
        <path class="cls-2" d="M68.12,64.68l1.52,9.21s1.04-1.13,2.74,0c1.7,1.13.65,3.35-3.26,2.96-3.91-.39-19.15.05-19.15.05l-.16-12.21h18.31Z"/>
        <path class="cls-1" d="M60.5,47.58c-4.32,0-8,2.95-9.39,7.07h0s-.3.82-.3.82c-.1.28-.47.28-.58,0l-.3-.83h0c-1.39-4.12-5.07-7.07-9.39-7.07-5.51,0-9.98,4.79-9.98,10.71,0,.8.08,1.58.24,2.33,2.4,15.68,19.71,21.16,19.71,21.16,0,0,17.31-5.48,19.71-21.16.16-.75.24-1.53.24-2.33,0-5.91-4.47-10.71-9.98-10.71Z"/>
        <path class="cls-1" d="M36.45,83.52s3.02,10.87,0,12.83l13.86,1.43-7.82-17.5-6.04,3.24Z"/>
        <path class="cls-2" d="M44.43,81.77s-1.23-4.14-7.98,0c-6.75,4.14,9.94,5.12,7.98,0Z"/>
        <path class="cls-2" d="M50.31,97.78s-11.15-3.91-13.86-2.22c-2.71,1.7,1.33,3.69,5.24,3.02,3.91-.67,8.62-.8,8.62-.8Z"/>
        <path class="cls-1" d="M64.66,83.52s-3.13,10.87,0,12.83l-14.35,1.43,7.82-16.95,6.53,2.69Z"/>
        <path class="cls-2" d="M56.19,81.77s1.23-4.14,7.98,0c6.75,4.14-9.94,5.12-7.98,0Z"/>
        <path class="cls-2" d="M50.31,97.78s11.15-3.91,13.86-2.22c2.71,1.7-1.33,3.69-5.24,3.02-3.91-.67-8.62-.8-8.62-.8Z"/>
        <path class="cls-2" d="M42.72,88.42c-.55,0-1.02.38-1.2.9h0s-.04.1-.04.1c-.01.04-.06.04-.07,0l-.04-.11h0c-.18-.52-.65-.9-1.2-.9-.7,0-1.27.61-1.27,1.36,0,.1.01.2.03.3.31,2,2.51,2.7,2.51,2.7,0,0,2.21-.7,2.51-2.7.02-.1.03-.19.03-.3,0-.75-.57-1.36-1.27-1.36Z"/>
        <path class="cls-2" d="M61.25,88.42c-.55,0-1.02.38-1.2.9h0s-.04.1-.04.1c-.01.04-.06.04-.07,0l-.04-.11h0c-.18-.52-.65-.9-1.2-.9-.7,0-1.27.61-1.27,1.36,0,.1.01.2.03.3.31,2,2.51,2.7,2.51,2.7,0,0,2.21-.7,2.51-2.7.02-.1.03-.19.03-.3,0-.75-.57-1.36-1.27-1.36Z"/>
      </g>
    </g>
  </g>
</svg>