<?xml version="1.0" encoding="UTF-8"?>
<svg id="Layer_2" data-name="Layer 2" xmlns="http://www.w3.org/2000/svg" viewBox="0 0 100.12 130">
  <defs>
    <style>
      .cls-1 {
        fill: #db2626;
      }

      .cls-2 {
        fill: #fff;
      }

      .cls-3 {
        fill: #f2f2f2;
      }

      .cls-4 {
        fill: #edb53a;
      }

      .cls-5 {
        fill: #ffe3e3;
      }
    </style>
  </defs>
  <g id="Cards">
    <g>
      <rect class="cls-3" width="100.12" height="130" rx="16.74" ry="16.74"/>
      <rect class="cls-2" x="4.19" y="4.19" width="91.73" height="121.61" rx="12.54" ry="12.54"/>
      <rect class="cls-5" x="19.66" y="18.48" width="60.81" height="93.04" rx="12.54" ry="12.54"/>
      <path class="cls-1" d="M29.51,32.1l-6.78-.03c-1.2.35-2.53.59-4.02.59-5.46,0-11.07-3.99-11.07-10.86s4.37-11.92,11.39-11.92c6.49,0,11.22,4.26,11.22,11.19,0,2.35-.85,4.82-2,6.69.91-.09,2.29-.26,2.88-.35l-1.61,4.7ZM17.92,15.16c-1.17,0-1.91.82-1.91,2.17,0,3.85,1.97,10.42,4.4,10.42,1.15,0,1.82-.76,1.82-2.67,0-3.23-2.35-9.92-4.32-9.92Z"/>
      <path class="cls-1" d="M23.42,37.69c-1.62,0-3,1.1-3.51,2.65h0s-.11.31-.11.31c-.04.11-.18.11-.22,0l-.11-.31h0c-.52-1.54-1.9-2.65-3.51-2.65-2.06,0-3.74,1.8-3.74,4.01,0,.3.03.59.09.87.9,5.87,7.38,7.92,7.38,7.92,0,0,6.48-2.05,7.38-7.92.06-.28.09-.57.09-.87,0-2.21-1.67-4.01-3.74-4.01Z"/>
      <path class="cls-1" d="M70.95,99.07l6.78.03c1.2-.35,2.53-.59,4.02-.59,5.46,0,11.07,3.99,11.07,10.86s-4.38,11.92-11.39,11.92c-6.49,0-11.22-4.26-11.22-11.19,0-2.35.85-4.82,2-6.69-.91.09-2.29.26-2.88.35l1.61-4.7ZM82.55,116.02c1.17,0,1.91-.82,1.91-2.17,0-3.85-1.97-10.42-4.4-10.42-1.14,0-1.82.76-1.82,2.67,0,3.23,2.35,9.92,4.32,9.92Z"/>
      <path class="cls-1" d="M76.87,93.49c1.62,0,3-1.1,3.51-2.65h0s.11-.31.11-.31c.04-.11.18-.11.22,0l.11.31h0c.52,1.54,1.9,2.65,3.51,2.65,2.06,0,3.74-1.8,3.74-4.01,0-.3-.03-.59-.09-.87-.9-5.87-7.38-7.92-7.38-7.92,0,0-6.48,2.05-7.38,7.92-.06.28-.09.57-.09.87,0,2.21,1.67,4.01,3.74,4.01Z"/>
      <g>
        <path class="cls-4" d="M58.59,74.63h-17.23c-1.44,0-2.62,1.18-2.62,2.62v16.14c0,1.44,1.18,2.62,2.62,2.62h3.85s4.17,1.53,9.77,0h3.61c1.44,0,2.62-1.18,2.62-2.62v-16.14c0-1.44-1.18-2.62-2.62-2.62Z"/>
        <g>
          <path class="cls-1" d="M47.81,85.05l-1.27-2.01-9.9-.28s1.37,7.43-2.29,11.01c0,0,5.51,2.97,9.44,1.4,3.93-1.57,4.02-10.11,4.02-10.11Z"/>
          <path class="cls-2" d="M48.61,85.05c1.24.05,1.67-1.62.57-2.18-4.53-2.29-11.18-5.23-13.53-4.06-3.69,1.85-2.31,6,3.23,6,2.85,0,6.69.12,9.73.24Z"/>
          <path class="cls-2" d="M48.43,83.77s1.14,13.33-6.47,13.33-10.57-1.75-9.09-2.97,6.9,1.05,9.96.35c3.06-.7,3.32-7.86,3.41-10.22.09-2.36,2.13-2.47,2.18-.49Z"/>
          <path class="cls-1" d="M52.39,85.05l1.27-2.01,9.9-.28s-1.37,7.43,2.29,11.01c0,0-5.51,2.97-9.44,1.4-3.93-1.57-4.02-10.11-4.02-10.11Z"/>
          <path class="cls-2" d="M51.58,85.05c-1.24.05-1.67-1.62-.57-2.18,4.53-2.29,11.18-5.23,13.53-4.06,3.69,1.85,2.31,6-3.23,6-2.85,0-6.69.12-9.73.24Z"/>
          <path class="cls-2" d="M51.77,83.77s-1.14,13.33,6.47,13.33,10.57-1.75,9.09-2.97-6.9,1.05-9.96.35c-3.06-.7-3.32-7.86-3.41-10.22-.09-2.36-2.13-2.47-2.18-.49Z"/>
        </g>
        <path class="cls-1" d="M51.32,82.38c-.55,0-1.02.38-1.2.91h0s-.04.11-.04.11c-.01.04-.06.04-.07,0l-.04-.11h0c-.18-.53-.65-.91-1.2-.91-.71,0-1.28.61-1.28,1.37,0,.1.01.2.03.3.31,2.01,2.52,2.71,2.52,2.71,0,0,2.22-.7,2.52-2.71.02-.1.03-.2.03-.3,0-.76-.57-1.37-1.28-1.37Z"/>
        <g>
          <circle class="cls-1" cx="50.04" cy="88.35" r=".52"/>
          <circle class="cls-1" cx="50.04" cy="91.16" r=".52"/>
          <circle class="cls-1" cx="50.04" cy="93.96" r=".52"/>
        </g>
        <path class="cls-1" d="M60.22,47.82c-4.34,0-8.04,2.96-9.43,7.11h0s-.3.83-.3.83c-.1.28-.48.28-.58,0l-.3-.83h0c-1.39-4.14-5.09-7.1-9.43-7.1-5.54,0-10.03,4.82-10.03,10.76,0,.8.08,1.59.24,2.34,2.41,15.76,19.81,21.26,19.81,21.26,0,0,17.4-5.51,19.81-21.26.16-.75.24-1.54.24-2.34,0-5.94-4.49-10.76-10.03-10.76Z"/>
        <path class="cls-4" d="M64.4,29.77c0-.73-.63-1.31-1.37-1.23-.55.06-1.01.51-1.08,1.06-.07.57.24,1.07.71,1.29l-2.5,4.3c-.15.26-.55.22-.64-.07l-1.1-3.44c.42-.11.71-.53.63-1-.06-.34-.33-.62-.67-.69-.56-.12-1.06.31-1.06.85,0,.32.17.59.42.74l-2.45,3.16c-.18.23-.48.33-.76.26l-.11-.03c-.21-.05-.38-.2-.48-.39l-2.69-5.61c.83-.41,1.38-1.29,1.29-2.3-.11-1.13-1.06-2.04-2.19-2.09-1.33-.06-2.43,1-2.43,2.31,0,.91.53,1.7,1.3,2.08l-2.65,5.52c-.12.24-.36.4-.63.41h0c-.23,0-.46-.09-.6-.28l-2.4-3.03c.32-.17.52-.53.44-.93-.06-.34-.33-.61-.67-.68-.56-.12-1.06.31-1.06.85,0,.39.25.71.6.82l-1.11,3.45c-.09.29-.49.33-.64.07l-2.55-4.38c.4-.26.64-.73.55-1.26-.09-.49-.48-.89-.97-.99-.79-.15-1.48.45-1.48,1.21,0,.68.55,1.23,1.23,1.23.06,0,.12,0,.18-.01l1.03,10.52h-.4c-.37,0-.71.27-.74.65-.04.43.29.79.71.79h24.35c.37,0,.71-.27.74-.65.04-.43-.29-.79-.71-.79h-.29l1.03-10.5c.67,0,1.22-.56,1.22-1.23Z"/>
        <path class="cls-2" d="M42.35,87.55c-.55,0-1.02.38-1.2.91h0s-.04.11-.04.11c-.01.04-.06.04-.07,0l-.04-.11h0c-.18-.53-.65-.91-1.2-.91-.71,0-1.28.61-1.28,1.37,0,.1.01.2.03.3.31,2.01,2.52,2.71,2.52,2.71,0,0,2.22-.7,2.52-2.71.02-.1.03-.2.03-.3,0-.76-.57-1.37-1.28-1.37Z"/>
        <path class="cls-2" d="M60.98,87.55c-.55,0-1.02.38-1.2.91h0s-.04.11-.04.11c-.01.04-.06.04-.07,0l-.04-.11h0c-.18-.53-.65-.91-1.2-.91-.71,0-1.28.61-1.28,1.37,0,.1.01.2.03.3.31,2.01,2.52,2.71,2.52,2.71,0,0,2.22-.7,2.52-2.71.02-.1.03-.2.03-.3,0-.76-.57-1.37-1.28-1.37Z"/>
        <g>
          <path class="cls-2" d="M43.09,46.89s-3.95,12.96-14.24,15.32c0,0-6.24-20.77,14.24-15.32Z"/>
          <path class="cls-2" d="M28.75,62.94s-3.68-.78-3.41,2.89c.26,3.67-.2,5.18-2.75,5.24,0,0,5.56,3.47,7.04.39,1.48-3.08-2.05-6.9-.88-8.53Z"/>
          <circle class="cls-1" cx="28.75" cy="62.94" r="1.15"/>
        </g>
        <g>
          <path class="cls-2" d="M57.53,46.89s3.95,12.96,14.24,15.32c0,0,6.24-20.77-14.24-15.32Z"/>
          <path class="cls-2" d="M71.88,62.94s3.68-.78,3.41,2.89c-.26,3.67.2,5.18,2.75,5.24,0,0-5.56,3.47-7.04.39s2.05-6.9.88-8.53Z"/>
          <circle class="cls-1" cx="71.88" cy="62.94" r="1.15"/>
        </g>
        <path class="cls-2" d="M42.64,70.44c-.1,0-.2-.04-.28-.12-.15-.15-.15-.4,0-.56l3.32-3.32c.15-.15.4-.15.56,0s.15.4,0,.56l-3.32,3.32c-.08.08-.18.12-.28.12Z"/>
        <path class="cls-2" d="M39.47,70.44c-.1,0-.2-.04-.28-.12-.15-.15-.15-.4,0-.56l3.32-3.32c.15-.15.4-.15.56,0,.15.15.15.4,0,.56l-3.32,3.32c-.08.08-.18.12-.28.12Z"/>
        <path class="cls-2" d="M36.3,70.44c-.1,0-.2-.04-.28-.12-.15-.15-.15-.4,0-.56l3.32-3.32c.15-.15.4-.15.56,0,.15.15.15.4,0,.56l-3.32,3.32c-.08.08-.18.12-.28.12Z"/>
        <path class="cls-2" d="M61.21,70.44c-.1,0-.2-.04-.28-.12-.15-.15-.15-.4,0-.56l3.32-3.32c.15-.15.4-.15.56,0,.15.15.15.4,0,.56l-3.32,3.32c-.08.08-.18.12-.28.12Z"/>
        <path class="cls-2" d="M58.04,70.44c-.1,0-.2-.04-.28-.12-.15-.15-.15-.4,0-.56l3.32-3.32c.15-.15.4-.15.56,0,.15.15.15.4,0,.56l-3.32,3.32c-.08.08-.18.12-.28.12Z"/>
        <path class="cls-2" d="M54.87,70.44c-.1,0-.2-.04-.28-.12-.15-.15-.15-.4,0-.56l3.32-3.32c.15-.15.4-.15.56,0,.15.15.15.4,0,.56l-3.32,3.32c-.08.08-.18.12-.28.12Z"/>
      </g>
    </g>
  </g>
</svg>