<?xml version="1.0" encoding="UTF-8"?>
<svg id="Layer_2" data-name="Layer 2" xmlns="http://www.w3.org/2000/svg" viewBox="0 0 99.62 129.35">
  <defs>
    <style>
      .cls-1 {
        fill: #db2626;
      }

      .cls-2 {
        fill: #fff;
      }

      .cls-3 {
        fill: #f2f2f2;
      }

      .cls-4 {
        fill: #ffe3e3;
      }
    </style>
  </defs>
  <g id="Cards">
    <g>
      <rect class="cls-3" width="99.62" height="129.35" rx="16.65" ry="16.65"/>
      <rect class="cls-2" x="4.17" y="4.17" width="91.28" height="121.01" rx="12.48" ry="12.48"/>
      <rect class="cls-4" x="19.56" y="18.39" width="60.5" height="92.57" rx="12.48" ry="12.48"/>
      <path class="cls-1" d="M26.83,11.69s-6.28,18.06-7.16,20.54l-8.24.2,7.83-17.12c-2.57,0-7.04.29-9.26.53l1.43-5.43c4.85-.09,12.15-.12,14.26-.26l1.14,1.55Z"/>
      <path class="cls-1" d="M59.79,47.58c-4.32,0-8,2.95-9.39,7.07h0s-.3.82-.3.82c-.1.28-.47.28-.58,0l-.3-.83h0c-1.39-4.12-5.06-7.07-9.39-7.07-5.51,0-9.98,4.79-9.98,10.71,0,.8.08,1.58.24,2.33,2.4,15.68,19.71,21.16,19.71,21.16,0,0,17.31-5.48,19.71-21.16.16-.75.24-1.53.24-2.33,0-5.91-4.47-10.71-9.98-10.71Z"/>
      <path class="cls-1" d="M23.31,37.5c-1.61,0-2.98,1.1-3.5,2.64h0s-.11.31-.11.31c-.04.1-.18.1-.22,0l-.11-.31h0c-.52-1.53-1.89-2.63-3.5-2.63-2.05,0-3.72,1.79-3.72,3.99,0,.3.03.59.09.87.89,5.84,7.35,7.88,7.35,7.88,0,0,6.45-2.04,7.35-7.88.06-.28.09-.57.09-.87,0-2.2-1.66-3.99-3.72-3.99Z"/>
      <path class="cls-1" d="M72.96,118.83s6.28-18.06,7.16-20.54l8.24-.2-7.83,17.12c2.57,0,7.04-.29,9.26-.53l-1.43,5.43c-4.85.09-12.15.12-14.26.26l-1.14-1.55Z"/>
      <path class="cls-1" d="M76.49,93.02c1.61,0,2.98-1.1,3.5-2.64h0s.11-.31.11-.31c.04-.1.18-.1.21,0l.11.31h0c.52,1.53,1.89,2.63,3.5,2.63,2.05,0,3.72-1.79,3.72-3.99,0-.3-.03-.59-.09-.87-.89-5.84-7.35-7.88-7.35-7.88,0,0-6.45,2.04-7.35,7.88-.06.28-.09.57-.09.87,0,2.2,1.66,3.99,3.72,3.99Z"/>
    </g>
  </g>
</svg>