<?xml version="1.0" encoding="UTF-8"?>
<svg id="Layer_2" data-name="Layer 2" xmlns="http://www.w3.org/2000/svg" viewBox="0 0 100.12 130">
  <defs>
    <style>
      .cls-1 {
        fill: #e6e6e6;
      }

      .cls-2 {
        fill: #fff;
      }

      .cls-3 {
        fill: #f2f2f2;
      }

      .cls-4 {
        fill: #edb53a;
      }

      .cls-5 {
        fill: #1a1a1a;
      }
    </style>
  </defs>
  <g id="Cards">
    <g>
      <rect class="cls-3" width="100.12" height="130" rx="16.74" ry="16.74"/>
      <rect class="cls-2" x="4.19" y="4.19" width="91.73" height="121.61" rx="12.54" ry="12.54"/>
      <rect class="cls-1" x="19.66" y="18.48" width="60.81" height="93.04" rx="12.54" ry="12.54"/>
      <path class="cls-5" d="M28.92,32.39l-7.78.21c.65-2.03,1.2-5.29,1.2-6.84,0-1.35-.73-2.44-2.5-2.44-.7,0-1.35.09-1.76.15-.12,2.5-.12,7.46-.12,8.43-2.14,0-6.28.21-8.05.21,0-6.84-.15-16.15-.35-21.52l8.84-.65-.32,9.04,5.2-8.9,6.58.53-6.61,9.31c2.7.03,6.69,1.17,6.69,5.34,0,2.32-.53,5.26-1.03,7.14Z"/>
      <path class="cls-5" d="M71.12,98.78l7.78-.21c-.65,2.03-1.2,5.29-1.2,6.84,0,1.35.73,2.44,2.5,2.44.7,0,1.35-.09,1.76-.15.12-2.5.12-7.46.12-8.43,2.14,0,6.28-.21,8.05-.21,0,6.84.15,16.15.35,21.52l-8.84.65.32-9.04-5.2,8.9-6.58-.53,6.61-9.31c-2.7-.03-6.69-1.17-6.69-5.34,0-2.32.53-5.26,1.03-7.14Z"/>
      <path class="cls-5" d="M23.26,49.6c2.09,0,3.79-1.69,3.81-3.78.01-1.53-.95-2.9-2.35-3.52-.64-.29-1.26-.35-1.84-.3.47-.71.71-1.59.6-2.53-.2-1.75-1.61-3.16-3.36-3.35-2.29-.25-4.23,1.54-4.23,3.79,0,.78.23,1.5.63,2.1-.15-.02-.3-.03-.46-.03-2.16,0-3.91,1.81-3.8,3.99.09,1.88,1.59,3.45,3.46,3.61,1.55.14,2.93-.66,3.64-1.89.03-.05.11-.03.1.04-.21,1.19-.9,3.18-2.97,3.76-.43.12-.8.21-1.2.33-.15.05-.12.26.04.26h4.33s4.33,0,4.33,0c.15,0,.19-.22.04-.26-.39-.12-.77-.21-1.2-.33-2.07-.58-2.76-2.56-2.97-3.76-.01-.06.07-.09.1-.04.66,1.14,1.89,1.9,3.29,1.9Z"/>
      <path class="cls-5" d="M84.06,81.58c2.09,0,3.79,1.69,3.81,3.78.01,1.53-.95,2.9-2.35,3.52-.64.29-1.26.35-1.84.3.47.71.71,1.59.6,2.53-.2,1.75-1.61,3.16-3.36,3.35-2.29.25-4.23-1.54-4.23-3.79,0-.78.23-1.5.63-2.1-.15.02-.3.03-.46.03-2.16,0-3.91-1.81-3.81-3.99.09-1.88,1.59-3.45,3.46-3.61,1.55-.14,2.93.66,3.64,1.89.03.05.11.03.1-.04-.21-1.19-.9-3.18-2.97-3.76-.43-.12-.8-.21-1.2-.33-.15-.05-.12-.26.04-.26h8.66c.15,0,.19.22.04.26-.39.12-.77.21-1.2.33-2.07.58-2.76,2.56-2.97,3.76-.01.06.07.09.1.04.66-1.14,1.89-1.9,3.29-1.9Z"/>
      <g>
        <path class="cls-2" d="M32.6,59.42l-3.34,16.49s-1.05-1.14-2.75,0c-1.7,1.14-.66,3.36,3.28,2.97,3.93-.39,19.24.05,19.24.05l.16-27.13h-7.25c-4.53,0-8.43,3.19-9.34,7.63Z"/>
        <path class="cls-2" d="M66.23,59.42l3.34,16.49s1.05-1.14,2.75,0c1.7,1.14.66,3.36-3.28,2.97-3.93-.39-19.24.05-19.24.05l-.16-27.13h7.25c4.53,0,8.43,3.19,9.34,7.63Z"/>
        <path class="cls-4" d="M57.56,68.94h-17.23c-1.44,0-2.62,1.18-2.62,2.62v23.92c0,1.44,1.18,2.62,2.62,2.62h3.85s4.17,1.53,9.77,0h3.61c1.44,0,2.62-1.18,2.62-2.62v-23.92c0-1.44-1.18-2.62-2.62-2.62Z"/>
        <path class="cls-4" d="M63.4,36.05c0-.73-.63-1.31-1.37-1.23-.55.06-1.01.51-1.08,1.06-.07.57.24,1.07.71,1.29l-2.5,4.3c-.15.26-.55.22-.64-.07l-1.1-3.44c.42-.11.71-.53.63-1-.06-.34-.33-.62-.67-.69-.56-.12-1.06.31-1.06.85,0,.32.17.59.42.74l-2.45,3.16c-.18.23-.48.33-.76.26l-.11-.03c-.21-.05-.38-.2-.48-.39l-2.69-5.61c.83-.41,1.38-1.29,1.29-2.3-.11-1.13-1.06-2.04-2.19-2.09-1.33-.06-2.43,1-2.43,2.31,0,.91.53,1.7,1.3,2.08l-2.65,5.52c-.12.24-.36.4-.63.41h0c-.23,0-.46-.09-.6-.28l-2.4-3.03c.32-.17.52-.53.44-.93-.06-.34-.33-.61-.67-.68-.56-.12-1.06.31-1.06.85,0,.39.25.71.6.82l-1.11,3.45c-.09.29-.49.33-.64.07l-2.55-4.38c.4-.26.64-.73.55-1.26-.09-.49-.48-.89-.97-.99-.79-.15-1.48.45-1.48,1.21,0,.68.55,1.23,1.23,1.23.06,0,.12,0,.18-.02l1.03,10.52h-.4c-.37,0-.71.27-.74.65-.04.43.29.79.71.79h24.35c.37,0,.71-.27.74-.65.04-.43-.29-.79-.71-.79h-.29l1.03-10.5c.67,0,1.22-.56,1.22-1.23Z"/>
        <g>
          <circle class="cls-5" cx="48.94" cy="91.6" r=".52"/>
          <circle class="cls-5" cx="48.94" cy="94.41" r=".52"/>
          <circle class="cls-5" cx="48.94" cy="97.22" r=".52"/>
        </g>
        <path class="cls-5" d="M58.82,79.13c5.59,0,10.12-4.51,10.16-10.08.03-4.08-2.54-7.73-6.27-9.4-1.72-.77-3.36-.94-4.91-.79,1.25-1.9,1.89-4.24,1.6-6.74-.52-4.66-4.3-8.42-8.96-8.93-6.12-.66-11.29,4.11-11.29,10.1,0,2.07.62,4,1.69,5.6-.4-.05-.81-.08-1.22-.08-5.77,0-10.42,4.82-10.15,10.65.23,5.01,4.24,9.19,9.23,9.63,4.14.36,7.81-1.76,9.71-5.04.08-.14.3-.07.27.09-.55,3.19-2.4,8.47-7.92,10.02-1.14.32-2.14.56-3.19.88-.39.12-.31.7.1.7h11.55s11.55,0,11.55,0c.41,0,.49-.58.1-.7-1.05-.32-2.05-.57-3.19-.88-5.52-1.54-7.37-6.83-7.92-10.02-.03-.16.19-.24.27-.09,1.76,3.03,5.03,5.08,8.79,5.08Z"/>
        <path class="cls-2" d="M52.43,70.58h0c-2.09-.62-4.32-.62-6.41,0h0c-3.14.93-5.39,3.68-5.69,6.93l-.13,1.43s.03.26.2.58c.66,1.31,2.64.92,2.79-.54l.11-1.06c.25-2.32,1.88-4.26,4.13-4.9h0c1.17-.33,2.41-.33,3.58,0h0c2.25.64,3.88,2.58,4.13,4.9l.11,1.07c.15,1.4,2.04,1.85,2.74.63.21-.37.25-.68.25-.68l-.13-1.43c-.3-3.26-2.55-6-5.69-6.93Z"/>
        <g>
          <path class="cls-5" d="M46.93,86.86l-1.27-2.01-9.9-.28s1.37,7.43-2.29,11.01c0,0,5.51,2.97,9.44,1.4,3.93-1.57,4.02-10.11,4.02-10.11Z"/>
          <path class="cls-2" d="M47.74,86.86c1.24.05,1.67-1.62.57-2.18-4.53-2.29-11.18-5.23-13.53-4.06-3.69,1.85-2.31,6,3.23,6,2.85,0,6.69.12,9.73.24Z"/>
          <path class="cls-2" d="M47.55,85.59s1.14,13.33-6.47,13.33-10.57-1.75-9.09-2.97c1.49-1.22,6.9,1.05,9.96.35s3.32-7.86,3.41-10.22c.09-2.36,2.13-2.47,2.18-.49Z"/>
          <path class="cls-5" d="M51.51,86.86l1.27-2.01,9.9-.28s-1.37,7.43,2.29,11.01c0,0-5.51,2.97-9.44,1.4-3.93-1.57-4.02-10.11-4.02-10.11Z"/>
          <path class="cls-2" d="M50.71,86.86c-1.24.05-1.67-1.62-.57-2.18,4.53-2.29,11.18-5.23,13.53-4.06,3.69,1.85,2.31,6-3.23,6-2.85,0-6.69.12-9.73.24Z"/>
          <path class="cls-2" d="M50.89,85.59s-1.14,13.33,6.47,13.33,10.57-1.75,9.09-2.97c-1.49-1.22-6.9,1.05-9.96.35s-3.32-7.86-3.41-10.22c-.09-2.36-2.13-2.47-2.18-.49Z"/>
        </g>
        <path class="cls-2" d="M48.54,79.36h1.36c1.22,0,2.2.99,2.2,2.2v2.21c0,.75-.61,1.35-1.35,1.35h-3.06c-.75,0-1.35-.61-1.35-1.35v-2.21c0-1.22.99-2.2,2.2-2.2Z"/>
        <path class="cls-5" d="M50.18,89.22c.72,0,1.31-.58,1.31-1.3,0-.53-.33-1-.81-1.21-.22-.1-.43-.12-.63-.1.16-.25.24-.55.21-.87-.07-.6-.56-1.09-1.16-1.15-.79-.09-1.46.53-1.46,1.3,0,.27.08.52.22.72-.05,0-.1-.01-.16-.01-.75,0-1.34.62-1.31,1.37.03.65.55,1.19,1.19,1.24.53.05,1.01-.23,1.25-.65.01-.02.04,0,.04.01-.07.41-.31,1.09-1.02,1.29-.15.04-.28.07-.41.11-.05.02-.04.09.01.09h2.98c.05,0,.06-.07.01-.09-.14-.04-.26-.07-.41-.11-.71-.2-.95-.88-1.02-1.29,0-.02.02-.03.04-.01.23.39.65.66,1.13.66Z"/>
        <path class="cls-2" d="M40.86,92.97c.72,0,1.31-.58,1.31-1.3,0-.53-.33-1-.81-1.21-.22-.1-.43-.12-.63-.1.16-.25.24-.55.21-.87-.07-.6-.56-1.09-1.16-1.15-.79-.09-1.46.53-1.46,1.3,0,.27.08.52.22.72-.05,0-.1-.01-.16-.01-.75,0-1.34.62-1.31,1.37.03.65.55,1.19,1.19,1.24.53.05,1.01-.23,1.25-.65.01-.02.04,0,.04.01-.07.41-.31,1.09-1.02,1.29-.15.04-.28.07-.41.11-.05.02-.04.09.01.09h1.49s1.49,0,1.49,0c.05,0,.06-.07.01-.09-.14-.04-.26-.07-.41-.11-.71-.2-.95-.88-1.02-1.29,0-.02.02-.03.04-.01.23.39.65.66,1.13.66Z"/>
        <path class="cls-2" d="M60.06,92.97c.72,0,1.31-.58,1.31-1.3,0-.53-.33-1-.81-1.21-.22-.1-.43-.12-.63-.1.16-.25.24-.55.21-.87-.07-.6-.56-1.09-1.16-1.15-.79-.09-1.46.53-1.46,1.3,0,.27.08.52.22.72-.05,0-.1-.01-.16-.01-.74,0-1.34.62-1.31,1.37.03.65.55,1.19,1.19,1.24.53.05,1.01-.23,1.25-.65.01-.02.04,0,.04.01-.07.41-.31,1.09-1.02,1.29-.15.04-.28.07-.41.11-.05.02-.04.09.01.09h1.49s1.49,0,1.49,0c.05,0,.06-.07.01-.09-.14-.04-.26-.07-.41-.11-.71-.2-.95-.88-1.02-1.29,0-.02.02-.03.04-.01.23.39.65.66,1.13.66Z"/>
      </g>
    </g>
  </g>
</svg>