<?xml version="1.0" encoding="UTF-8"?>
<svg id="Layer_2" data-name="Layer 2" xmlns="http://www.w3.org/2000/svg" viewBox="0 0 99.62 129.35">
  <defs>
    <style>
      .cls-1 {
        fill: #db2626;
      }

      .cls-2 {
        fill: #fff;
      }

      .cls-3 {
        fill: #f2f2f2;
      }

      .cls-4 {
        fill: #ffe3e3;
      }
    </style>
  </defs>
  <g id="Cards">
    <g>
      <rect class="cls-3" width="99.62" height="129.35" rx="16.65" ry="16.65"/>
      <rect class="cls-2" x="4.17" y="4.17" width="91.28" height="121.01" rx="12.48" ry="12.48"/>
      <rect class="cls-4" x="19.56" y="18.39" width="60.5" height="92.57" rx="12.48" ry="12.48"/>
      <path class="cls-1" d="M32.96,31.71l-8.85.61c-.44-1.26-1.02-3.04-1.02-3.04l-6.25.23s-.38,1.2-.67,2.43l-5.9.23,7.6-18.67-1.14-2.31c2.92-.79,4.91-1.29,7.19-2.16l9.06,22.67ZM21.63,24.9l-1.75-5.52-1.69,5.81,3.45-.29Z"/>
      <path class="cls-1" d="M49.81,85.06l-.94-.3c-.78-.25-19.15-6.24-21.85-23.6-.19-.93-.29-1.9-.29-2.87,0-7.63,5.88-13.84,13.11-13.84,3.82,0,7.5,1.81,9.98,4.87,2.48-3.06,6.16-4.87,9.98-4.87,7.23,0,13.11,6.21,13.11,13.84,0,.97-.1,1.94-.29,2.89-2.7,17.34-21.07,23.33-21.85,23.58l-.94.3ZM39.84,45.49c-6.65,0-12.06,5.74-12.06,12.79,0,.9.09,1.8.27,2.69,2.61,16.75,20.38,22.55,21.14,22.79h0l.63.2.63-.2c.76-.24,18.53-6.04,21.14-22.77.18-.91.27-1.81.27-2.71,0-7.06-5.41-12.79-12.06-12.79-3.71,0-7.28,1.86-9.55,4.99l-.42.58-.42-.58c-2.27-3.12-5.85-4.99-9.55-4.99Z"/>
      <path class="cls-1" d="M59.79,47.58c-4.32,0-8,2.95-9.39,7.07h0s-.3.82-.3.82c-.1.28-.47.28-.58,0l-.3-.83h0c-1.39-4.12-5.07-7.07-9.39-7.07-5.51,0-9.98,4.79-9.98,10.71,0,.8.08,1.58.24,2.33,2.4,15.68,19.71,21.16,19.71,21.16,0,0,17.31-5.48,19.71-21.16.16-.75.24-1.53.24-2.33,0-5.91-4.47-10.71-9.98-10.71Z"/>
      <path class="cls-1" d="M23.31,37.5c-1.61,0-2.98,1.1-3.5,2.64h0s-.11.31-.11.31c-.04.1-.18.1-.21,0l-.11-.31h0c-.52-1.53-1.89-2.63-3.5-2.63-2.05,0-3.72,1.79-3.72,3.99,0,.3.03.59.09.87.89,5.84,7.35,7.88,7.35,7.88,0,0,6.45-2.04,7.35-7.88.06-.28.09-.57.09-.87,0-2.2-1.66-3.99-3.72-3.99Z"/>
      <path class="cls-1" d="M66.83,98.81l8.85-.61c.44,1.26,1.02,3.04,1.02,3.04l6.25-.23s.38-1.2.67-2.43l5.9-.23-7.6,18.67,1.14,2.31c-2.92.79-4.91,1.29-7.19,2.16l-9.06-22.67ZM78.17,105.62l1.75,5.52,1.69-5.81-3.45.29Z"/>
      <path class="cls-1" d="M76.49,93.02c1.61,0,2.98-1.1,3.5-2.64h0s.11-.31.11-.31c.04-.1.18-.1.22,0l.11.31h0c.52,1.53,1.89,2.63,3.5,2.63,2.05,0,3.72-1.79,3.72-3.99,0-.3-.03-.59-.09-.87-.89-5.84-7.35-7.88-7.35-7.88,0,0-6.45,2.04-7.35,7.88-.06.28-.09.57-.09.87,0,2.2,1.66,3.99,3.72,3.99Z"/>
    </g>
  </g>
</svg>