<?xml version="1.0" encoding="UTF-8"?>
<svg id="Layer_2" data-name="Layer 2" xmlns="http://www.w3.org/2000/svg" viewBox="0 0 100.12 130">
  <defs>
    <style>
      .cls-1 {
        fill: #db2626;
      }

      .cls-2 {
        fill: #fff;
      }

      .cls-3 {
        fill: #f2f2f2;
      }

      .cls-4 {
        fill: #edb53a;
      }

      .cls-5 {
        fill: #ffe3e3;
      }
    </style>
  </defs>
  <g id="Cards">
    <g>
      <rect class="cls-3" width="100.12" height="130" rx="16.74" ry="16.74"/>
      <rect class="cls-2" x="4.19" y="4.19" width="91.73" height="121.61" rx="12.54" ry="12.54"/>
      <rect class="cls-5" x="19.66" y="18.48" width="60.81" height="93.04" rx="12.54" ry="12.54"/>
      <path class="cls-1" d="M28.92,32.39l-7.78.21c.65-2.03,1.2-5.29,1.2-6.84,0-1.35-.73-2.44-2.5-2.44-.7,0-1.35.09-1.76.15-.12,2.5-.12,7.46-.12,8.43-2.14,0-6.28.21-8.05.21,0-6.84-.15-16.15-.35-21.52l8.84-.65-.32,9.04,5.2-8.9,6.58.53-6.61,9.31c2.7.03,6.69,1.17,6.69,5.34,0,2.32-.53,5.26-1.03,7.14Z"/>
      <path class="cls-1" d="M23.42,37.69c-1.62,0-3,1.1-3.51,2.65h0s-.11.31-.11.31c-.04.11-.18.11-.22,0l-.11-.31h0c-.52-1.54-1.9-2.65-3.51-2.65-2.06,0-3.74,1.8-3.74,4.01,0,.3.03.59.09.87.9,5.87,7.38,7.92,7.38,7.92,0,0,6.48-2.05,7.38-7.92.06-.28.09-.57.09-.87,0-2.21-1.67-4.01-3.74-4.01Z"/>
      <path class="cls-1" d="M71.11,98.78l7.78-.21c-.65,2.03-1.2,5.29-1.2,6.84,0,1.35.73,2.44,2.5,2.44.7,0,1.35-.09,1.76-.15.12-2.5.12-7.46.12-8.43,2.14,0,6.28-.21,8.05-.21,0,6.84.15,16.15.35,21.52l-8.84.65.32-9.04-5.2,8.9-6.58-.53,6.61-9.31c-2.7-.03-6.69-1.17-6.69-5.34,0-2.32.53-5.26,1.03-7.14Z"/>
      <path class="cls-1" d="M76.87,93.49c1.62,0,3-1.1,3.51-2.65h0s.11-.31.11-.31c.04-.11.18-.11.22,0l.11.31h0c.52,1.54,1.9,2.65,3.51,2.65,2.06,0,3.74-1.8,3.74-4.01,0-.3-.03-.59-.09-.87-.9-5.87-7.38-7.92-7.38-7.92,0,0-6.48,2.05-7.38,7.92-.06.28-.09.57-.09.87,0,2.21,1.67,4.01,3.74,4.01Z"/>
      <g>
        <path class="cls-4" d="M59.18,74.99h-17.23c-1.44,0-2.62,1.18-2.62,2.62v16.14c0,1.44,1.18,2.62,2.62,2.62h3.85s4.17,1.53,9.77,0h3.61c1.44,0,2.62-1.18,2.62-2.62v-16.14c0-1.44-1.18-2.62-2.62-2.62Z"/>
        <path class="cls-2" d="M32.16,65.73l-1.53,9.25s-1.05-1.14-2.75,0c-1.7,1.14-.66,3.36,3.28,2.97,3.93-.39,19.24.05,19.24.05l.16-12.27h-18.4Z"/>
        <path class="cls-2" d="M68.47,65.73l1.53,9.25s1.05-1.14,2.75,0c1.7,1.14.66,3.36-3.28,2.97-3.93-.39-19.24.05-19.24.05l-.16-12.27h18.4Z"/>
        <path class="cls-1" d="M60.71,47.82c-4.34,0-8.04,2.96-9.43,7.11h0s-.3.83-.3.83c-.1.28-.48.28-.58,0l-.3-.83h0c-1.39-4.14-5.09-7.1-9.43-7.1-5.54,0-10.03,4.82-10.03,10.76,0,.8.08,1.59.24,2.34,2.41,15.76,19.81,21.26,19.81,21.26,0,0,17.4-5.51,19.81-21.26.16-.75.24-1.54.24-2.34,0-5.94-4.49-10.76-10.03-10.76Z"/>
        <path class="cls-4" d="M64.98,31.62c0-.73-.63-1.31-1.37-1.23-.55.06-1.01.51-1.08,1.06-.07.57.24,1.07.71,1.29l-2.5,4.3c-.15.26-.55.22-.64-.07l-1.1-3.44c.42-.11.71-.53.63-1-.06-.34-.33-.62-.67-.69-.56-.12-1.06.31-1.06.85,0,.32.17.59.42.74l-2.45,3.16c-.18.23-.48.33-.76.26l-.11-.03c-.21-.05-.38-.2-.48-.39l-2.69-5.61c.83-.41,1.38-1.29,1.29-2.3-.11-1.13-1.06-2.04-2.19-2.09-1.33-.06-2.43,1-2.43,2.31,0,.91.53,1.7,1.3,2.08l-2.65,5.52c-.12.24-.36.4-.63.41h0c-.23,0-.46-.09-.6-.28l-2.4-3.03c.32-.17.52-.53.44-.93-.06-.34-.33-.61-.67-.68-.56-.12-1.06.31-1.06.85,0,.39.25.71.6.82l-1.11,3.45c-.09.29-.49.33-.64.07l-2.55-4.38c.4-.26.64-.73.55-1.26-.09-.49-.48-.89-.97-.99-.79-.15-1.48.45-1.48,1.21,0,.68.55,1.23,1.23,1.23.06,0,.12,0,.18-.02l1.03,10.52h-.4c-.37,0-.71.27-.74.65-.04.43.29.79.71.79h24.35c.37,0,.71-.27.74-.65.04-.43-.29-.79-.71-.79h-.29l1.03-10.5c.67,0,1.22-.56,1.22-1.23Z"/>
        <path class="cls-2" d="M50,76.38h1.36c1.22,0,2.2.99,2.2,2.2v2.21c0,.75-.61,1.35-1.35,1.35h-3.06c-.75,0-1.35-.61-1.35-1.35v-2.21c0-1.22.99-2.2,2.2-2.2Z"/>
        <g>
          <path class="cls-1" d="M48.39,85.41l-1.27-2.01-9.9-.28s1.37,7.43-2.29,11.01c0,0,5.51,2.97,9.44,1.4,3.93-1.57,4.02-10.11,4.02-10.11Z"/>
          <path class="cls-2" d="M49.2,85.4c1.24.05,1.67-1.62.57-2.18-4.53-2.29-11.18-5.23-13.53-4.06-3.69,1.85-2.31,6,3.23,6,2.85,0,6.69.12,9.73.24Z"/>
          <path class="cls-2" d="M49.01,84.13s1.14,13.33-6.46,13.33-10.57-1.75-9.09-2.97c1.49-1.22,6.9,1.05,9.96.35s3.32-7.86,3.41-10.22c.09-2.36,2.13-2.47,2.18-.49Z"/>
          <path class="cls-1" d="M52.97,85.41l1.27-2.01,9.9-.28s-1.37,7.43,2.29,11.01c0,0-5.51,2.97-9.44,1.4-3.93-1.57-4.02-10.11-4.02-10.11Z"/>
          <path class="cls-2" d="M52.17,85.4c-1.24.05-1.67-1.62-.57-2.18,4.53-2.29,11.18-5.23,13.53-4.06,3.69,1.85,2.31,6-3.23,6-2.85,0-6.69.12-9.73.24Z"/>
          <path class="cls-2" d="M52.35,84.13s-1.14,13.33,6.46,13.33,10.57-1.75,9.09-2.97c-1.49-1.22-6.9,1.05-9.96.35s-3.32-7.86-3.41-10.22c-.09-2.36-2.13-2.47-2.18-.49Z"/>
        </g>
        <path class="cls-2" d="M53.88,69.08h0c-2.09-.62-4.32-.62-6.41,0h0c-3.14.93-5.39,3.68-5.69,6.93l-.13,1.43s.25,1.95,2.8,1.82l.31-2.84c.25-2.32,1.88-4.26,4.13-4.9h0c1.17-.33,2.41-.33,3.58,0h0c2.25.64,3.88,2.58,4.13,4.9l.31,2.84c2.55.13,2.8-1.82,2.8-1.82l-.13-1.43c-.3-3.26-2.55-6-5.69-6.93Z"/>
        <path class="cls-1" d="M51.9,82.74c-.55,0-1.02.38-1.2.91h0s-.04.11-.04.11c-.01.04-.06.04-.07,0l-.04-.11h0c-.18-.53-.65-.91-1.2-.91-.71,0-1.28.61-1.28,1.37,0,.1.01.2.03.3.31,2.01,2.52,2.71,2.52,2.71,0,0,2.22-.7,2.52-2.71.02-.1.03-.2.03-.3,0-.76-.57-1.37-1.28-1.37Z"/>
        <path class="cls-2" d="M42.94,87.91c-.55,0-1.02.38-1.2.91h0s-.04.11-.04.11c-.01.04-.06.04-.07,0l-.04-.11h0c-.18-.53-.65-.91-1.2-.91-.71,0-1.28.61-1.28,1.37,0,.1.01.2.03.3.31,2.01,2.52,2.71,2.52,2.71,0,0,2.22-.7,2.52-2.71.02-.1.03-.2.03-.3,0-.76-.57-1.37-1.28-1.37Z"/>
        <path class="cls-2" d="M61.56,87.91c-.55,0-1.02.38-1.2.91h0s-.04.11-.04.11c-.01.04-.06.04-.07,0l-.04-.11h0c-.18-.53-.65-.91-1.2-.91-.71,0-1.28.61-1.28,1.37,0,.1.01.2.03.3.31,2.01,2.52,2.71,2.52,2.71,0,0,2.22-.7,2.52-2.71.02-.1.03-.2.03-.3,0-.76-.57-1.37-1.28-1.37Z"/>
        <g>
          <circle class="cls-1" cx="50.62" cy="88.7" r=".52"/>
          <circle class="cls-1" cx="50.62" cy="91.51" r=".52"/>
          <path class="cls-1" d="M51.14,94.32c0,.29-.23.52-.52.52s-.52-.23-.52-.52.23-.52.52-.52.52.23.52.52Z"/>
        </g>
      </g>
    </g>
  </g>
</svg>