<?xml version="1.0" encoding="UTF-8"?>
<svg id="Layer_2" data-name="Layer 2" xmlns="http://www.w3.org/2000/svg" viewBox="0 0 99.62 129.35">
  <defs>
    <style>
      .cls-1 {
        fill: #db2626;
      }

      .cls-2 {
        fill: #fff;
      }

      .cls-3 {
        fill: #f2f2f2;
      }

      .cls-4 {
        fill: #ffe3e3;
      }
    </style>
  </defs>
  <g id="Cards">
    <g>
      <rect class="cls-3" width="99.62" height="129.35" rx="16.65" ry="16.65"/>
      <rect class="cls-2" x="4.17" y="4.17" width="91.28" height="121.01" rx="12.48" ry="12.48"/>
      <rect class="cls-4" x="19.56" y="18.39" width="60.5" height="92.57" rx="12.48" ry="12.48"/>
      <path class="cls-1" d="M19.61,32.17c-4.53,0-9.06-1.55-9.06-5.67,0-2.42,2.28-4.29,4.67-5.23-2.07-1.29-3.62-2.8-3.62-5.11,0-3.62,4.24-6.05,8.94-6.05s8.36,1.96,8.36,5.03c0,2.19-1.05,3.36-3.16,4.67,2.83,1.52,4.59,2.98,4.59,5.43,0,4.88-4.88,6.92-10.72,6.92ZM18.97,23.17c-1.34.7-2.48,1.49-2.48,3.01,0,1.02,1.05,1.87,2.92,1.87,1.69,0,2.69-.76,2.69-2.13s-1.4-2.1-3.13-2.75ZM21.39,14.09c-.91,0-1.72.55-1.72,1.49s.99,1.52,2.37,2.05c.93-.64,1.43-1.08,1.43-2.07,0-.94-.67-1.46-2.07-1.46Z"/>
      <path class="cls-1" d="M59.79,47.58c-4.32,0-8,2.95-9.39,7.07h0s-.3.82-.3.82c-.1.28-.47.28-.58,0l-.3-.83h0c-1.39-4.12-5.07-7.07-9.39-7.07-5.51,0-9.98,4.79-9.98,10.71,0,.8.08,1.58.24,2.33,2.4,15.68,19.71,21.16,19.71,21.16,0,0,17.31-5.48,19.71-21.16.16-.75.24-1.53.24-2.33,0-5.91-4.47-10.71-9.98-10.71Z"/>
      <path class="cls-1" d="M23.31,37.5c-1.61,0-2.98,1.1-3.5,2.64h0s-.11.31-.11.31c-.04.1-.18.1-.22,0l-.11-.31h0c-.52-1.53-1.89-2.63-3.5-2.63-2.05,0-3.72,1.79-3.72,3.99,0,.3.03.59.09.87.89,5.84,7.35,7.88,7.35,7.88,0,0,6.45-2.04,7.35-7.88.06-.28.09-.57.09-.87,0-2.2-1.66-3.99-3.72-3.99Z"/>
      <path class="cls-1" d="M80.18,98.35c4.53,0,9.06,1.55,9.06,5.67,0,2.43-2.28,4.29-4.67,5.23,2.07,1.29,3.62,2.8,3.62,5.11,0,3.62-4.24,6.05-8.94,6.05s-8.36-1.96-8.36-5.03c0-2.19,1.05-3.36,3.16-4.67-2.83-1.52-4.59-2.98-4.59-5.43,0-4.88,4.88-6.92,10.72-6.92ZM78.4,116.43c.91,0,1.72-.55,1.72-1.49s-.99-1.52-2.37-2.05c-.94.64-1.43,1.08-1.43,2.07,0,.94.67,1.46,2.07,1.46ZM80.82,107.35c1.34-.7,2.48-1.49,2.48-3.01,0-1.02-1.05-1.87-2.92-1.87-1.69,0-2.69.76-2.69,2.13s1.4,2.1,3.13,2.75Z"/>
      <path class="cls-1" d="M76.49,93.02c1.61,0,2.98-1.1,3.5-2.64h0s.11-.31.11-.31c.04-.1.18-.1.22,0l.11.31h0c.52,1.53,1.89,2.63,3.5,2.63,2.05,0,3.72-1.79,3.72-3.99,0-.3-.03-.59-.09-.87-.89-5.84-7.35-7.88-7.35-7.88,0,0-6.45,2.04-7.35,7.88-.06.28-.09.57-.09.87,0,2.2,1.66,3.99,3.72,3.99Z"/>
    </g>
  </g>
</svg>